<svg xmlns="http://www.w3.org/2000/svg" xmlns:xlink="http://www.w3.org/1999/xlink" width="209.085" height="209.085" viewBox="0 0 209.085 209.085">
  <defs>
    <filter id="矩形_1540" x="38.265" y="37.02" width="143.099" height="143.599" filterUnits="userSpaceOnUse">
      <feOffset dx="3" dy="5" input="SourceAlpha"/>
      <feGaussianBlur stdDeviation="1.5" result="blur"/>
      <feFlood flood-opacity="0.149"/>
      <feComposite operator="in" in2="blur"/>
      <feComposite in="SourceGraphic"/>
    </filter>
  </defs>
  <g id="step6" transform="translate(0)">
    <path id="矩形_1538" data-name="矩形 1538" d="M100,0h2.153a100,100,0,0,1,100,100V202.153a0,0,0,0,1,0,0H100a100,100,0,0,1-100-100V100A100,100,0,0,1,100,0Z" transform="translate(0 7.055) rotate(-2)" fill="#fea932"/>
    <g id="白色圓圈" transform="translate(30.808 28.901)">
      <rect id="矩形_1539" data-name="矩形 1539" width="151.362" height="151.362" rx="75.681" fill="none" stroke="#fff" stroke-miterlimit="10" stroke-width="1"/>
      <g transform="matrix(1, 0, 0, 1, -30.81, -28.9)" filter="url(#矩形_1540)">
        <rect id="矩形_1540-2" data-name="矩形 1540" width="134.099" height="134.099" rx="67.05" transform="translate(39.77 37.02)" fill="#fff"/>
      </g>
    </g>
  </g>
</svg>
