<svg xmlns="http://www.w3.org/2000/svg" width="1374" height="574" viewBox="0 0 1374 574">
  <g id="step6_contain" transform="translate(-273 -770)">
    <g id="组_2051" data-name="组 2051">
      <g id="组_2035" data-name="组 2035" transform="translate(11 -5)">
        <g id="组_2022" data-name="组 2022" transform="translate(262 803)">
          <g id="组_2027" data-name="组 2027" transform="translate(0 0)">
            <g id="联合_5" data-name="联合 5" transform="translate(0 0)" fill="none" stroke-dasharray="5">
              <path d="M20-28H1354a20,20,0,0,1,20,20V526a20,20,0,0,1-20,20H20A20,20,0,0,1,0,526V-8A20,20,0,0,1,20-28Z" stroke="none"/>
              <path d="M 20 -28 L 25 -28 L 25 -25 L 20 -25 L 20 -28 C 20 -28 20 -28 20 -28 Z M 30 -28 L 35 -28 L 35 -25 L 30 -25 L 30 -28 Z M 40 -28 L 45 -28 L 45 -25 L 40 -25 L 40 -28 Z M 50 -28 L 55 -28 L 55 -25 L 50 -25 L 50 -28 Z M 60 -28 L 65 -28 L 65 -25 L 60 -25 L 60 -28 Z M 70 -28 L 75 -28 L 75 -25 L 70 -25 L 70 -28 Z M 80 -28 L 85 -28 L 85 -25 L 80 -25 L 80 -28 Z M 90 -28 L 95 -28 L 95 -25 L 90 -25 L 90 -28 Z M 100 -28 L 105 -28 L 105 -25 L 100 -25 L 100 -28 Z M 110 -28 L 115 -28 L 115 -25 L 110 -25 L 110 -28 Z M 120 -28 L 125 -28 L 125 -25 L 120 -25 L 120 -28 Z M 130 -28 L 135 -28 L 135 -25 L 130 -25 L 130 -28 Z M 140 -28 L 145 -28 L 145 -25 L 140 -25 L 140 -28 Z M 150 -28 L 155 -28 L 155 -25 L 150 -25 L 150 -28 Z M 160 -28 L 165 -28 L 165 -25 L 160 -25 L 160 -28 Z M 170 -28 L 175 -28 L 175 -25 L 170 -25 L 170 -28 Z M 180 -28 L 185 -28 L 185 -25 L 180 -25 L 180 -28 Z M 190 -28 L 195 -28 L 195 -25 L 190 -25 L 190 -28 Z M 200 -28 L 205 -28 L 205 -25 L 200 -25 L 200 -28 Z M 210 -28 L 215 -28 L 215 -25 L 210 -25 L 210 -28 Z M 220 -28 L 225 -28 L 225 -25 L 220 -25 L 220 -28 Z M 230 -28 L 235 -28 L 235 -25 L 230 -25 L 230 -28 Z M 240 -28 L 245 -28 L 245 -25 L 240 -25 L 240 -28 Z M 250 -28 L 255 -28 L 255 -25 L 250 -25 L 250 -28 Z M 260 -28 L 265 -28 L 265 -25 L 260 -25 L 260 -28 Z M 270 -28 L 275 -28 L 275 -25 L 270 -25 L 270 -28 Z M 280 -28 L 285 -28 L 285 -25 L 280 -25 L 280 -28 Z M 290 -28 L 295 -28 L 295 -25 L 290 -25 L 290 -28 Z M 300 -28 L 305 -28 L 305 -25 L 300 -25 L 300 -28 Z M 310 -28 L 315 -28 L 315 -25 L 310 -25 L 310 -28 Z M 320 -28 L 325 -28 L 325 -25 L 320 -25 L 320 -28 Z M 330 -28 L 335 -28 L 335 -25 L 330 -25 L 330 -28 Z M 340 -28 L 345 -28 L 345 -25 L 340 -25 L 340 -28 Z M 350 -28 L 355 -28 L 355 -25 L 350 -25 L 350 -28 Z M 360 -28 L 365 -28 L 365 -25 L 360 -25 L 360 -28 Z M 370 -28 L 375 -28 L 375 -25 L 370 -25 L 370 -28 Z M 380 -28 L 385 -28 L 385 -25 L 380 -25 L 380 -28 Z M 390 -28 L 395 -28 L 395 -25 L 390 -25 L 390 -28 Z M 400 -28 L 405 -28 L 405 -25 L 400 -25 L 400 -28 Z M 410 -28 L 415 -28 L 415 -25 L 410 -25 L 410 -28 Z M 420 -28 L 425 -28 L 425 -25 L 420 -25 L 420 -28 Z M 430 -28 L 435 -28 L 435 -25 L 430 -25 L 430 -28 Z M 440 -28 L 445 -28 L 445 -25 L 440 -25 L 440 -28 Z M 450 -28 L 455 -28 L 455 -25 L 450 -25 L 450 -28 Z M 460 -28 L 465 -28 L 465 -25 L 460 -25 L 460 -28 Z M 470 -28 L 475 -28 L 475 -25 L 470 -25 L 470 -28 Z M 480 -28 L 485 -28 L 485 -25 L 480 -25 L 480 -28 Z M 490 -28 L 495 -28 L 495 -25 L 490 -25 L 490 -28 Z M 500 -28 L 505 -28 L 505 -25 L 500 -25 L 500 -28 Z M 510 -28 L 515 -28 L 515 -25 L 510 -25 L 510 -28 Z M 520 -28 L 525 -28 L 525 -25 L 520 -25 L 520 -28 Z M 530 -28 L 535 -28 L 535 -25 L 530 -25 L 530 -28 Z M 540 -28 L 545 -28 L 545 -25 L 540 -25 L 540 -28 Z M 550 -28 L 555 -28 L 555 -25 L 550 -25 L 550 -28 Z M 560 -28 L 565 -28 L 565 -25 L 560 -25 L 560 -28 Z M 570 -28 L 575 -28 L 575 -25 L 570 -25 L 570 -28 Z M 580 -28 L 585 -28 L 585 -25 L 580 -25 L 580 -28 Z M 590 -28 L 595 -28 L 595 -25 L 590 -25 L 590 -28 Z M 600 -28 L 605 -28 L 605 -25 L 600 -25 L 600 -28 Z M 610 -28 L 615 -28 L 615 -25 L 610 -25 L 610 -28 Z M 620 -28 L 625 -28 L 625 -25 L 620 -25 L 620 -28 Z M 630 -28 L 635 -28 L 635 -25 L 630 -25 L 630 -28 Z M 640 -28 L 645 -28 L 645 -25 L 640 -25 L 640 -28 Z M 650 -28 L 655 -28 L 655 -25 L 650 -25 L 650 -28 Z M 660 -28 L 665 -28 L 665 -25 L 660 -25 L 660 -28 Z M 670 -28 L 675 -28 L 675 -25 L 670 -25 L 670 -28 Z M 680 -28 L 685 -28 L 685 -25 L 680 -25 L 680 -28 Z M 690 -28 L 695 -28 L 695 -25 L 690 -25 L 690 -28 Z M 700 -28 L 705 -28 L 705 -25 L 700 -25 L 700 -28 Z M 710 -28 L 715 -28 L 715 -25 L 710 -25 L 710 -28 Z M 720 -28 L 725 -28 L 725 -25 L 720 -25 L 720 -28 Z M 730 -28 L 735 -28 L 735 -25 L 730 -25 L 730 -28 Z M 740 -28 L 745 -28 L 745 -25 L 740 -25 L 740 -28 Z M 750 -28 L 755 -28 L 755 -25 L 750 -25 L 750 -28 Z M 760 -28 L 765 -28 L 765 -25 L 760 -25 L 760 -28 Z M 770 -28 L 775 -28 L 775 -25 L 770 -25 L 770 -28 Z M 780 -28 L 785 -28 L 785 -25 L 780 -25 L 780 -28 Z M 790 -28 L 795 -28 L 795 -25 L 790 -25 L 790 -28 Z M 800 -28 L 805 -28 L 805 -25 L 800 -25 L 800 -28 Z M 810 -28 L 815 -28 L 815 -25 L 810 -25 L 810 -28 Z M 820 -28 L 825 -28 L 825 -25 L 820 -25 L 820 -28 Z M 830 -28 L 835 -28 L 835 -25 L 830 -25 L 830 -28 Z M 840 -28 L 845 -28 L 845 -25 L 840 -25 L 840 -28 Z M 850 -28 L 855 -28 L 855 -25 L 850 -25 L 850 -28 Z M 860 -28 L 865 -28 L 865 -25 L 860 -25 L 860 -28 Z M 870 -28 L 875 -28 L 875 -25 L 870 -25 L 870 -28 Z M 880 -28 L 885 -28 L 885 -25 L 880 -25 L 880 -28 Z M 890 -28 L 895 -28 L 895 -25 L 890 -25 L 890 -28 Z M 900 -28 L 905 -28 L 905 -25 L 900 -25 L 900 -28 Z M 910 -28 L 915 -28 L 915 -25 L 910 -25 L 910 -28 Z M 920 -28 L 925 -28 L 925 -25 L 920 -25 L 920 -28 Z M 930 -28 L 935 -28 L 935 -25 L 930 -25 L 930 -28 Z M 940 -28 L 945 -28 L 945 -25 L 940 -25 L 940 -28 Z M 950 -28 L 955 -28 L 955 -25 L 950 -25 L 950 -28 Z M 960 -28 L 965 -28 L 965 -25 L 960 -25 L 960 -28 Z M 970 -28 L 975 -28 L 975 -25 L 970 -25 L 970 -28 Z M 980 -28 L 985 -28 L 985 -25 L 980 -25 L 980 -28 Z M 990 -28 L 995 -28 L 995 -25 L 990 -25 L 990 -28 Z M 1000 -28 L 1005 -28 L 1005 -25 L 1000 -25 L 1000 -28 Z M 1010 -28 L 1015 -28 L 1015 -25 L 1010 -25 L 1010 -28 Z M 1020 -28 L 1025 -28 L 1025 -25 L 1020 -25 L 1020 -28 Z M 1030 -28 L 1035 -28 L 1035 -25 L 1030 -25 L 1030 -28 Z M 1040 -28 L 1045 -28 L 1045 -25 L 1040 -25 L 1040 -28 Z M 1050 -28 L 1055 -28 L 1055 -25 L 1050 -25 L 1050 -28 Z M 1060 -28 L 1065 -28 L 1065 -25 L 1060 -25 L 1060 -28 Z M 1070 -28 L 1075 -28 L 1075 -25 L 1070 -25 L 1070 -28 Z M 1080 -28 L 1085 -28 L 1085 -25 L 1080 -25 L 1080 -28 Z M 1090 -28 L 1095 -28 L 1095 -25 L 1090 -25 L 1090 -28 Z M 1100 -28 L 1105 -28 L 1105 -25 L 1100 -25 L 1100 -28 Z M 1110 -28 L 1115 -28 L 1115 -25 L 1110 -25 L 1110 -28 Z M 1120 -28 L 1125 -28 L 1125 -25 L 1120 -25 L 1120 -28 Z M 1130 -28 L 1135 -28 L 1135 -25 L 1130 -25 L 1130 -28 Z M 1140 -28 L 1145 -28 L 1145 -25 L 1140 -25 L 1140 -28 Z M 1150 -28 L 1155 -28 L 1155 -25 L 1150 -25 L 1150 -28 Z M 1160 -28 L 1165 -28 L 1165 -25 L 1160 -25 L 1160 -28 Z M 1170 -28 L 1175 -28 L 1175 -25 L 1170 -25 L 1170 -28 Z M 1180 -28 L 1185 -28 L 1185 -25 L 1180 -25 L 1180 -28 Z M 1190 -28 L 1195 -28 L 1195 -25 L 1190 -25 L 1190 -28 Z M 1200 -28 L 1205 -28 L 1205 -25 L 1200 -25 L 1200 -28 Z M 1210 -28 L 1215 -28 L 1215 -25 L 1210 -25 L 1210 -28 Z M 1220 -28 L 1225 -28 L 1225 -25 L 1220 -25 L 1220 -28 Z M 1230 -28 L 1235 -28 L 1235 -25 L 1230 -25 L 1230 -28 Z M 1240 -28 L 1245 -28 L 1245 -25 L 1240 -25 L 1240 -28 Z M 1250 -28 L 1255 -28 L 1255 -25 L 1250 -25 L 1250 -28 Z M 1260 -28 L 1265 -28 L 1265 -25 L 1260 -25 L 1260 -28 Z M 1270 -28 L 1275 -28 L 1275 -25 L 1270 -25 L 1270 -28 Z M 1280 -28 L 1285 -28 L 1285 -25 L 1280 -25 L 1280 -28 Z M 1290 -28 L 1295 -28 L 1295 -25 L 1290 -25 L 1290 -28 Z M 1300 -28 L 1305 -28 L 1305 -25 L 1300 -25 L 1300 -28 Z M 1310 -28 L 1315 -28 L 1315 -25 L 1310 -25 L 1310 -28 Z M 1320 -28 L 1325 -28 L 1325 -25 L 1320 -25 L 1320 -28 Z M 1330 -28 L 1335 -28 L 1335 -25 L 1330 -25 L 1330 -28 Z M 1340 -28 L 1345 -28 L 1345 -25 L 1340 -25 L 1340 -28 Z M 1350 -28 L 1354 -28 C 1354.335083007812 -28 1354.668579101562 -27.99176025390625 1354.999633789062 -27.9754638671875 L 1354.852172851562 -24.97906494140625 C 1354.570190429688 -24.992919921875 1354.283447265625 -25 1354 -25 L 1350 -25 L 1350 -28 Z M 1359.911499023438 -27.1119384765625 C 1361.5224609375 -26.61431884765625 1363.045166015625 -25.91912841796875 1364.453735351562 -25.05377197265625 L 1362.883422851562 -22.49761962890625 C 1361.674682617188 -23.24017333984375 1360.376708984375 -23.828369140625 1359.02587890625 -24.24566650390625 L 1359.911499023438 -27.11199951171875 Z M 1368.345825195312 -21.9354248046875 C 1368.347534179688 -21.93365478515625 1368.349731445312 -21.93145751953125 1368.351440429688 -21.9296875 C 1368.354370117188 -21.92669677734375 1368.357055664062 -21.92388916015625 1368.359985351562 -21.9208984375 C 1368.366455078125 -21.9141845703125 1368.373901367188 -21.906494140625 1368.38037109375 -21.8997802734375 C 1368.385986328125 -21.89404296875 1368.391479492188 -21.8883056640625 1368.397094726562 -21.88250732421875 C 1368.400146484375 -21.87933349609375 1368.402954101562 -21.8763427734375 1368.406005859375 -21.8731689453125 C 1368.41162109375 -21.867431640625 1368.417114257812 -21.86175537109375 1368.422607421875 -21.85595703125 C 1368.425170898438 -21.853271484375 1368.427490234375 -21.850830078125 1368.43017578125 -21.84814453125 C 1368.437744140625 -21.8402099609375 1368.445434570312 -21.8321533203125 1368.453002929688 -21.82421875 C 1368.453491210938 -21.82379150390625 1368.453857421875 -21.82342529296875 1368.454223632812 -21.822998046875 C 1368.471801757812 -21.8045654296875 1368.489501953125 -21.78607177734375 1368.506958007812 -21.767578125 C 1368.507446289062 -21.76715087890625 1368.508178710938 -21.766357421875 1368.508544921875 -21.76593017578125 C 1369.313110351562 -20.91827392578125 1370.044189453125 -20.0001220703125 1370.691528320312 -19.0218505859375 C 1370.691528320312 -19.0218505859375 1370.692138671875 -19.02081298828125 1370.692138671875 -19.02081298828125 C 1370.713500976562 -18.98858642578125 1370.734619140625 -18.95635986328125 1370.755737304688 -18.924072265625 C 1370.756103515625 -18.92352294921875 1370.7568359375 -18.92236328125 1370.757202148438 -18.921875 C 1370.763305664062 -18.9124755859375 1370.76953125 -18.9029541015625 1370.775634765625 -18.8935546875 C 1370.776611328125 -18.8919677734375 1370.777954101562 -18.89007568359375 1370.778930664062 -18.88848876953125 C 1370.792236328125 -18.86798095703125 1370.8056640625 -18.84735107421875 1370.818969726562 -18.8267822265625 C 1370.820678710938 -18.82415771484375 1370.821899414062 -18.82220458984375 1370.823608398438 -18.819580078125 C 1370.828491210938 -18.81201171875 1370.833374023438 -18.8043212890625 1370.838256835938 -18.7967529296875 C 1370.84033203125 -18.7935791015625 1370.84228515625 -18.79052734375 1370.84423828125 -18.78741455078125 C 1370.8486328125 -18.78057861328125 1370.85302734375 -18.773681640625 1370.857421875 -18.76690673828125 C 1370.859741210938 -18.76324462890625 1370.862182617188 -18.75933837890625 1370.864624023438 -18.75567626953125 C 1370.870361328125 -18.74664306640625 1370.876098632812 -18.737548828125 1370.8818359375 -18.728515625 C 1370.884887695312 -18.7237548828125 1370.887817382812 -18.71917724609375 1370.890869140625 -18.71441650390625 C 1370.893920898438 -18.70965576171875 1370.89697265625 -18.70477294921875 1370.900024414062 -18.70001220703125 C 1370.9033203125 -18.69476318359375 1370.906616210938 -18.68951416015625 1370.910034179688 -18.6842041015625 C 1370.912963867188 -18.6795654296875 1370.916015625 -18.6746826171875 1370.9189453125 -18.6700439453125 C 1370.92236328125 -18.66473388671875 1370.925659179688 -18.659423828125 1370.929077148438 -18.65411376953125 C 1370.930786132812 -18.65142822265625 1370.932495117188 -18.64862060546875 1370.934204101562 -18.64599609375 C 1370.943603515625 -18.631103515625 1370.952392578125 -18.61712646484375 1370.961669921875 -18.60223388671875 C 1370.961791992188 -18.60198974609375 1370.9619140625 -18.60174560546875 1370.962158203125 -18.60150146484375 C 1370.966796875 -18.59405517578125 1370.970947265625 -18.58740234375 1370.9755859375 -18.57989501953125 C 1370.97705078125 -18.57757568359375 1370.978515625 -18.57525634765625 1370.97998046875 -18.57293701171875 C 1371.10693359375 -18.36944580078125 1371.230590820312 -18.1632080078125 1371.350341796875 -17.95489501953125 L 1368.749633789062 -16.45947265625 C 1368.043579101562 -17.68707275390625 1367.183959960938 -18.826171875 1366.194213867188 -19.84490966796875 L 1368.345825195312 -21.9354248046875 Z M 1373.275146484375 -13.3543701171875 C 1373.420532226562 -12.83026123046875 1373.544921875 -12.2977294921875 1373.647583007812 -11.75726318359375 C 1373.647827148438 -11.75628662109375 1373.64794921875 -11.75531005859375 1373.648193359375 -11.75433349609375 C 1373.64990234375 -11.74542236328125 1373.651733398438 -11.735595703125 1373.653442382812 -11.72662353515625 C 1373.653686523438 -11.72503662109375 1373.653930664062 -11.7236328125 1373.654296875 -11.7220458984375 C 1373.661376953125 -11.684326171875 1373.668334960938 -11.646728515625 1373.67529296875 -11.60894775390625 C 1373.675903320312 -11.6053466796875 1373.676513671875 -11.60186767578125 1373.677124023438 -11.5982666015625 C 1373.678466796875 -11.59124755859375 1373.679931640625 -11.58319091796875 1373.68115234375 -11.576171875 C 1373.681884765625 -11.5723876953125 1373.682495117188 -11.56866455078125 1373.683227539062 -11.56488037109375 C 1373.684448242188 -11.557861328125 1373.685791015625 -11.5504150390625 1373.68701171875 -11.5433349609375 C 1373.688110351562 -11.53790283203125 1373.68896484375 -11.532470703125 1373.68994140625 -11.5269775390625 C 1373.691040039062 -11.521240234375 1373.692138671875 -11.51495361328125 1373.693115234375 -11.50921630859375 C 1373.694946289062 -11.49884033203125 1373.69677734375 -11.4886474609375 1373.698608398438 -11.478271484375 C 1373.69970703125 -11.47186279296875 1373.70068359375 -11.46649169921875 1373.701782226562 -11.46002197265625 C 1373.702758789062 -11.45428466796875 1373.703857421875 -11.44842529296875 1373.704833984375 -11.442626953125 C 1373.705688476562 -11.4375 1373.70654296875 -11.43243408203125 1373.70751953125 -11.42724609375 C 1373.708618164062 -11.4202880859375 1373.7099609375 -11.4130859375 1373.711059570312 -11.40606689453125 C 1373.7119140625 -11.401611328125 1373.712768554688 -11.39654541015625 1373.713500976562 -11.39208984375 C 1373.715087890625 -11.38299560546875 1373.716552734375 -11.3740234375 1373.718139648438 -11.36492919921875 C 1373.718627929688 -11.36236572265625 1373.718872070312 -11.36053466796875 1373.719360351562 -11.35797119140625 C 1373.721435546875 -11.345703125 1373.723388671875 -11.33355712890625 1373.725463867188 -11.32122802734375 C 1373.7255859375 -11.32061767578125 1373.725708007812 -11.32012939453125 1373.725830078125 -11.3194580078125 C 1373.727783203125 -11.30780029296875 1373.729736328125 -11.2960205078125 1373.731567382812 -11.2843017578125 C 1373.731811523438 -11.28302001953125 1373.732177734375 -11.28057861328125 1373.732421875 -11.279296875 C 1373.734130859375 -11.26922607421875 1373.73583984375 -11.2589111328125 1373.737426757812 -11.248779296875 C 1373.737915039062 -11.2462158203125 1373.738403320312 -11.24334716796875 1373.73876953125 -11.24072265625 C 1373.744873046875 -11.20343017578125 1373.750854492188 -11.166259765625 1373.756713867188 -11.12884521484375 C 1373.756713867188 -11.12884521484375 1373.756713867188 -11.1285400390625 1373.756713867188 -11.1285400390625 C 1373.758666992188 -11.11614990234375 1373.760620117188 -11.103515625 1373.762573242188 -11.09112548828125 C 1373.762573242188 -11.09112548828125 1373.762817382812 -11.089599609375 1373.762817382812 -11.089599609375 C 1373.898071289062 -10.21697998046875 1373.97705078125 -9.3258056640625 1373.99560546875 -8.4197998046875 L 1370.996337890625 -8.35797119140625 C 1370.966918945312 -9.781982421875 1370.761108398438 -11.1934814453125 1370.384155273438 -12.5531005859375 L 1373.275268554688 -13.3543701171875 Z M 1371 -3.41961669921875 L 1374 -3.41961669921875 C 1374 -3.41961669921875 1374 1.58038330078125 1374 1.58038330078125 L 1371 1.58038330078125 L 1371 -3.41961669921875 Z M 1371 6.580352783203125 L 1374 6.580352783203125 C 1374 6.580352783203125 1374 11.58035278320312 1374 11.58035278320312 L 1371 11.58035278320312 L 1371 6.580352783203125 Z M 1371 16.58035278320312 L 1374 16.58035278320312 C 1374 16.58035278320312 1374 21.58035278320312 1374 21.58035278320312 L 1371 21.58035278320312 L 1371 16.58035278320312 Z M 1371 26.58035278320312 L 1374 26.58035278320312 C 1374 26.58035278320312 1374 31.58035278320312 1374 31.58035278320312 L 1371 31.58035278320312 L 1371 26.58035278320312 Z M 1371 36.58035278320312 L 1374 36.58035278320312 C 1374 36.58035278320312 1374 41.58035278320312 1374 41.58035278320312 L 1371 41.58035278320312 L 1371 36.58035278320312 Z M 1371 46.58035278320312 L 1374 46.58035278320312 C 1374 46.58035278320312 1374 51.58035278320312 1374 51.58035278320312 L 1371 51.58035278320312 L 1371 46.58035278320312 Z M 1371 56.58035278320312 L 1374 56.58035278320312 C 1374 56.58035278320312 1374 61.58035278320312 1374 61.58035278320312 L 1371 61.58035278320312 L 1371 56.58035278320312 Z M 1371 66.58035278320312 L 1374 66.58035278320312 C 1374 66.58035278320312 1374 71.58035278320312 1374 71.58035278320312 L 1371 71.58035278320312 L 1371 66.58035278320312 Z M 1371 76.58035278320312 L 1374 76.58035278320312 C 1374 76.58035278320312 1374 81.58035278320312 1374 81.58035278320312 L 1371 81.58035278320312 L 1371 76.58035278320312 Z M 1371 86.58035278320312 L 1374 86.58035278320312 C 1374 86.58035278320312 1374 91.58035278320312 1374 91.58035278320312 L 1371 91.58035278320312 L 1371 86.58035278320312 Z M 1371 96.58035278320312 L 1374 96.58035278320312 C 1374 96.58035278320312 1374 101.5803527832031 1374 101.5803527832031 L 1371 101.5803527832031 L 1371 96.58035278320312 Z M 1371 106.5803527832031 L 1374 106.5803527832031 C 1374 106.5803527832031 1374 111.5803527832031 1374 111.5803527832031 L 1371 111.5803527832031 L 1371 106.5803527832031 Z M 1371 116.5803527832031 L 1374 116.5803527832031 C 1374 116.5803527832031 1374 121.5803527832031 1374 121.5803527832031 L 1371 121.5803527832031 L 1371 116.5803527832031 Z M 1371 126.5803527832031 L 1374 126.5803527832031 C 1374 126.5803527832031 1374 131.5803527832031 1374 131.5803527832031 L 1371 131.5803527832031 L 1371 126.5803527832031 Z M 1371 136.5803527832031 L 1374 136.5803527832031 C 1374 136.5803527832031 1374 141.5803527832031 1374 141.5803527832031 L 1371 141.5803527832031 L 1371 136.5803527832031 Z M 1371 146.5803527832031 L 1374 146.5803527832031 C 1374 146.5803527832031 1374 151.5803527832031 1374 151.5803527832031 L 1371 151.5803527832031 L 1371 146.5803527832031 Z M 1371 156.5803527832031 L 1374 156.5803527832031 C 1374 156.5803527832031 1374 161.5803527832031 1374 161.5803527832031 L 1371 161.5803527832031 L 1371 156.5803527832031 Z M 1371 166.5803527832031 L 1374 166.5803527832031 C 1374 166.5803527832031 1374 171.5803527832031 1374 171.5803527832031 L 1371 171.5803527832031 L 1371 166.5803527832031 Z M 1371 176.5803527832031 L 1374 176.5803527832031 C 1374 176.5803527832031 1374 181.5803527832031 1374 181.5803527832031 L 1371 181.5803527832031 L 1371 176.5803527832031 Z M 1371 186.5803527832031 L 1374 186.5803527832031 C 1374 186.5803527832031 1374 191.5803527832031 1374 191.5803527832031 L 1371 191.5803527832031 L 1371 186.5803527832031 Z M 1371 196.5803527832031 L 1374 196.5803527832031 C 1374 196.5803527832031 1374 201.5803527832031 1374 201.5803527832031 L 1371 201.5803527832031 L 1371 196.5803527832031 Z M 1371 206.5803527832031 L 1374 206.5803527832031 C 1374 206.5803527832031 1374 211.5803527832031 1374 211.5803527832031 L 1371 211.5803527832031 L 1371 206.5803527832031 Z M 1371 216.5803527832031 L 1374 216.5803527832031 C 1374 216.5803527832031 1374 221.5803527832031 1374 221.5803527832031 L 1371 221.5803527832031 L 1371 216.5803527832031 Z M 1371 226.5803527832031 L 1374 226.5803527832031 C 1374 226.5803527832031 1374 231.5803527832031 1374 231.5803527832031 L 1371 231.5803527832031 L 1371 226.5803527832031 Z M 1371 236.5803527832031 L 1374 236.5803527832031 C 1374 236.5803527832031 1374 241.5803527832031 1374 241.5803527832031 L 1371 241.5803527832031 L 1371 236.5803527832031 Z M 1371 246.5803527832031 L 1374 246.5803527832031 C 1374 246.5803527832031 1374 251.5803527832031 1374 251.5803527832031 L 1371 251.5803527832031 L 1371 246.5803527832031 Z M 1371 256.5803527832031 L 1374 256.5803527832031 C 1374 256.5803527832031 1374 261.5803527832031 1374 261.5803527832031 L 1371 261.5803527832031 L 1371 256.5803527832031 Z M 1371 266.5803833007812 L 1374 266.5803833007812 C 1374 266.5803833007812 1374 271.5803833007812 1374 271.5803833007812 L 1371 271.5803833007812 L 1371 266.5803833007812 Z M 1371 276.5803833007812 L 1374 276.5803833007812 C 1374 276.5803833007812 1374 281.5803833007812 1374 281.5803833007812 L 1371 281.5803833007812 L 1371 276.5803833007812 Z M 1371 286.5803833007812 L 1374 286.5803833007812 C 1374 286.5803833007812 1374 291.5803833007812 1374 291.5803833007812 L 1371 291.5803833007812 L 1371 286.5803833007812 Z M 1371 296.5803833007812 L 1374 296.5803833007812 C 1374 296.5803833007812 1374 301.5803833007812 1374 301.5803833007812 L 1371 301.5803833007812 L 1371 296.5803833007812 Z M 1371 306.5803833007812 L 1374 306.5803833007812 C 1374 306.5803833007812 1374 311.5803833007812 1374 311.5803833007812 L 1371 311.5803833007812 L 1371 306.5803833007812 Z M 1371 316.5803833007812 L 1374 316.5803833007812 C 1374 316.5803833007812 1374 321.5803833007812 1374 321.5803833007812 L 1371 321.5803833007812 L 1371 316.5803833007812 Z M 1371 326.5803833007812 L 1374 326.5803833007812 C 1374 326.5803833007812 1374 331.5803833007812 1374 331.5803833007812 L 1371 331.5803833007812 L 1371 326.5803833007812 Z M 1371 336.5803833007812 L 1374 336.5803833007812 C 1374 336.5803833007812 1374 341.5803833007812 1374 341.5803833007812 L 1371 341.5803833007812 L 1371 336.5803833007812 Z M 1371 346.5803833007812 L 1374 346.5803833007812 C 1374 346.5803833007812 1374 351.5803833007812 1374 351.5803833007812 L 1371 351.5803833007812 L 1371 346.5803833007812 Z M 1371 356.5803833007812 L 1374 356.5803833007812 C 1374 356.5803833007812 1374 361.5803833007812 1374 361.5803833007812 L 1371 361.5803833007812 L 1371 356.5803833007812 Z M 1371 366.5803833007812 L 1374 366.5803833007812 C 1374 366.5803833007812 1374 371.5803833007812 1374 371.5803833007812 L 1371 371.5803833007812 L 1371 366.5803833007812 Z M 1371 376.5803833007812 L 1374 376.5803833007812 C 1374 376.5803833007812 1374 381.5803833007812 1374 381.5803833007812 L 1371 381.5803833007812 L 1371 376.5803833007812 Z M 1371 386.5803833007812 L 1374 386.5803833007812 C 1374 386.5803833007812 1374 391.5803527832031 1374 391.5803527832031 L 1371 391.5803527832031 L 1371 386.5803833007812 Z M 1371 396.5803527832031 L 1374 396.5803527832031 C 1374 396.5803527832031 1374 401.5803527832031 1374 401.5803527832031 L 1371 401.5803527832031 L 1371 396.5803527832031 Z M 1371 406.5803527832031 L 1374 406.5803527832031 C 1374 406.5803527832031 1374 411.5803527832031 1374 411.5803527832031 L 1371 411.5803527832031 L 1371 406.5803527832031 Z M 1371 416.5803527832031 L 1374 416.5803527832031 C 1374 416.5803527832031 1374 421.5803527832031 1374 421.5803527832031 L 1371 421.5803527832031 L 1371 416.5803527832031 Z M 1371 426.5803527832031 L 1374 426.5803527832031 C 1374 426.5803527832031 1374 431.5803527832031 1374 431.5803527832031 L 1371 431.5803527832031 L 1371 426.5803527832031 Z M 1371 436.5803527832031 L 1374 436.5803527832031 C 1374 436.5803527832031 1374 441.5803527832031 1374 441.5803527832031 L 1371 441.5803527832031 L 1371 436.5803527832031 Z M 1371 446.5803527832031 L 1374 446.5803527832031 C 1374 446.5803527832031 1374 451.5803527832031 1374 451.5803527832031 L 1371 451.5803527832031 L 1371 446.5803527832031 Z M 1371 456.5803527832031 L 1374 456.5803527832031 C 1374 456.5803527832031 1374 461.5803527832031 1374 461.5803527832031 L 1371 461.5803527832031 L 1371 456.5803527832031 Z M 1371 466.5803527832031 L 1374 466.5803527832031 C 1374 466.5803527832031 1374 471.5803527832031 1374 471.5803527832031 L 1371 471.5803527832031 L 1371 466.5803527832031 Z M 1371 476.5803527832031 L 1374 476.5803527832031 C 1374 476.5803527832031 1374 481.5803527832031 1374 481.5803527832031 L 1371 481.5803527832031 L 1371 476.5803527832031 Z M 1371 486.5803527832031 L 1374 486.5803527832031 C 1374 486.5803527832031 1374 491.5803527832031 1374 491.5803527832031 L 1371 491.5803527832031 L 1371 486.5803527832031 Z M 1371 496.5803527832031 L 1374 496.5803527832031 C 1374 496.5803527832031 1374 501.5803527832031 1374 501.5803527832031 L 1371 501.5803527832031 L 1371 496.5803527832031 Z M 1371 506.5803527832031 L 1374 506.5803527832031 C 1374 506.5803527832031 1374 511.5803527832031 1374 511.5803527832031 L 1371 511.5803527832031 L 1371 506.5803527832031 Z M 1371 516.5803833007812 L 1374 516.5803833007812 C 1374 516.5803833007812 1374 521.5803833007812 1374 521.5803833007812 L 1371 521.5803833007812 L 1371 516.5803833007812 Z M 1370.992919921875 526.4951171875 L 1373.991821289062 526.58056640625 C 1373.97900390625 527.0285034179688 1373.951416015625 527.4727783203125 1373.90966796875 527.912841796875 C 1373.909423828125 527.9152221679688 1373.909301757812 527.917724609375 1373.909057617188 527.9200439453125 C 1373.908325195312 527.9273071289062 1373.907592773438 527.935302734375 1373.906860351562 527.9425659179688 C 1373.906372070312 527.947021484375 1373.906005859375 527.9513549804688 1373.905517578125 527.9558715820312 C 1373.904907226562 527.96240234375 1373.904296875 527.96875 1373.903686523438 527.975341796875 C 1373.903076171875 527.9818725585938 1373.90234375 527.9884033203125 1373.901733398438 527.9949340820312 C 1373.901245117188 527.9995727539062 1373.900756835938 528.0052490234375 1373.900268554688 528.0098266601562 C 1373.897827148438 528.0338134765625 1373.895385742188 528.057861328125 1373.892944335938 528.0818481445312 C 1373.892700195312 528.08447265625 1373.892456054688 528.0865478515625 1373.892211914062 528.0891723632812 C 1373.89111328125 528.0994873046875 1373.890014648438 528.1097412109375 1373.888916015625 528.1199951171875 C 1373.888671875 528.1226196289062 1373.888549804688 528.1241455078125 1373.888305664062 528.1267700195312 C 1373.887084960938 528.137939453125 1373.885864257812 528.149169921875 1373.884643554688 528.1603393554688 C 1373.884643554688 528.1610107421875 1373.884399414062 528.1627197265625 1373.884399414062 528.1633911132812 C 1373.811401367188 528.8408813476562 1373.704711914062 529.5084838867188 1373.56591796875 530.1640014648438 C 1373.565795898438 530.1646118164062 1373.565795898438 530.1646118164062 1373.565673828125 530.1652221679688 C 1373.563232421875 530.1768798828125 1373.560668945312 530.1885375976562 1373.558227539062 530.2001342773438 C 1373.557983398438 530.201416015625 1373.557739257812 530.2025146484375 1373.557373046875 530.2037963867188 C 1373.554809570312 530.2158203125 1373.55224609375 530.2279663085938 1373.549682617188 530.2399291992188 C 1373.549682617188 530.2399291992188 1373.549682617188 530.2401733398438 1373.549682617188 530.2401733398438 C 1373.546875 530.252685546875 1373.544189453125 530.2651977539062 1373.54150390625 530.2776489257812 C 1373.541381835938 530.2783203125 1373.541381835938 530.2783813476562 1373.541137695312 530.2789916992188 C 1373.538818359375 530.2896118164062 1373.536499023438 530.3002319335938 1373.5341796875 530.3108520507812 C 1373.533203125 530.3153076171875 1373.532348632812 530.3194580078125 1373.531372070312 530.3238525390625 C 1373.52978515625 530.330810546875 1373.528198242188 530.337890625 1373.526733398438 530.3449096679688 C 1373.525634765625 530.3499755859375 1373.524536132812 530.354736328125 1373.5234375 530.3597412109375 C 1373.52197265625 530.3662719726562 1373.5205078125 530.3728637695312 1373.51904296875 530.37939453125 C 1373.517944335938 530.3843994140625 1373.516845703125 530.3892822265625 1373.515747070312 530.3943481445312 C 1373.514038085938 530.4019165039062 1373.512329101562 530.409423828125 1373.510620117188 530.4169311523438 C 1373.508178710938 530.4276733398438 1373.506103515625 530.4370727539062 1373.503662109375 530.4478149414062 C 1373.502807617188 530.4512329101562 1373.502075195312 530.4546508789062 1373.501342773438 530.4580688476562 C 1373.49951171875 530.4656372070312 1373.497680664062 530.4736938476562 1373.495971679688 530.4812622070312 C 1373.495239257812 530.4844970703125 1373.494506835938 530.4877319335938 1373.493774414062 530.490966796875 C 1373.491943359375 530.4991455078125 1373.490356445312 530.5056762695312 1373.488525390625 530.513916015625 C 1373.487915039062 530.5166625976562 1373.487182617188 530.5194702148438 1373.486572265625 530.522216796875 C 1373.409912109375 530.8541870117188 1373.324584960938 531.183837890625 1373.231567382812 531.50927734375 L 1370.347045898438 530.6845703125 C 1370.735107421875 529.3278198242188 1370.952392578125 527.9183349609375 1370.992919921875 526.4951171875 Z M 1368.681030273438 534.57763671875 L 1371.269653320312 536.093994140625 C 1371.13427734375 536.3251342773438 1370.994506835938 536.5530395507812 1370.850219726562 536.7781372070312 C 1370.849609375 536.7791748046875 1370.848876953125 536.7802734375 1370.84814453125 536.7813110351562 C 1370.8271484375 536.8140869140625 1370.806518554688 536.8461303710938 1370.785278320312 536.8787841796875 C 1370.784545898438 536.8798828125 1370.783813476562 536.881103515625 1370.783081054688 536.8822021484375 C 1370.777954101562 536.8900756835938 1370.772705078125 536.8981323242188 1370.767578125 536.906005859375 C 1370.767333984375 536.90625 1370.767211914062 536.906494140625 1370.76708984375 536.90673828125 C 1370.751953125 536.9298706054688 1370.736694335938 536.9532470703125 1370.721557617188 536.976318359375 C 1370.719848632812 536.9788208007812 1370.718139648438 536.9814453125 1370.716430664062 536.9840087890625 C 1370.7119140625 536.9908447265625 1370.707885742188 536.9969482421875 1370.703491210938 537.0037231445312 C 1370.701904296875 537.006103515625 1370.700317382812 537.0084228515625 1370.69873046875 537.0108032226562 C 1370.693969726562 537.0181274414062 1370.689819335938 537.0243530273438 1370.684936523438 537.0316772460938 C 1370.684326171875 537.0326538085938 1370.68359375 537.0337524414062 1370.682983398438 537.0347290039062 C 1370.673950195312 537.04833984375 1370.664672851562 537.0621948242188 1370.655639648438 537.0757446289062 C 1370.653930664062 537.078369140625 1370.652221679688 537.0808715820312 1370.650512695312 537.08349609375 C 1370.646362304688 537.0897827148438 1370.641723632812 537.0966186523438 1370.637573242188 537.1029052734375 C 1370.635864257812 537.1055297851562 1370.634033203125 537.1082153320312 1370.63232421875 537.11083984375 C 1370.627685546875 537.1176147460938 1370.623657226562 537.123779296875 1370.619018554688 537.1305541992188 C 1370.617553710938 537.1328125 1370.615966796875 537.1350708007812 1370.614501953125 537.1373901367188 C 1370.606079101562 537.14990234375 1370.59814453125 537.16162109375 1370.589721679688 537.1741333007812 C 1370.587646484375 537.1771850585938 1370.585693359375 537.18017578125 1370.583618164062 537.1831665039062 C 1370.580078125 537.1884155273438 1370.57568359375 537.19482421875 1370.572265625 537.2000122070312 C 1370.56982421875 537.2035522460938 1370.567504882812 537.20703125 1370.565063476562 537.2105712890625 C 1370.560791015625 537.216796875 1370.55712890625 537.2223510742188 1370.552856445312 537.228515625 C 1370.550537109375 537.23193359375 1370.548217773438 537.2353515625 1370.5458984375 537.2387084960938 C 1370.5322265625 537.2589111328125 1370.5185546875 537.2788696289062 1370.504760742188 537.299072265625 C 1370.50244140625 537.3024291992188 1370.500122070312 537.3058471679688 1370.497802734375 537.3092041015625 C 1370.493896484375 537.3148803710938 1370.489868164062 537.3206787109375 1370.485961914062 537.3263549804688 C 1370.4833984375 537.3300170898438 1370.481079101562 537.33349609375 1370.478515625 537.3372192382812 C 1370.474609375 537.3428955078125 1370.469970703125 537.3494873046875 1370.466064453125 537.3551635742188 C 1370.464111328125 537.3579711914062 1370.462158203125 537.3609008789062 1370.460205078125 537.36376953125 C 1370.451904296875 537.3756103515625 1370.443237304688 537.38818359375 1370.43505859375 537.3999633789062 C 1370.43359375 537.4019775390625 1370.43212890625 537.4042358398438 1370.4306640625 537.4061889648438 C 1370.426025390625 537.4129028320312 1370.422119140625 537.4185791015625 1370.41748046875 537.42529296875 C 1370.415161132812 537.428466796875 1370.4130859375 537.4314575195312 1370.410888671875 537.4346313476562 C 1370.406616210938 537.4407958984375 1370.402465820312 537.4467163085938 1370.398193359375 537.452880859375 C 1370.396118164062 537.455810546875 1370.39404296875 537.4586791992188 1370.39208984375 537.4616088867188 C 1370.383056640625 537.4744262695312 1370.374267578125 537.4868774414062 1370.365234375 537.4996948242188 C 1370.3642578125 537.501220703125 1370.363159179688 537.5028076171875 1370.362060546875 537.5042724609375 C 1370.358032226562 537.5099487304688 1370.35400390625 537.5157470703125 1370.349975585938 537.5213623046875 C 1370.347412109375 537.525146484375 1370.3447265625 537.5288696289062 1370.342041015625 537.5325927734375 C 1370.338134765625 537.5382080078125 1370.334106445312 537.5439453125 1370.330078125 537.549560546875 C 1370.327270507812 537.5535278320312 1370.324340820312 537.5576782226562 1370.321533203125 537.5616455078125 C 1370.318237304688 537.5662841796875 1370.314331054688 537.5718383789062 1370.31103515625 537.576416015625 C 1370.30712890625 537.5819091796875 1370.30322265625 537.5874633789062 1370.29931640625 537.5928955078125 C 1370.293090820312 537.6015625 1370.287353515625 537.6096801757812 1370.281127929688 537.6183471679688 C 1370.278442382812 537.6220703125 1370.275756835938 537.6257934570312 1370.273071289062 537.6295166015625 C 1370.269165039062 537.6351318359375 1370.264404296875 537.6416625976562 1370.260375976562 537.647216796875 C 1370.258422851562 537.6499633789062 1370.25634765625 537.65283203125 1370.25439453125 537.6555786132812 C 1370.249755859375 537.6621704101562 1370.245361328125 537.668212890625 1370.240600585938 537.6748046875 C 1370.239379882812 537.6764526367188 1370.238159179688 537.6781005859375 1370.237060546875 537.6798095703125 C 1370.2275390625 537.6929931640625 1370.217895507812 537.706298828125 1370.208374023438 537.719482421875 C 1370.20703125 537.7213134765625 1370.20556640625 537.7233276367188 1370.204223632812 537.7251586914062 C 1370.199829101562 537.7312622070312 1370.194946289062 537.7379760742188 1370.190551757812 537.7440795898438 C 1370.1884765625 537.7469482421875 1370.186279296875 537.7499389648438 1370.184204101562 537.7528076171875 C 1370.180053710938 537.7583618164062 1370.17578125 537.7643432617188 1370.171630859375 537.7699584960938 C 1370.169067382812 537.7735595703125 1370.166381835938 537.7772827148438 1370.163696289062 537.7808837890625 C 1370.15478515625 537.7930297851562 1370.145751953125 537.8053588867188 1370.136962890625 537.8174438476562 C 1370.135864257812 537.81884765625 1370.134765625 537.8203735351562 1370.1337890625 537.8217163085938 C 1370.12939453125 537.8278198242188 1370.125244140625 537.8333740234375 1370.120849609375 537.8394165039062 C 1370.118530273438 537.842529296875 1370.116088867188 537.8457641601562 1370.113891601562 537.848876953125 C 1370.109375 537.8549194335938 1370.105590820312 537.860107421875 1370.10107421875 537.8661499023438 C 1370.098510742188 537.8697509765625 1370.095703125 537.8734130859375 1370.093017578125 537.8770141601562 C 1370.078125 537.8971557617188 1370.063598632812 537.9168701171875 1370.048583984375 537.9369506835938 C 1370.046875 537.9393310546875 1370.044921875 537.9418334960938 1370.043212890625 537.9442138671875 C 1370.0390625 537.94970703125 1370.034790039062 537.9554443359375 1370.030639648438 537.9609375 C 1370.027709960938 537.9649658203125 1370.024658203125 537.9690551757812 1370.021606445312 537.9730224609375 C 1370.017578125 537.978515625 1370.013793945312 537.9835205078125 1370.009643554688 537.9890747070312 C 1370.007446289062 537.9920043945312 1370.005249023438 537.9949340820312 1370.003051757812 537.9978637695312 C 1369.994018554688 538.0098876953125 1369.985473632812 538.0211791992188 1369.976440429688 538.0331420898438 C 1369.974975585938 538.0350952148438 1369.973388671875 538.0371704101562 1369.971923828125 538.0391235351562 C 1369.9677734375 538.0446166992188 1369.962646484375 538.0514526367188 1369.95849609375 538.0569458007812 C 1369.955932617188 538.060302734375 1369.953369140625 538.0637817382812 1369.950805664062 538.0670776367188 C 1369.9462890625 538.0731201171875 1369.9423828125 538.0781860351562 1369.937866210938 538.0841674804688 C 1369.935913085938 538.086669921875 1369.933959960938 538.0892944335938 1369.932006835938 538.091796875 C 1369.91650390625 538.1122436523438 1369.90087890625 538.1327514648438 1369.88525390625 538.1531372070312 C 1369.883422851562 538.1555786132812 1369.881469726562 538.1580200195312 1369.879638671875 538.1604614257812 C 1369.874755859375 538.1668701171875 1369.869384765625 538.1737670898438 1369.864501953125 538.1802368164062 C 1369.86328125 538.1817016601562 1369.862182617188 538.1832275390625 1369.861083984375 538.1846923828125 C 1369.844604492188 538.2059936523438 1369.828491210938 538.2269287109375 1369.81201171875 538.2481689453125 C 1369.810180664062 538.2504272460938 1369.808471679688 538.252685546875 1369.806762695312 538.2548828125 C 1369.8017578125 538.2613525390625 1369.797241210938 538.2672119140625 1369.792236328125 538.2736206054688 C 1369.790405273438 538.27587890625 1369.788696289062 538.2781982421875 1369.786865234375 538.2804565429688 C 1369.781494140625 538.287353515625 1369.777099609375 538.2930297851562 1369.771728515625 538.2999267578125 C 1369.770751953125 538.3011474609375 1369.769897460938 538.3021850585938 1369.768920898438 538.3034057617188 C 1369.758911132812 538.3162231445312 1369.748779296875 538.3292236328125 1369.73876953125 538.342041015625 C 1369.736938476562 538.34423828125 1369.735107421875 538.3466186523438 1369.7333984375 538.3488159179688 C 1369.728759765625 538.354736328125 1369.723266601562 538.3616333007812 1369.718627929688 538.3675537109375 C 1369.716918945312 538.3697509765625 1369.715087890625 538.3720703125 1369.71337890625 538.374267578125 C 1369.708251953125 538.3806762695312 1369.703247070312 538.3870849609375 1369.6982421875 538.3934326171875 C 1369.69677734375 538.3952026367188 1369.695556640625 538.3968505859375 1369.694091796875 538.3985595703125 C 1369.677490234375 538.419677734375 1369.66064453125 538.4407958984375 1369.643920898438 538.4618530273438 C 1369.642456054688 538.4635620117188 1369.640991210938 538.4655151367188 1369.639526367188 538.4672241210938 C 1369.634155273438 538.47412109375 1369.62939453125 538.4799194335938 1369.6240234375 538.48681640625 C 1369.622314453125 538.4888305664062 1369.620727539062 538.4908447265625 1369.619018554688 538.492919921875 C 1369.602172851562 538.513916015625 1369.584594726562 538.535888671875 1369.567626953125 538.5568237304688 C 1369.566772460938 538.557861328125 1369.566162109375 538.5587158203125 1369.565307617188 538.5597534179688 C 1369.559814453125 538.5665893554688 1369.554443359375 538.5731811523438 1369.548950195312 538.5799560546875 C 1369.547485351562 538.581787109375 1369.546020507812 538.5835571289062 1369.544555664062 538.5853271484375 C 1369.52099609375 538.614501953125 1369.497314453125 538.6435546875 1369.473510742188 538.6725463867188 C 1369.472045898438 538.6743774414062 1369.470458984375 538.6762084960938 1369.468994140625 538.677978515625 C 1369.4638671875 538.6842651367188 1369.458251953125 538.6911010742188 1369.453125 538.6973876953125 C 1369.451416015625 538.6993408203125 1369.449951171875 538.7012329101562 1369.4482421875 538.7031860351562 C 1369.437133789062 538.7167358398438 1369.426025390625 538.7302856445312 1369.414794921875 538.7437744140625 C 1369.414428710938 538.7442626953125 1369.414184570312 538.7445678710938 1369.413818359375 538.7449951171875 C 1369.409057617188 538.7507934570312 1369.404174804688 538.7566528320312 1369.399291992188 538.762451171875 C 1369.39697265625 538.7652587890625 1369.394775390625 538.7680053710938 1369.392456054688 538.7708129882812 C 1369.387573242188 538.7765502929688 1369.38232421875 538.782958984375 1369.37744140625 538.7886962890625 C 1369.375610351562 538.7910766601562 1369.37353515625 538.79345703125 1369.37158203125 538.7957763671875 C 1369.354370117188 538.8164672851562 1369.337036132812 538.8372192382812 1369.319702148438 538.8578491210938 C 1369.31884765625 538.8588256835938 1369.31787109375 538.8599853515625 1369.317016601562 538.8609619140625 C 1369.311401367188 538.86767578125 1369.305419921875 538.8748168945312 1369.2998046875 538.8815307617188 C 1369.298706054688 538.8827514648438 1369.297729492188 538.8838500976562 1369.296752929688 538.8851318359375 C 1369.27783203125 538.9075927734375 1369.259643554688 538.928955078125 1369.24072265625 538.9513549804688 C 1369.240478515625 538.9514770507812 1369.240234375 538.9518432617188 1369.240112304688 538.9519653320312 C 1369.234497070312 538.9586181640625 1369.229370117188 538.964599609375 1369.2236328125 538.9712524414062 C 1369.221923828125 538.973388671875 1369.220092773438 538.9755249023438 1369.21826171875 538.9776000976562 C 1369.213012695312 538.9837646484375 1369.207763671875 538.9898681640625 1369.202514648438 538.99609375 C 1369.201049804688 538.9977416992188 1369.199462890625 538.9996337890625 1369.197998046875 539.0013427734375 C 1369.180908203125 539.0213012695312 1369.162841796875 539.0422973632812 1369.145629882812 539.0621948242188 C 1369.144165039062 539.06396484375 1369.142456054688 539.0658569335938 1369.140991210938 539.067626953125 C 1369.135620117188 539.07373046875 1369.130493164062 539.0797729492188 1369.125122070312 539.0858764648438 C 1369.123168945312 539.0881958007812 1369.120971679688 539.0906982421875 1369.119018554688 539.093017578125 C 1369.1005859375 539.1142578125 1369.082397460938 539.1351928710938 1369.063842773438 539.1563720703125 C 1369.063842773438 539.1563720703125 1369.063842773438 539.1563720703125 1369.063842773438 539.1563720703125 C 1369.05810546875 539.1629638671875 1369.051879882812 539.1700439453125 1369.046142578125 539.1766357421875 C 1369.044677734375 539.1783447265625 1369.043090820312 539.1799926757812 1369.041625976562 539.1817016601562 C 1369.017333984375 539.2094116210938 1368.992553710938 539.237548828125 1368.968017578125 539.26513671875 C 1368.965942382812 539.2675170898438 1368.9638671875 539.2699584960938 1368.961791992188 539.2722778320312 C 1368.956298828125 539.2783813476562 1368.951293945312 539.2841186523438 1368.94580078125 539.2901611328125 C 1368.944458007812 539.291748046875 1368.942993164062 539.2933349609375 1368.941650390625 539.294921875 C 1368.924194335938 539.3145141601562 1368.906494140625 539.3343505859375 1368.888916015625 539.3538818359375 C 1368.886840820312 539.3561401367188 1368.884765625 539.3584594726562 1368.8828125 539.3607177734375 C 1368.877319335938 539.3667602539062 1368.871948242188 539.3726806640625 1368.866577148438 539.3787231445312 C 1368.864624023438 539.380859375 1368.86279296875 539.3829956054688 1368.86083984375 539.3851318359375 C 1368.855346679688 539.39111328125 1368.850341796875 539.396728515625 1368.844970703125 539.4027099609375 C 1368.843139648438 539.40478515625 1368.841186523438 539.4067993164062 1368.83935546875 539.4088134765625 C 1368.83056640625 539.4185791015625 1368.822143554688 539.4278564453125 1368.813354492188 539.4375610351562 C 1368.809204101562 539.442138671875 1368.805053710938 539.4467163085938 1368.800903320312 539.4512939453125 C 1368.797119140625 539.4554443359375 1368.79296875 539.4600219726562 1368.789184570312 539.4641723632812 C 1368.785888671875 539.4678344726562 1368.782592773438 539.471435546875 1368.779174804688 539.4751586914062 C 1368.774536132812 539.480224609375 1368.769653320312 539.485595703125 1368.765014648438 539.4906616210938 C 1368.762817382812 539.4930419921875 1368.760620117188 539.4954223632812 1368.758544921875 539.497802734375 C 1368.749145507812 539.5079345703125 1368.73974609375 539.5182495117188 1368.73046875 539.5283813476562 C 1368.727661132812 539.5314331054688 1368.724853515625 539.5345458984375 1368.721923828125 539.53759765625 C 1368.71728515625 539.5426635742188 1368.712768554688 539.547607421875 1368.7080078125 539.5526733398438 C 1368.705078125 539.555908203125 1368.702026367188 539.5592041015625 1368.699096679688 539.5623779296875 C 1368.694458007812 539.5674438476562 1368.689697265625 539.5726318359375 1368.684936523438 539.5776977539062 C 1368.682250976562 539.5806884765625 1368.679565429688 539.58349609375 1368.676879882812 539.5864868164062 C 1368.668334960938 539.595703125 1368.659545898438 539.6051025390625 1368.651123046875 539.6142578125 C 1368.647705078125 539.617919921875 1368.644287109375 539.6215209960938 1368.640991210938 539.6251220703125 C 1368.637084960938 539.6292724609375 1368.63232421875 539.6343383789062 1368.628540039062 539.6384887695312 C 1368.625 539.6422119140625 1368.62158203125 539.6459350585938 1368.618041992188 539.649658203125 C 1368.61376953125 539.6542358398438 1368.609252929688 539.6591186523438 1368.60498046875 539.6636352539062 C 1368.601196289062 539.6676635742188 1368.597412109375 539.6717529296875 1368.593627929688 539.67578125 C 1368.58984375 539.6798706054688 1368.5849609375 539.68505859375 1368.5810546875 539.6891479492188 C 1368.575561523438 539.695068359375 1368.56982421875 539.7011108398438 1368.564208984375 539.70703125 C 1368.55908203125 539.7125244140625 1368.554077148438 539.7178955078125 1368.548828125 539.723388671875 C 1368.544677734375 539.7278442382812 1368.540405273438 539.7323608398438 1368.5361328125 539.73681640625 C 1368.532348632812 539.7409057617188 1368.528564453125 539.744873046875 1368.524658203125 539.7489624023438 C 1368.520263671875 539.7536010742188 1368.515991210938 539.7581787109375 1368.511474609375 539.7628173828125 C 1368.508056640625 539.7664794921875 1368.504028320312 539.770751953125 1368.500610351562 539.7743530273438 C 1368.494018554688 539.7811889648438 1368.487670898438 539.7879028320312 1368.481201171875 539.7947387695312 C 1368.4794921875 539.7965698242188 1368.477172851562 539.7990112304688 1368.475463867188 539.80078125 C 1368.468383789062 539.8081665039062 1368.46142578125 539.8154296875 1368.454467773438 539.82275390625 C 1368.451049804688 539.8263549804688 1368.446533203125 539.8310546875 1368.442993164062 539.8346557617188 C 1368.438720703125 539.8391723632812 1368.434448242188 539.8436279296875 1368.43017578125 539.8480834960938 C 1368.42626953125 539.8521728515625 1368.422607421875 539.85595703125 1368.418701171875 539.8599853515625 C 1368.41357421875 539.8654174804688 1368.408447265625 539.8707275390625 1368.403198242188 539.8761596679688 C 1368.400634765625 539.8788452148438 1368.397827148438 539.8816528320312 1368.395263671875 539.8843383789062 C 1368.387329101562 539.8925170898438 1368.379638671875 539.9005126953125 1368.371704101562 539.90869140625 C 1368.36865234375 539.911865234375 1368.366333007812 539.914306640625 1368.36328125 539.91748046875 C 1368.358032226562 539.9228515625 1368.352661132812 539.9284057617188 1368.347412109375 539.933837890625 C 1368.343872070312 539.9373779296875 1368.340698242188 539.940673828125 1368.337280273438 539.9442749023438 C 1368.331176757812 539.950439453125 1368.325317382812 539.95654296875 1368.3193359375 539.9627075195312 C 1368.317138671875 539.9649658203125 1368.316162109375 539.9659423828125 1368.31396484375 539.9682006835938 C 1368.305541992188 539.9767456054688 1368.297241210938 539.9852905273438 1368.288818359375 539.9938354492188 C 1368.28759765625 539.9951782226562 1368.285400390625 539.997314453125 1368.284057617188 539.9986572265625 C 1368.27734375 540.005615234375 1368.270385742188 540.0126342773438 1368.263549804688 540.0195922851562 C 1368.261352539062 540.0217895507812 1368.258544921875 540.0247192382812 1368.25634765625 540.0269165039062 C 1368.250122070312 540.0332641601562 1368.243774414062 540.0396728515625 1368.237548828125 540.0460205078125 C 1368.236206054688 540.04736328125 1368.234619140625 540.0490112304688 1368.233276367188 540.0503540039062 L 1366.098388671875 537.9427490234375 C 1367.09619140625 536.9320068359375 1367.965087890625 535.7998046875 1368.681030273438 534.57763671875 Z M 1362.766723632812 540.5685424804688 L 1364.31640625 543.137451171875 C 1362.90185546875 543.99072265625 1361.3720703125 544.6742553710938 1359.757446289062 545.1588745117188 L 1358.895263671875 542.2854614257812 C 1360.24951171875 541.8790893554688 1361.552001953125 541.3014526367188 1362.766723632812 540.5685424804688 Z M 1354.715454101562 542.9852905273438 L 1354.839233398438 545.9827270507812 C 1354.812744140625 545.9838256835938 1354.786987304688 545.9848022460938 1354.760498046875 545.9857788085938 C 1354.73828125 545.9866333007812 1354.71630859375 545.9874267578125 1354.694091796875 545.9881591796875 C 1354.6748046875 545.9888305664062 1354.655639648438 545.9894409179688 1354.636352539062 545.9900512695312 C 1354.6171875 545.9906616210938 1354.597412109375 545.9912719726562 1354.578125 545.9918212890625 C 1354.561157226562 545.9923095703125 1354.545166015625 545.9927368164062 1354.5283203125 545.9931640625 C 1354.510620117188 545.99365234375 1354.492797851562 545.9940185546875 1354.47509765625 545.9944458007812 C 1354.440185546875 545.9953002929688 1354.406127929688 545.9959716796875 1354.37109375 545.9966430664062 C 1354.352783203125 545.9969482421875 1354.335205078125 545.9972534179688 1354.31689453125 545.99755859375 C 1354.298828125 545.997802734375 1354.281372070312 545.998046875 1354.263305664062 545.998291015625 C 1354.263305664062 545.998291015625 1354.263061523438 545.998291015625 1354.263061523438 545.998291015625 C 1354.244140625 545.99853515625 1354.225463867188 545.9987182617188 1354.20654296875 545.9989624023438 C 1354.189331054688 545.9991455078125 1354.1728515625 545.999267578125 1354.155639648438 545.9993896484375 C 1354.137939453125 545.99951171875 1354.1201171875 545.9996337890625 1354.102416992188 545.999755859375 C 1354.083984375 545.9998168945312 1354.064575195312 545.9998779296875 1354.046142578125 545.9999389648438 C 1354.03076171875 546 1354.015380859375 546 1354 546 C 1354 546 1349.839111328125 546 1349.839111328125 546 L 1349.839111328125 543 L 1354 543 C 1354.23779296875 543 1354.478515625 542.9951171875 1354.715454101562 542.9852905273438 Z M 1339.839111328125 543 L 1344.839111328125 543 L 1344.839111328125 546 C 1344.839111328125 546 1339.839111328125 546 1339.839111328125 546 L 1339.839111328125 543 Z M 1329.839111328125 543 L 1334.839111328125 543 L 1334.839111328125 546 C 1334.839111328125 546 1329.839111328125 546 1329.839111328125 546 L 1329.839111328125 543 Z M 1319.839111328125 543 L 1324.839111328125 543 L 1324.839111328125 546 C 1324.839111328125 546 1319.839111328125 546 1319.839111328125 546 L 1319.839111328125 543 Z M 1309.839111328125 543 L 1314.839111328125 543 L 1314.839111328125 546 C 1314.839111328125 546 1309.839111328125 546 1309.839111328125 546 L 1309.839111328125 543 Z M 1299.839111328125 543 L 1304.839111328125 543 L 1304.839111328125 546 C 1304.839111328125 546 1299.839111328125 546 1299.839111328125 546 L 1299.839111328125 543 Z M 1289.839111328125 543 L 1294.839111328125 543 L 1294.839111328125 546 C 1294.839111328125 546 1289.839111328125 546 1289.839111328125 546 L 1289.839111328125 543 Z M 1279.839111328125 543 L 1284.839111328125 543 L 1284.839111328125 546 C 1284.839111328125 546 1279.839111328125 546 1279.839111328125 546 L 1279.839111328125 543 Z M 1269.839111328125 543 L 1274.839111328125 543 L 1274.839111328125 546 C 1274.839111328125 546 1269.839111328125 546 1269.839111328125 546 L 1269.839111328125 543 Z M 1259.839111328125 543 L 1264.839111328125 543 L 1264.839111328125 546 C 1264.839111328125 546 1259.839111328125 546 1259.839111328125 546 L 1259.839111328125 543 Z M 1249.839111328125 543 L 1254.839111328125 543 L 1254.839111328125 546 C 1254.839111328125 546 1249.839111328125 546 1249.839111328125 546 L 1249.839111328125 543 Z M 1239.839111328125 543 L 1244.839111328125 543 L 1244.839111328125 546 C 1244.839111328125 546 1239.839111328125 546 1239.839111328125 546 L 1239.839111328125 543 Z M 1229.839111328125 543 L 1234.839111328125 543 L 1234.839111328125 546 C 1234.839111328125 546 1229.839111328125 546 1229.839111328125 546 L 1229.839111328125 543 Z M 1219.839111328125 543 L 1224.839111328125 543 L 1224.839111328125 546 C 1224.839111328125 546 1219.839111328125 546 1219.839111328125 546 L 1219.839111328125 543 Z M 1209.839111328125 543 L 1214.839111328125 543 L 1214.839111328125 546 C 1214.839111328125 546 1209.839111328125 546 1209.839111328125 546 L 1209.839111328125 543 Z M 1199.839111328125 543 L 1204.839111328125 543 L 1204.839111328125 546 C 1204.839111328125 546 1199.839111328125 546 1199.839111328125 546 L 1199.839111328125 543 Z M 1189.839111328125 543 L 1194.839111328125 543 L 1194.839111328125 546 C 1194.839111328125 546 1189.839111328125 546 1189.839111328125 546 L 1189.839111328125 543 Z M 1179.839111328125 543 L 1184.839111328125 543 L 1184.839111328125 546 C 1184.839111328125 546 1179.839111328125 546 1179.839111328125 546 L 1179.839111328125 543 Z M 1169.839111328125 543 L 1174.839111328125 543 L 1174.839111328125 546 C 1174.839111328125 546 1169.839111328125 546 1169.839111328125 546 L 1169.839111328125 543 Z M 1159.839111328125 543 L 1164.839111328125 543 L 1164.839111328125 546 C 1164.839111328125 546 1159.839111328125 546 1159.839111328125 546 L 1159.839111328125 543 Z M 1149.839111328125 543 L 1154.839111328125 543 L 1154.839111328125 546 C 1154.839111328125 546 1149.839111328125 546 1149.839111328125 546 L 1149.839111328125 543 Z M 1139.839111328125 543 L 1144.839111328125 543 L 1144.839111328125 546 C 1144.839111328125 546 1139.839111328125 546 1139.839111328125 546 L 1139.839111328125 543 Z M 1129.839111328125 543 L 1134.839111328125 543 L 1134.839111328125 546 C 1134.839111328125 546 1129.839111328125 546 1129.839111328125 546 L 1129.839111328125 543 Z M 1119.839111328125 543 L 1124.839111328125 543 L 1124.839111328125 546 C 1124.839111328125 546 1119.839111328125 546 1119.839111328125 546 L 1119.839111328125 543 Z M 1109.839111328125 543 L 1114.839111328125 543 L 1114.839111328125 546 C 1114.839111328125 546 1109.839111328125 546 1109.839111328125 546 L 1109.839111328125 543 Z M 1099.839111328125 543 L 1104.839111328125 543 L 1104.839111328125 546 C 1104.839111328125 546 1099.839111328125 546 1099.839111328125 546 L 1099.839111328125 543 Z M 1089.839111328125 543 L 1094.839111328125 543 L 1094.839111328125 546 C 1094.839111328125 546 1089.839111328125 546 1089.839111328125 546 L 1089.839111328125 543 Z M 1079.839111328125 543 L 1084.839111328125 543 L 1084.839111328125 546 C 1084.839111328125 546 1079.839111328125 546 1079.839111328125 546 L 1079.839111328125 543 Z M 1069.839111328125 543 L 1074.839111328125 543 L 1074.839111328125 546 C 1074.839111328125 546 1069.839111328125 546 1069.839111328125 546 L 1069.839111328125 543 Z M 1059.839111328125 543 L 1064.839111328125 543 L 1064.839111328125 546 C 1064.839111328125 546 1059.839111328125 546 1059.839111328125 546 L 1059.839111328125 543 Z M 1049.839111328125 543 L 1054.839111328125 543 L 1054.839111328125 546 C 1054.839111328125 546 1049.839111328125 546 1049.839111328125 546 L 1049.839111328125 543 Z M 1039.839111328125 543 L 1044.839111328125 543 L 1044.839111328125 546 C 1044.839111328125 546 1039.839111328125 546 1039.839111328125 546 L 1039.839111328125 543 Z M 1029.839111328125 543 L 1034.839111328125 543 L 1034.839111328125 546 C 1034.839111328125 546 1029.839111328125 546 1029.839111328125 546 L 1029.839111328125 543 Z M 1019.839111328125 543 L 1024.839111328125 543 L 1024.839111328125 546 C 1024.839111328125 546 1019.839111328125 546 1019.839111328125 546 L 1019.839111328125 543 Z M 1009.839111328125 543 L 1014.839111328125 543 L 1014.839111328125 546 C 1014.839111328125 546 1009.839111328125 546 1009.839111328125 546 L 1009.839111328125 543 Z M 999.839111328125 543 L 1004.839111328125 543 L 1004.839111328125 546 C 1004.839111328125 546 999.839111328125 546 999.839111328125 546 L 999.839111328125 543 Z M 989.839111328125 543 L 994.839111328125 543 L 994.839111328125 546 C 994.839111328125 546 989.839111328125 546 989.839111328125 546 L 989.839111328125 543 Z M 979.839111328125 543 L 984.839111328125 543 L 984.839111328125 546 C 984.839111328125 546 979.839111328125 546 979.839111328125 546 L 979.839111328125 543 Z M 969.839111328125 543 L 974.839111328125 543 L 974.839111328125 546 C 974.839111328125 546 969.839111328125 546 969.839111328125 546 L 969.839111328125 543 Z M 959.839111328125 543 L 964.839111328125 543 L 964.839111328125 546 C 964.839111328125 546 959.839111328125 546 959.839111328125 546 L 959.839111328125 543 Z M 949.839111328125 543 L 954.839111328125 543 L 954.839111328125 546 C 954.839111328125 546 949.839111328125 546 949.839111328125 546 L 949.839111328125 543 Z M 939.839111328125 543 L 944.839111328125 543 L 944.839111328125 546 C 944.839111328125 546 939.839111328125 546 939.839111328125 546 L 939.839111328125 543 Z M 929.839111328125 543 L 934.839111328125 543 L 934.839111328125 546 C 934.839111328125 546 929.839111328125 546 929.839111328125 546 L 929.839111328125 543 Z M 919.839111328125 543 L 924.839111328125 543 L 924.839111328125 546 C 924.839111328125 546 919.839111328125 546 919.839111328125 546 L 919.839111328125 543 Z M 909.839111328125 543 L 914.839111328125 543 L 914.839111328125 546 C 914.839111328125 546 909.839111328125 546 909.839111328125 546 L 909.839111328125 543 Z M 899.839111328125 543 L 904.839111328125 543 L 904.839111328125 546 C 904.839111328125 546 899.839111328125 546 899.839111328125 546 L 899.839111328125 543 Z M 889.839111328125 543 L 894.839111328125 543 L 894.839111328125 546 C 894.839111328125 546 889.839111328125 546 889.839111328125 546 L 889.839111328125 543 Z M 879.839111328125 543 L 884.839111328125 543 L 884.839111328125 546 C 884.839111328125 546 879.839111328125 546 879.839111328125 546 L 879.839111328125 543 Z M 869.839111328125 543 L 874.839111328125 543 L 874.839111328125 546 C 874.839111328125 546 869.839111328125 546 869.839111328125 546 L 869.839111328125 543 Z M 859.839111328125 543 L 864.839111328125 543 L 864.839111328125 546 C 864.839111328125 546 859.839111328125 546 859.839111328125 546 L 859.839111328125 543 Z M 849.839111328125 543 L 854.839111328125 543 L 854.839111328125 546 C 854.839111328125 546 849.839111328125 546 849.839111328125 546 L 849.839111328125 543 Z M 839.839111328125 543 L 844.839111328125 543 L 844.839111328125 546 C 844.839111328125 546 839.839111328125 546 839.839111328125 546 L 839.839111328125 543 Z M 829.839111328125 543 L 834.839111328125 543 L 834.839111328125 546 C 834.839111328125 546 829.839111328125 546 829.839111328125 546 L 829.839111328125 543 Z M 819.839111328125 543 L 824.839111328125 543 L 824.839111328125 546 C 824.839111328125 546 819.839111328125 546 819.839111328125 546 L 819.839111328125 543 Z M 809.839111328125 543 L 814.839111328125 543 L 814.839111328125 546 C 814.839111328125 546 809.839111328125 546 809.839111328125 546 L 809.839111328125 543 Z M 799.839111328125 543 L 804.839111328125 543 L 804.839111328125 546 C 804.839111328125 546 799.839111328125 546 799.839111328125 546 L 799.839111328125 543 Z M 789.839111328125 543 L 794.839111328125 543 L 794.839111328125 546 C 794.839111328125 546 789.839111328125 546 789.839111328125 546 L 789.839111328125 543 Z M 779.839111328125 543 L 784.839111328125 543 L 784.839111328125 546 C 784.839111328125 546 779.839111328125 546 779.839111328125 546 L 779.839111328125 543 Z M 769.839111328125 543 L 774.839111328125 543 L 774.839111328125 546 C 774.839111328125 546 769.839111328125 546 769.839111328125 546 L 769.839111328125 543 Z M 759.839111328125 543 L 764.839111328125 543 L 764.839111328125 546 C 764.839111328125 546 759.839111328125 546 759.839111328125 546 L 759.839111328125 543 Z M 749.839111328125 543 L 754.839111328125 543 L 754.839111328125 546 C 754.839111328125 546 749.839111328125 546 749.839111328125 546 L 749.839111328125 543 Z M 739.839111328125 543 L 744.839111328125 543 L 744.839111328125 546 C 744.839111328125 546 739.839111328125 546 739.839111328125 546 L 739.839111328125 543 Z M 729.839111328125 543 L 734.839111328125 543 L 734.839111328125 546 C 734.839111328125 546 729.839111328125 546 729.839111328125 546 L 729.839111328125 543 Z M 719.839111328125 543 L 724.839111328125 543 L 724.839111328125 546 C 724.839111328125 546 719.839111328125 546 719.839111328125 546 L 719.839111328125 543 Z M 709.839111328125 543 L 714.839111328125 543 L 714.839111328125 546 C 714.839111328125 546 709.839111328125 546 709.839111328125 546 L 709.839111328125 543 Z M 699.839111328125 543 L 704.839111328125 543 L 704.839111328125 546 C 704.839111328125 546 699.839111328125 546 699.839111328125 546 L 699.839111328125 543 Z M 689.839111328125 543 L 694.839111328125 543 L 694.839111328125 546 C 694.839111328125 546 689.839111328125 546 689.839111328125 546 L 689.839111328125 543 Z M 679.839111328125 543 L 684.839111328125 543 L 684.839111328125 546 C 684.839111328125 546 679.839111328125 546 679.839111328125 546 L 679.839111328125 543 Z M 669.839111328125 543 L 674.839111328125 543 L 674.839111328125 546 C 674.839111328125 546 669.839111328125 546 669.839111328125 546 L 669.839111328125 543 Z M 659.839111328125 543 L 664.839111328125 543 L 664.839111328125 546 C 664.839111328125 546 659.839111328125 546 659.839111328125 546 L 659.839111328125 543 Z M 649.839111328125 543 L 654.839111328125 543 L 654.839111328125 546 C 654.839111328125 546 649.839111328125 546 649.839111328125 546 L 649.839111328125 543 Z M 639.839111328125 543 L 644.839111328125 543 L 644.839111328125 546 C 644.839111328125 546 639.839111328125 546 639.839111328125 546 L 639.839111328125 543 Z M 629.839111328125 543 L 634.839111328125 543 L 634.839111328125 546 C 634.839111328125 546 629.839111328125 546 629.839111328125 546 L 629.839111328125 543 Z M 619.839111328125 543 L 624.839111328125 543 L 624.839111328125 546 C 624.839111328125 546 619.839111328125 546 619.839111328125 546 L 619.839111328125 543 Z M 609.839111328125 543 L 614.839111328125 543 L 614.839111328125 546 C 614.839111328125 546 609.839111328125 546 609.839111328125 546 L 609.839111328125 543 Z M 599.839111328125 543 L 604.839111328125 543 L 604.839111328125 546 C 604.839111328125 546 599.839111328125 546 599.839111328125 546 L 599.839111328125 543 Z M 589.839111328125 543 L 594.839111328125 543 L 594.839111328125 546 C 594.839111328125 546 589.839111328125 546 589.839111328125 546 L 589.839111328125 543 Z M 579.839111328125 543 L 584.839111328125 543 L 584.839111328125 546 C 584.839111328125 546 579.839111328125 546 579.839111328125 546 L 579.839111328125 543 Z M 569.839111328125 543 L 574.839111328125 543 L 574.839111328125 546 C 574.839111328125 546 569.839111328125 546 569.839111328125 546 L 569.839111328125 543 Z M 559.839111328125 543 L 564.839111328125 543 L 564.839111328125 546 C 564.839111328125 546 559.839111328125 546 559.839111328125 546 L 559.839111328125 543 Z M 549.839111328125 543 L 554.839111328125 543 L 554.839111328125 546 C 554.839111328125 546 549.839111328125 546 549.839111328125 546 L 549.839111328125 543 Z M 539.839111328125 543 L 544.839111328125 543 L 544.839111328125 546 C 544.839111328125 546 539.839111328125 546 539.839111328125 546 L 539.839111328125 543 Z M 529.839111328125 543 L 534.839111328125 543 L 534.839111328125 546 C 534.839111328125 546 529.839111328125 546 529.839111328125 546 L 529.839111328125 543 Z M 519.839111328125 543 L 524.839111328125 543 L 524.839111328125 546 C 524.839111328125 546 519.839111328125 546 519.839111328125 546 L 519.839111328125 543 Z M 509.839111328125 543 L 514.839111328125 543 L 514.839111328125 546 C 514.839111328125 546 509.839111328125 546 509.839111328125 546 L 509.839111328125 543 Z M 499.839111328125 543 L 504.839111328125 543 L 504.839111328125 546 C 504.839111328125 546 499.839111328125 546 499.839111328125 546 L 499.839111328125 543 Z M 489.839111328125 543 L 494.839111328125 543 L 494.839111328125 546 C 494.839111328125 546 489.839111328125 546 489.839111328125 546 L 489.839111328125 543 Z M 479.839111328125 543 L 484.839111328125 543 L 484.839111328125 546 C 484.839111328125 546 479.839111328125 546 479.839111328125 546 L 479.839111328125 543 Z M 469.839111328125 543 L 474.839111328125 543 L 474.839111328125 546 C 474.839111328125 546 469.839111328125 546 469.839111328125 546 L 469.839111328125 543 Z M 459.839111328125 543 L 464.839111328125 543 L 464.839111328125 546 C 464.839111328125 546 459.839111328125 546 459.839111328125 546 L 459.839111328125 543 Z M 449.839111328125 543 L 454.839111328125 543 L 454.839111328125 546 C 454.839111328125 546 449.839111328125 546 449.839111328125 546 L 449.839111328125 543 Z M 439.839111328125 543 L 444.839111328125 543 L 444.839111328125 546 C 444.839111328125 546 439.839111328125 546 439.839111328125 546 L 439.839111328125 543 Z M 429.839111328125 543 L 434.839111328125 543 L 434.839111328125 546 C 434.839111328125 546 429.839111328125 546 429.839111328125 546 L 429.839111328125 543 Z M 419.839111328125 543 L 424.839111328125 543 L 424.839111328125 546 C 424.839111328125 546 419.839111328125 546 419.839111328125 546 L 419.839111328125 543 Z M 409.839111328125 543 L 414.839111328125 543 L 414.839111328125 546 C 414.839111328125 546 409.839111328125 546 409.839111328125 546 L 409.839111328125 543 Z M 399.839111328125 543 L 404.839111328125 543 L 404.839111328125 546 C 404.839111328125 546 399.839111328125 546 399.839111328125 546 L 399.839111328125 543 Z M 389.839111328125 543 L 394.839111328125 543 L 394.839111328125 546 C 394.839111328125 546 389.839111328125 546 389.839111328125 546 L 389.839111328125 543 Z M 379.839111328125 543 L 384.839111328125 543 L 384.839111328125 546 C 384.839111328125 546 379.839111328125 546 379.839111328125 546 L 379.839111328125 543 Z M 369.839111328125 543 L 374.839111328125 543 L 374.839111328125 546 C 374.839111328125 546 369.839111328125 546 369.839111328125 546 L 369.839111328125 543 Z M 359.839111328125 543 L 364.839111328125 543 L 364.839111328125 546 C 364.839111328125 546 359.839111328125 546 359.839111328125 546 L 359.839111328125 543 Z M 349.839111328125 543 L 354.839111328125 543 L 354.839111328125 546 C 354.839111328125 546 349.839111328125 546 349.839111328125 546 L 349.839111328125 543 Z M 339.839111328125 543 L 344.839111328125 543 L 344.839111328125 546 C 344.839111328125 546 339.839111328125 546 339.839111328125 546 L 339.839111328125 543 Z M 329.839111328125 543 L 334.839111328125 543 L 334.839111328125 546 C 334.839111328125 546 329.839111328125 546 329.839111328125 546 L 329.839111328125 543 Z M 319.839111328125 543 L 324.839111328125 543 L 324.839111328125 546 C 324.839111328125 546 319.839111328125 546 319.839111328125 546 L 319.839111328125 543 Z M 309.839111328125 543 L 314.839111328125 543 L 314.839111328125 546 C 314.839111328125 546 309.839111328125 546 309.839111328125 546 L 309.839111328125 543 Z M 299.839111328125 543 L 304.839111328125 543 L 304.839111328125 546 C 304.839111328125 546 299.839111328125 546 299.839111328125 546 L 299.839111328125 543 Z M 289.839111328125 543 L 294.839111328125 543 L 294.839111328125 546 C 294.839111328125 546 289.839111328125 546 289.839111328125 546 L 289.839111328125 543 Z M 279.839111328125 543 L 284.839111328125 543 L 284.839111328125 546 C 284.839111328125 546 279.839111328125 546 279.839111328125 546 L 279.839111328125 543 Z M 269.839111328125 543 L 274.839111328125 543 L 274.839111328125 546 C 274.839111328125 546 269.839111328125 546 269.839111328125 546 L 269.839111328125 543 Z M 259.839111328125 543 L 264.839111328125 543 L 264.839111328125 546 C 264.839111328125 546 259.839111328125 546 259.839111328125 546 L 259.839111328125 543 Z M 249.839111328125 543 L 254.839111328125 543 L 254.839111328125 546 C 254.839111328125 546 249.839111328125 546 249.839111328125 546 L 249.839111328125 543 Z M 239.839111328125 543 L 244.839111328125 543 L 244.839111328125 546 C 244.839111328125 546 239.839111328125 546 239.839111328125 546 L 239.839111328125 543 Z M 229.839111328125 543 L 234.839111328125 543 L 234.839111328125 546 C 234.839111328125 546 229.839111328125 546 229.839111328125 546 L 229.839111328125 543 Z M 219.839111328125 543 L 224.839111328125 543 L 224.839111328125 546 C 224.839111328125 546 219.839111328125 546 219.839111328125 546 L 219.839111328125 543 Z M 209.839111328125 543 L 214.839111328125 543 L 214.839111328125 546 C 214.839111328125 546 209.839111328125 546 209.839111328125 546 L 209.839111328125 543 Z M 199.839111328125 543 L 204.839111328125 543 L 204.839111328125 546 C 204.839111328125 546 199.839111328125 546 199.839111328125 546 L 199.839111328125 543 Z M 189.839111328125 543 L 194.839111328125 543 L 194.839111328125 546 C 194.839111328125 546 189.839111328125 546 189.839111328125 546 L 189.839111328125 543 Z M 179.839111328125 543 L 184.839111328125 543 L 184.839111328125 546 C 184.839111328125 546 179.839111328125 546 179.839111328125 546 L 179.839111328125 543 Z M 169.839111328125 543 L 174.839111328125 543 L 174.839111328125 546 C 174.839111328125 546 169.839111328125 546 169.839111328125 546 L 169.839111328125 543 Z M 159.839111328125 543 L 164.839111328125 543 L 164.839111328125 546 C 164.839111328125 546 159.839111328125 546 159.839111328125 546 L 159.839111328125 543 Z M 149.839111328125 543 L 154.839111328125 543 L 154.839111328125 546 C 154.839111328125 546 149.839111328125 546 149.839111328125 546 L 149.839111328125 543 Z M 139.839111328125 543 L 144.839111328125 543 L 144.839111328125 546 C 144.839111328125 546 139.839111328125 546 139.839111328125 546 L 139.839111328125 543 Z M 129.839111328125 543 L 134.839111328125 543 L 134.839111328125 546 C 134.839111328125 546 129.839111328125 546 129.839111328125 546 L 129.839111328125 543 Z M 119.839111328125 543 L 124.839111328125 543 L 124.839111328125 546 C 124.839111328125 546 119.839111328125 546 119.839111328125 546 L 119.839111328125 543 Z M 109.839111328125 543 L 114.839111328125 543 L 114.839111328125 546 C 114.839111328125 546 109.839111328125 546 109.839111328125 546 L 109.839111328125 543 Z M 99.839111328125 543 L 104.839111328125 543 L 104.839111328125 546 C 104.839111328125 546 99.839111328125 546 99.839111328125 546 L 99.839111328125 543 Z M 89.839111328125 543 L 94.839111328125 543 L 94.839111328125 546 C 94.839111328125 546 89.839111328125 546 89.839111328125 546 L 89.839111328125 543 Z M 79.839111328125 543 L 84.839111328125 543 L 84.839111328125 546 C 84.839111328125 546 79.839111328125 546 79.839111328125 546 L 79.839111328125 543 Z M 69.839111328125 543 L 74.839111328125 543 L 74.839111328125 546 C 74.839111328125 546 69.839111328125 546 69.839111328125 546 L 69.839111328125 543 Z M 59.839111328125 543 L 64.839111328125 543 L 64.839111328125 546 C 64.839111328125 546 59.839111328125 546 59.839111328125 546 L 59.839111328125 543 Z M 49.839111328125 543 L 54.839111328125 543 L 54.839111328125 546 C 54.839111328125 546 49.839111328125 546 49.839111328125 546 L 49.839111328125 543 Z M 39.839111328125 543 L 44.839111328125 543 L 44.839111328125 546 C 44.839111328125 546 39.839111328125 546 39.839111328125 546 L 39.839111328125 543 Z M 29.839111328125 543 L 34.839111328125 543 L 34.839111328125 546 C 34.839111328125 546 29.839111328125 546 29.839111328125 546 L 29.839111328125 543 Z M 19.862548828125 542.9994506835938 C 19.9083251953125 542.9998168945312 19.9542236328125 543 20 543 L 24.839111328125 543 L 24.839111328125 546 C 24.839111328125 546 20 546 20 546 C 19.9464111328125 546 19.892822265625 545.9998168945312 19.8388671875 545.9993896484375 L 19.862548828125 542.9994506835938 Z M 11.7318115234375 540.8579711914062 C 12.969970703125 541.5487060546875 14.2911376953125 542.0814819335938 15.658935546875 542.4414672851562 L 14.895263671875 545.342529296875 C 14.359619140625 545.2015991210938 13.8328857421875 545.0390014648438 13.3157958984375 544.855712890625 C 13.315185546875 544.8555297851562 13.3153076171875 544.8555908203125 13.314697265625 544.8553466796875 C 13.3035888671875 544.8513793945312 13.29248046875 544.8474731445312 13.2813720703125 544.843505859375 C 13.279541015625 544.8428344726562 13.2779541015625 544.84228515625 13.276123046875 544.8416137695312 C 13.26513671875 544.8377075195312 13.25439453125 544.8338623046875 13.243408203125 544.8298950195312 C 13.2427978515625 544.8297119140625 13.2418212890625 544.829345703125 13.2412109375 544.8291015625 C 13.2294921875 544.824951171875 13.2178955078125 544.8207397460938 13.2061767578125 544.8165283203125 C 13.203857421875 544.815673828125 13.2017822265625 544.8148803710938 13.1993408203125 544.8140258789062 C 13.19091796875 544.8109741210938 13.1824951171875 544.8079223632812 13.174072265625 544.8048706054688 C 13.169189453125 544.8031005859375 13.164794921875 544.801513671875 13.1600341796875 544.7998046875 C 13.15380859375 544.7974853515625 13.147705078125 544.7952880859375 13.1414794921875 544.7930297851562 C 13.1365966796875 544.791259765625 13.130859375 544.7891235351562 13.1260986328125 544.7874145507812 C 13.1214599609375 544.7857055664062 13.11669921875 544.783935546875 13.1121826171875 544.7822875976562 C 13.0965576171875 544.7765502929688 13.0821533203125 544.771240234375 13.066650390625 544.7655029296875 C 13.06640625 544.7654418945312 13.0660400390625 544.7653198242188 13.0657958984375 544.7652587890625 C 13.0574951171875 544.7621459960938 13.048828125 544.7589721679688 13.04052734375 544.755859375 C 13.0386962890625 544.7551879882812 13.036865234375 544.7545166015625 13.0350341796875 544.7538452148438 C 13.026123046875 544.75048828125 13.0179443359375 544.7474365234375 13.009033203125 544.744140625 C 13.0086669921875 544.7439575195312 13.0081787109375 544.7438354492188 13.0078125 544.7437133789062 C 12.1500244140625 544.423583984375 11.3204345703125 544.0463256835938 10.52294921875 543.616455078125 C 10.521240234375 543.6155395507812 10.519775390625 543.61474609375 10.51806640625 543.6138305664062 C 10.5108642578125 543.6099853515625 10.5047607421875 543.6066284179688 10.49755859375 543.6027221679688 C 10.4935302734375 543.6005859375 10.4896240234375 543.5984497070312 10.485595703125 543.5962524414062 C 10.4801025390625 543.59326171875 10.474853515625 543.5904541015625 10.4693603515625 543.5874633789062 C 10.4608154296875 543.5828247070312 10.4522705078125 543.5781860351562 10.44384765625 543.5735473632812 C 10.4405517578125 543.57177734375 10.4365234375 543.569580078125 10.4332275390625 543.5678100585938 C 10.4254150390625 543.5635375976562 10.4176025390625 543.5592041015625 10.4097900390625 543.5549926757812 C 10.4058837890625 543.5528564453125 10.4019775390625 543.5507202148438 10.398193359375 543.548583984375 C 10.390869140625 543.5446166992188 10.383544921875 543.5405883789062 10.376220703125 543.5364990234375 C 10.3740234375 543.5353393554688 10.3712158203125 543.5338134765625 10.3690185546875 543.5325927734375 C 10.3359375 543.514404296875 10.3031005859375 543.4961547851562 10.2701416015625 543.4778442382812 L 11.7318115234375 540.8579711914062 Z M 5.6187744140625 535.0701904296875 C 6.3759765625 536.267822265625 7.28271484375 537.3701782226562 8.31396484375 538.3465576171875 L 6.251220703125 540.52490234375 C 6.2503662109375 540.5240478515625 6.2498779296875 540.5236206054688 6.2490234375 540.5227661132812 C 6.2408447265625 540.5150756835938 6.2327880859375 540.5074462890625 6.2247314453125 540.4996948242188 C 6.2237548828125 540.4988403320312 6.2220458984375 540.4971923828125 6.22119140625 540.496337890625 C 6.21337890625 540.4888916015625 6.2056884765625 540.4816284179688 6.1978759765625 540.4741821289062 C 6.1943359375 540.4707641601562 6.190673828125 540.46728515625 6.1871337890625 540.4638671875 C 6.1829833984375 540.4599609375 6.1788330078125 540.4559936523438 6.1748046875 540.4521484375 C 6.16943359375 540.4469604492188 6.1646728515625 540.4423828125 6.1591796875 540.4371948242188 C 6.15771484375 540.435791015625 6.1563720703125 540.4344482421875 6.1549072265625 540.4330444335938 C 4.98583984375 539.3113403320312 3.9530029296875 538.0492553710938 3.0831298828125 536.6734008789062 L 5.6187744140625 535.0701904296875 Z M 3.0330810546875 527.0723876953125 C 3.1212158203125 528.4910888671875 3.38623046875 529.8916625976562 3.820556640625 531.2352905273438 L 0.9659423828125 532.158203125 C 0.4622802734375 530.5999755859375 0.1444091796875 528.9574584960938 0.0389404296875 527.2581787109375 L 3.0330810546875 527.0723876953125 Z M 0 517.2587280273438 L 3 517.2587280273438 L 3 522.2587280273438 L 0 522.2587280273438 L 0 517.2587280273438 Z M 0 507.2587280273438 L 3 507.2587280273438 L 3 512.2587280273438 L 0 512.2587280273438 L 0 507.2587280273438 Z M 0 497.2587280273438 L 3 497.2587280273438 L 3 502.2587280273438 L 0 502.2587280273438 L 0 497.2587280273438 Z M 0 487.2587280273438 L 3 487.2587280273438 L 3 492.2587280273438 L 0 492.2587280273438 L 0 487.2587280273438 Z M 0 477.2587280273438 L 3 477.2587280273438 L 3 482.2587280273438 L 0 482.2587280273438 L 0 477.2587280273438 Z M 0 467.2587280273438 L 3 467.2587280273438 L 3 472.2587280273438 L 0 472.2587280273438 L 0 467.2587280273438 Z M 0 457.2587280273438 L 3 457.2587280273438 L 3 462.2587280273438 L 0 462.2587280273438 L 0 457.2587280273438 Z M 0 447.2587280273438 L 3 447.2587280273438 L 3 452.2587280273438 L 0 452.2587280273438 L 0 447.2587280273438 Z M 0 437.2587280273438 L 3 437.2587280273438 L 3 442.2587280273438 L 0 442.2587280273438 L 0 437.2587280273438 Z M 0 427.2587280273438 L 3 427.2587280273438 L 3 432.2587280273438 L 0 432.2587280273438 L 0 427.2587280273438 Z M 0 417.2587280273438 L 3 417.2587280273438 L 3 422.2587280273438 L 0 422.2587280273438 L 0 417.2587280273438 Z M 0 407.2587280273438 L 3 407.2587280273438 L 3 412.2587280273438 L 0 412.2587280273438 L 0 407.2587280273438 Z M 0 397.2587280273438 L 3 397.2587280273438 L 3 402.2587280273438 L 0 402.2587280273438 L 0 397.2587280273438 Z M 0 387.2587280273438 L 3 387.2587280273438 L 3 392.2587280273438 L 0 392.2587280273438 L 0 387.2587280273438 Z M 0 377.2587280273438 L 3 377.2587280273438 L 3 382.2587280273438 L 0 382.2587280273438 L 0 377.2587280273438 Z M 0 367.2587280273438 L 3 367.2587280273438 L 3 372.2587280273438 L 0 372.2587280273438 L 0 367.2587280273438 Z M 0 357.2587280273438 L 3 357.2587280273438 L 3 362.2587280273438 L 0 362.2587280273438 L 0 357.2587280273438 Z M 0 347.2587280273438 L 3 347.2587280273438 L 3 352.2587280273438 L 0 352.2587280273438 L 0 347.2587280273438 Z M 0 337.2587280273438 L 3 337.2587280273438 L 3 342.2587280273438 L 0 342.2587280273438 L 0 337.2587280273438 Z M 0 327.2587280273438 L 3 327.2587280273438 L 3 332.2587280273438 L 0 332.2587280273438 L 0 327.2587280273438 Z M 0 317.2587280273438 L 3 317.2587280273438 L 3 322.2587280273438 L 0 322.2587280273438 L 0 317.2587280273438 Z M 0 307.2587280273438 L 3 307.2587280273438 L 3 312.2587280273438 L 0 312.2587280273438 L 0 307.2587280273438 Z M 0 297.2587280273438 L 3 297.2587280273438 L 3 302.2587280273438 L 0 302.2587280273438 L 0 297.2587280273438 Z M 0 287.2587280273438 L 3 287.2587280273438 L 3 292.2587280273438 L 0 292.2587280273438 L 0 287.2587280273438 Z M 0 277.2587280273438 L 3 277.2587280273438 L 3 282.2587280273438 L 0 282.2587280273438 L 0 277.2587280273438 Z M 0 267.2587280273438 L 3 267.2587280273438 L 3 272.2587280273438 L 0 272.2587280273438 L 0 267.2587280273438 Z M 0 257.2587280273438 L 3 257.2587280273438 L 3 262.2587280273438 L 0 262.2587280273438 L 0 257.2587280273438 Z M 0 247.2587280273438 L 3 247.2587280273438 L 3 252.2587280273438 L 0 252.2587280273438 L 0 247.2587280273438 Z M 0 237.2587280273438 L 3 237.2587280273438 L 3 242.2587280273438 L 0 242.2587280273438 L 0 237.2587280273438 Z M 0 227.2587280273438 L 3 227.2587280273438 L 3 232.2587280273438 L 0 232.2587280273438 L 0 227.2587280273438 Z M 0 217.2587280273438 L 3 217.2587280273438 L 3 222.2587280273438 L 0 222.2587280273438 L 0 217.2587280273438 Z M 0 207.2587280273438 L 3 207.2587280273438 L 3 212.2587280273438 L 0 212.2587280273438 L 0 207.2587280273438 Z M 0 197.2587280273438 L 3 197.2587280273438 L 3 202.2587280273438 L 0 202.2587280273438 L 0 197.2587280273438 Z M 0 187.2587280273438 L 3 187.2587280273438 L 3 192.2587280273438 L 0 192.2587280273438 L 0 187.2587280273438 Z M 0 177.2587280273438 L 3 177.2587280273438 L 3 182.2587280273438 L 0 182.2587280273438 L 0 177.2587280273438 Z M 0 167.2587280273438 L 3 167.2587280273438 L 3 172.2587280273438 L 0 172.2587280273438 L 0 167.2587280273438 Z M 0 157.2587280273438 L 3 157.2587280273438 L 3 162.2587280273438 L 0 162.2587280273438 L 0 157.2587280273438 Z M 0 147.2587280273438 L 3 147.2587280273438 L 3 152.2587280273438 L 0 152.2587280273438 L 0 147.2587280273438 Z M 0 137.2587280273438 L 3 137.2587280273438 L 3 142.2587280273438 L 0 142.2587280273438 L 0 137.2587280273438 Z M 0 127.2587280273438 L 3 127.2587280273438 L 3 132.2587280273438 L 0 132.2587280273438 L 0 127.2587280273438 Z M 0 117.2587280273438 L 3 117.2587280273438 L 3 122.2587280273438 L 0 122.2587280273438 L 0 117.2587280273438 Z M 0 107.2587280273438 L 3 107.2587280273438 L 3 112.2587280273438 L 0 112.2587280273438 L 0 107.2587280273438 Z M 0 97.25872802734375 L 3 97.25872802734375 L 3 102.2587280273438 L 0 102.2587280273438 L 0 97.25872802734375 Z M 0 87.25872802734375 L 3 87.25872802734375 L 3 92.25872802734375 L 0 92.25872802734375 L 0 87.25872802734375 Z M 0 77.25872802734375 L 3 77.25872802734375 L 3 82.25872802734375 L 0 82.25872802734375 L 0 77.25872802734375 Z M 0 67.25872802734375 L 3 67.25872802734375 L 3 72.25872802734375 L 0 72.25872802734375 L 0 67.25872802734375 Z M 0 57.25872802734375 L 3 57.25872802734375 L 3 62.25872802734375 L 0 62.25872802734375 L 0 57.25872802734375 Z M 0 47.25872802734375 L 3 47.25872802734375 L 3 52.25872802734375 L 0 52.25872802734375 L 0 47.25872802734375 Z M 0 37.25872802734375 L 3 37.25872802734375 L 3 42.25872802734375 L 0 42.25872802734375 L 0 37.25872802734375 Z M 0 27.25872802734375 L 3 27.25872802734375 L 3 32.25872802734375 L 0 32.25872802734375 L 0 27.25872802734375 Z M 0 17.25872802734375 L 3 17.25872802734375 L 3 22.25872802734375 L 0 22.25872802734375 L 0 17.25872802734375 Z M 0 7.25872802734375 L 3 7.25872802734375 L 3 12.25872802734375 L 0 12.25872802734375 L 0 7.25872802734375 Z M 0 -2.74127197265625 L 3 -2.74127197265625 L 3 2.25872802734375 L 0 2.25872802734375 L 0 -2.74127197265625 Z M 0.554931640625 -12.69781494140625 L 3.471435546875 -11.99578857421875 C 3.15869140625 -10.69598388671875 3 -9.35162353515625 3 -8 L 3 -7.74127197265625 L 0 -7.74127197265625 L 0 -8 C 0 -8 0 -8 0 -8 C 0 -8.01177978515625 0 -8.02337646484375 0 -8.03509521484375 C 0 -8.03985595703125 0 -8.04302978515625 0.0001220703125 -8.0477294921875 C 0.0001220703125 -8.05535888671875 0.0001220703125 -8.0628662109375 0.0001220703125 -8.07049560546875 C 0.0001220703125 -8.0751953125 0.0001220703125 -8.08013916015625 0.000244140625 -8.08489990234375 C 0.000244140625 -8.09210205078125 0.000244140625 -8.099365234375 0.000244140625 -8.1065673828125 C 0.0003662109375 -8.11126708984375 0.0003662109375 -8.11566162109375 0.0003662109375 -8.120361328125 C 0.0003662109375 -8.12786865234375 0.00048828125 -8.1353759765625 0.00048828125 -8.142822265625 C 0.00048828125 -8.14691162109375 0.0006103515625 -8.15191650390625 0.0006103515625 -8.156005859375 C 0.0006103515625 -8.16485595703125 0.000732421875 -8.173583984375 0.0008544921875 -8.18243408203125 C 0.0008544921875 -8.18585205078125 0.0008544921875 -8.1876220703125 0.0008544921875 -8.19097900390625 C 0.0009765625 -8.2030029296875 0.0010986328125 -8.21484375 0.001220703125 -8.22686767578125 C 0.001220703125 -8.22821044921875 0.0013427734375 -8.22869873046875 0.0013427734375 -8.23004150390625 C 0.00146484375 -8.2410888671875 0.0015869140625 -8.2518310546875 0.001708984375 -8.26287841796875 C 0.001708984375 -8.2662353515625 0.0018310546875 -8.2691650390625 0.0018310546875 -8.27252197265625 C 0.001953125 -8.28076171875 0.0020751953125 -8.288818359375 0.002197265625 -8.297119140625 C 0.002197265625 -8.302490234375 0.0023193359375 -8.30657958984375 0.00244140625 -8.31195068359375 C 0.00244140625 -8.31890869140625 0.0025634765625 -8.32598876953125 0.002685546875 -8.33294677734375 C 0.0028076171875 -8.337646484375 0.0029296875 -8.34234619140625 0.0029296875 -8.3470458984375 C 0.0030517578125 -8.3544921875 0.003173828125 -8.36212158203125 0.0032958984375 -8.36956787109375 C 0.00341796875 -8.37359619140625 0.0035400390625 -8.37811279296875 0.0035400390625 -8.38214111328125 C 0.0037841796875 -8.3919677734375 0.00390625 -8.4019775390625 0.004150390625 -8.41180419921875 C 0.004150390625 -8.413818359375 0.0042724609375 -8.41497802734375 0.0042724609375 -8.4169921875 C 0.0045166015625 -8.428955078125 0.0047607421875 -8.44097900390625 0.0050048828125 -8.4530029296875 C 0.005126953125 -8.45501708984375 0.005126953125 -8.457763671875 0.005126953125 -8.45977783203125 C 0.00537109375 -8.4693603515625 0.005615234375 -8.4791259765625 0.005859375 -8.48870849609375 C 0.0059814453125 -8.4920654296875 0.0059814453125 -8.49505615234375 0.006103515625 -8.4984130859375 C 0.00634765625 -8.50726318359375 0.0064697265625 -8.51593017578125 0.0067138671875 -8.5247802734375 C 0.0068359375 -8.52880859375 0.0069580078125 -8.53179931640625 0.007080078125 -8.5357666015625 C 0.0072021484375 -8.54400634765625 0.0074462890625 -8.5523681640625 0.0076904296875 -8.56060791015625 C 0.0078125 -8.56463623046875 0.0079345703125 -8.5677490234375 0.008056640625 -8.57177734375 C 0.00830078125 -8.58001708984375 0.008544921875 -8.58807373046875 0.0087890625 -8.5963134765625 C 0.0087890625 -8.600341796875 0.0089111328125 -8.60406494140625 0.009033203125 -8.60809326171875 C 0.0093994140625 -8.61944580078125 0.009765625 -8.630859375 0.0101318359375 -8.6422119140625 C 0.0101318359375 -8.6422119140625 0.0101318359375 -8.64227294921875 0.0101318359375 -8.64227294921875 C 0.010498046875 -8.65460205078125 0.0108642578125 -8.6668701171875 0.0113525390625 -8.67926025390625 C 0.0113525390625 -8.68060302734375 0.011474609375 -8.6820068359375 0.011474609375 -8.683349609375 C 0.0118408203125 -8.69378662109375 0.01220703125 -8.7044677734375 0.0125732421875 -8.7149658203125 C 0.0126953125 -8.71759033203125 0.0126953125 -8.7205810546875 0.0128173828125 -8.7232666015625 C 0.01318359375 -8.73236083984375 0.0135498046875 -8.74163818359375 0.0137939453125 -8.750732421875 C 0.013916015625 -8.75408935546875 0.0140380859375 -8.75677490234375 0.01416015625 -8.7601318359375 C 0.0145263671875 -8.76971435546875 0.014892578125 -8.77923583984375 0.0152587890625 -8.788818359375 C 0.015380859375 -8.79083251953125 0.0155029296875 -8.79327392578125 0.0155029296875 -8.7952880859375 C 0.015869140625 -8.80535888671875 0.016357421875 -8.8153076171875 0.0167236328125 -8.82537841796875 C 0.016845703125 -8.827392578125 0.0169677734375 -8.83001708984375 0.0169677734375 -8.83203125 C 0.0179443359375 -8.85638427734375 0.01904296875 -8.880615234375 0.0201416015625 -8.90496826171875 C 0.0201416015625 -8.9056396484375 0.0201416015625 -8.9058837890625 0.0201416015625 -8.90655517578125 C 0.020751953125 -8.918212890625 0.021240234375 -8.92974853515625 0.021728515625 -8.94134521484375 C 0.0218505859375 -8.94268798828125 0.0218505859375 -8.9443359375 0.02197265625 -8.9456787109375 C 0.0224609375 -8.9561767578125 0.02294921875 -8.9666748046875 0.0234375 -8.97723388671875 C 0.0235595703125 -8.979248046875 0.023681640625 -8.98150634765625 0.0238037109375 -8.9835205078125 C 0.0242919921875 -8.99456787109375 0.0247802734375 -9.00543212890625 0.025390625 -9.01641845703125 C 0.025390625 -9.01708984375 0.0255126953125 -9.01776123046875 0.0255126953125 -9.0184326171875 C 0.0279541015625 -9.06805419921875 0.0306396484375 -9.1175537109375 0.033447265625 -9.1671142578125 C 0.0335693359375 -9.16778564453125 0.033447265625 -9.16729736328125 0.0335693359375 -9.16796875 C 0.0341796875 -9.17926025390625 0.034912109375 -9.190673828125 0.0355224609375 -9.20196533203125 C 0.03564453125 -9.20330810546875 0.0357666015625 -9.20611572265625 0.035888671875 -9.20745849609375 C 0.1070556640625 -10.4022216796875 0.2830810546875 -11.5687255859375 0.554931640625 -12.69781494140625 Z M 5.1898193359375 -21.44110107421875 L 7.4107666015625 -19.4241943359375 C 6.455810546875 -18.37274169921875 5.6351318359375 -17.2054443359375 4.9716796875 -15.955078125 L 2.3216552734375 -17.36126708984375 C 3.08251953125 -18.79510498046875 4.0126953125 -20.12530517578125 5.08544921875 -21.32525634765625 C 5.08544921875 -21.32525634765625 5.085693359375 -21.32550048828125 5.085693359375 -21.32550048828125 C 5.1112060546875 -21.35406494140625 5.136962890625 -21.38275146484375 5.1627197265625 -21.41119384765625 C 5.16357421875 -21.412109375 5.1641845703125 -21.41278076171875 5.1650390625 -21.4136962890625 C 5.1727294921875 -21.42230224609375 5.1806640625 -21.4310302734375 5.1884765625 -21.4395751953125 C 5.1888427734375 -21.4400634765625 5.189453125 -21.44061279296875 5.1898193359375 -21.44110107421875 Z M 13.4439697265625 -26.9007568359375 L 14.4271240234375 -24.06634521484375 C 13.09130859375 -23.60308837890625 11.8138427734375 -22.97088623046875 10.63037109375 -22.18743896484375 L 8.974365234375 -24.68890380859375 C 9.879150390625 -25.287841796875 10.8355712890625 -25.81524658203125 11.8353271484375 -26.262939453125 C 11.8370361328125 -26.26373291015625 11.837890625 -26.26409912109375 11.839599609375 -26.264892578125 C 11.85009765625 -26.26959228515625 11.8607177734375 -26.2742919921875 11.8712158203125 -26.27899169921875 C 11.871826171875 -26.27923583984375 11.8731689453125 -26.27984619140625 11.873779296875 -26.28009033203125 C 11.8853759765625 -26.2852783203125 11.8970947265625 -26.29046630859375 11.90869140625 -26.295654296875 C 11.90869140625 -26.295654296875 11.9088134765625 -26.295654296875 11.9088134765625 -26.295654296875 C 11.9197998046875 -26.300537109375 11.9307861328125 -26.305419921875 11.9417724609375 -26.31024169921875 C 11.9447021484375 -26.3115234375 11.9476318359375 -26.31280517578125 11.950439453125 -26.3140869140625 C 11.9580078125 -26.3173828125 11.965576171875 -26.3206787109375 11.9730224609375 -26.323974609375 C 11.9776611328125 -26.32598876953125 11.9810791015625 -26.3275146484375 11.9857177734375 -26.32958984375 C 11.9932861328125 -26.33282470703125 12.0006103515625 -26.3360595703125 12.0081787109375 -26.33935546875 C 12.0115966796875 -26.34088134765625 12.0150146484375 -26.3424072265625 12.0185546875 -26.3438720703125 C 12.028564453125 -26.3482666015625 12.0384521484375 -26.3525390625 12.0484619140625 -26.35693359375 C 12.0537109375 -26.35919189453125 12.0592041015625 -26.361572265625 12.064453125 -26.36383056640625 C 12.0697021484375 -26.3660888671875 12.074951171875 -26.368408203125 12.0802001953125 -26.37060546875 C 12.0859375 -26.37310791015625 12.0914306640625 -26.37548828125 12.0972900390625 -26.37799072265625 C 12.1019287109375 -26.3800048828125 12.1064453125 -26.38189697265625 12.1109619140625 -26.3839111328125 C 12.117919921875 -26.38690185546875 12.1239013671875 -26.38946533203125 12.1309814453125 -26.3924560546875 C 12.1314697265625 -26.3927001953125 12.1322021484375 -26.39300537109375 12.1328125 -26.39324951171875 C 12.149658203125 -26.4005126953125 12.1661376953125 -26.40753173828125 12.18310546875 -26.41473388671875 C 12.1846923828125 -26.4154052734375 12.186279296875 -26.41607666015625 12.1878662109375 -26.416748046875 C 12.1954345703125 -26.41998291015625 12.2030029296875 -26.42315673828125 12.2105712890625 -26.42633056640625 C 12.21337890625 -26.42755126953125 12.2161865234375 -26.4287109375 12.218994140625 -26.429931640625 C 12.6209716796875 -26.599853515625 13.0291748046875 -26.7568359375 13.4439697265625 -26.90069580078125 Z M 20 -28 L 20 -25 C 19.5238037109375 -25 19.043212890625 -24.98016357421875 18.5714111328125 -24.94091796875 L 18.3232421875 -27.93072509765625 C 18.346435546875 -27.9326171875 18.367919921875 -27.93438720703125 18.3909912109375 -27.93621826171875 C 18.406005859375 -27.9373779296875 18.419921875 -27.9384765625 18.4346923828125 -27.93963623046875 C 18.4505615234375 -27.94091796875 18.4674072265625 -27.9422607421875 18.483642578125 -27.943359375 C 18.499267578125 -27.94451904296875 18.5147705078125 -27.9456787109375 18.5302734375 -27.94683837890625 C 18.531005859375 -27.94683837890625 18.5313720703125 -27.9468994140625 18.5321044921875 -27.94696044921875 C 18.8948974609375 -27.97320556640625 19.26025390625 -27.9898681640625 19.628173828125 -27.99658203125 C 19.646728515625 -27.99737548828125 19.6644287109375 -27.99725341796875 19.6824951171875 -27.99749755859375 C 19.6824951171875 -27.99749755859375 19.683837890625 -27.99755859375 19.683837890625 -27.99755859375 C 19.701171875 -27.997802734375 19.71826171875 -27.998046875 19.735595703125 -27.998291015625 C 19.735595703125 -27.998291015625 19.7357177734375 -27.998291015625 19.7357177734375 -27.998291015625 C 19.7547607421875 -27.99853515625 19.774169921875 -27.9984130859375 19.79296875 -27.99896240234375 C 19.8101806640625 -27.99908447265625 19.8267822265625 -27.99920654296875 19.84375 -27.9993896484375 C 19.8614501953125 -27.99957275390625 19.8802490234375 -27.999267578125 19.8974609375 -27.999755859375 C 19.9158935546875 -27.99981689453125 19.9342041015625 -28 19.952880859375 -27.99993896484375 C 19.9686279296875 -28 19.984375 -28 20 -28 C 20 -28 20 -28 20 -28 Z" stroke="none" fill="#8936ff"/>
            </g>
          </g>
        </g>
        <g id="次選單-2" transform="translate(322 1204.831)">
          <line id="直线_25-2" data-name="直线 25-2" x2="384" transform="translate(0.5 53.169)" fill="none" stroke="#8936ff" stroke-width="2" stroke-dasharray="5"/>
          <line id="直线_27" data-name="直线 27" x2="384" transform="translate(433.334 53.169)" fill="none" stroke="#8936ff" stroke-width="2" stroke-dasharray="5"/>
          <text id="逾期未繳且未催繳及_未強制執行裁處案件" data-name="逾期未繳且未催繳及
未強制執行裁處案件" transform="translate(77 5)" fill="#8936ff" font-size="23" font-family="MicrosoftJhengHeiBold, Microsoft JhengHei" style="isolation: isolate"><tspan x="0" y="0">逾期未繳且未催繳及</tspan><tspan x="0" y="27">未強制執行裁處案件</tspan></text>
          <text id="待強制執行案件" transform="translate(544.834 23)" fill="#8936ff" font-size="23" font-family="MicrosoftJhengHeiBold, Microsoft JhengHei" style="isolation: isolate"><tspan x="0" y="0">待強制執行案件</tspan></text>
        </g>
        <g id="次選單-2-2" data-name="次選單-2" transform="translate(322 931.674)">
          <line id="直线_25-2-2" data-name="直线 25-2" x2="384" transform="translate(0 53.326)" fill="none" stroke="#8936ff" stroke-width="2" stroke-dasharray="5"/>
          <line id="直线_26" data-name="直线 26" x2="384" transform="translate(0 127.326)" fill="none" stroke="#8936ff" stroke-width="2" stroke-dasharray="5"/>
          <line id="直线_27-2" data-name="直线 27" x2="384" transform="translate(433 53.326)" fill="none" stroke="#8936ff" stroke-width="2" stroke-dasharray="5"/>
          <line id="直线_32" data-name="直线 32" x2="384" transform="translate(870.334 53.326)" fill="none" stroke="#8936ff" stroke-width="2" stroke-dasharray="5"/>
          <text id="新增稽查" transform="translate(143.519 25)" fill="#8936ff" font-size="23" font-family="MicrosoftJhengHeiBold, Microsoft JhengHei" style="isolation: isolate"><tspan x="0" y="0">新增稽查</tspan></text>
          <text id="報表與統計" transform="translate(131.427 98.645)" fill="#8936ff" font-size="23" font-family="MicrosoftJhengHeiBold, Microsoft JhengHei" style="isolation: isolate"><tspan x="0" y="0">報表與統計</tspan></text>
          <text id="批次登錄" transform="translate(576.539 25)" fill="#8936ff" font-size="23" font-family="MicrosoftJhengHeiBold, Microsoft JhengHei" style="isolation: isolate"><tspan x="0" y="0">批次登錄</tspan></text>
          <text id="批次列印" transform="translate(1015.834 25)" fill="#8936ff" font-size="23" font-family="MicrosoftJhengHeiBold, Microsoft JhengHei" style="isolation: isolate"><tspan x="0" y="0">批次列印</tspan></text>
        </g>
      </g>
      <rect id="矩形_1625" data-name="矩形 1625" width="1251" height="40" transform="translate(335 855)" fill="#8936ff"/>
      <text id="資料輸入及報表查詢" transform="translate(803 869)" fill="#fff" font-size="35" font-family="MicrosoftJhengHeiBold, Microsoft JhengHei"><tspan x="0" y="0">資料輸入及報表查詢</tspan></text>
      <g id="组_2036" data-name="组 2036" transform="translate(0 -132)">
        <rect id="矩形_1627" data-name="矩形 1627" width="1251" height="40" transform="translate(335 1257)" fill="#8936ff"/>
        <text id="待辦案件" transform="translate(891 1271)" fill="#fff" font-size="35" font-family="MicrosoftJhengHeiBold, Microsoft JhengHei"><tspan x="0" y="0">待辦案件</tspan></text>
      </g>
    </g>
  </g>
</svg>
