<svg xmlns="http://www.w3.org/2000/svg" width="1916" height="190.532" viewBox="0 0 1916 190.532">
  <g id="Cloud_background" transform="translate(-5 -94.466)">
    <path id="路径_1157" data-name="路径 1157" d="M750.99,171.658c.03-.676.082-1.344.082-2.032,0-20.263-14.19-36.691-31.7-36.691a28.556,28.556,0,0,0-17.483,6.1c-7.369-13.488-20.357-22.451-35.169-22.451-16.833,0-31.33,11.595-37.86,28.253a30.244,30.244,0,0,0-20.817-8.428,29.628,29.628,0,0,0-9.8,1.683c-3.889-6.45-10.337-10.672-17.65-10.672-6.927,0-13.073,3.8-17.014,9.7a47.791,47.791,0,0,0-8.211-.706c-15.895,0-29.587,7.72-36.041,18.871a20.111,20.111,0,0,0-10.443-2.944c-10.612,0-19.419,8.353-21.186,19.326Z" transform="translate(-482.699 71.739)" fill="#fff" opacity="0.85"/>
    <path id="路径_1158" data-name="路径 1158" d="M790.9,185.991c-.021-.432-.056-.86-.056-1.3,0-12.9,9.032-23.363,20.185-23.363a18.214,18.214,0,0,1,11.134,3.88c4.693-8.59,12.964-14.3,22.389-14.3,10.725,0,19.951,7.381,24.116,17.994a19.251,19.251,0,0,1,13.257-5.37,18.9,18.9,0,0,1,6.242,1.07,12.65,12.65,0,0,1,22.08-.621,30.592,30.592,0,0,1,5.226-.449c10.119,0,18.841,4.917,22.956,12.017a12.792,12.792,0,0,1,6.653-1.872c6.76,0,12.361,5.319,13.488,12.308Z" transform="translate(-40.848 -56.448)" fill="#fff" opacity="0.56"/>
    <path id="路径_1159" data-name="路径 1159" d="M671.167,148.659a24.352,24.352,0,0,0-44.9,0Z" transform="translate(-348.347 47.115)" fill="#fff"/>
    <path id="路径_1161" data-name="路径 1161" d="M1186.523,104.478a8.953,8.953,0,0,0,.7-3.392c0-11.228-22.018-20.333-49.176-20.333-.886,0-1.767.012-2.645.03a29.478,29.478,0,0,0,2.645-12.23,29.834,29.834,0,0,0-59.667,0c0,.319.038.632.05.949a20.355,20.355,0,0,0-26.5,19.382c0,.038.008.076.008.112-1.681-.072-3.374-.112-5.092-.112-23.193,0-42.636,6.651-47.8,15.594Z" transform="translate(320.886 91.297)" fill="#fff"/>
    <path id="路径_1162" data-name="路径 1162" d="M1403.042,195.349c-6.343-4.427-18.03-7.4-31.4-7.4a82.466,82.466,0,0,0-14.986,1.33c-2.708-6.187-11.014-10.691-20.849-10.691-7.229,0-13.614,2.438-17.569,6.18-4.229-7.1-14.619-12.125-26.766-12.125-13.12,0-24.188,5.867-27.651,13.887a74.819,74.819,0,0,0-22.258-3.133c-17.566,0-32.232,5.124-35.689,11.951Z" transform="translate(517.958 89.649)" fill="#fff"/>
    <path id="路径_1165" data-name="路径 1165" d="M766.881,166.806a22.39,22.39,0,0,1,7.271,1.219,27.83,27.83,0,0,1,43.863,16.653H744.891A22.464,22.464,0,0,1,766.881,166.806Z" transform="translate(-124.457 42.848)" fill="#fff"/>
    <path id="路径_1166" data-name="路径 1166" d="M967.143,151.59c-.485-8.849-5.516-15.811-11.67-15.811a8.232,8.232,0,0,0-2.769.5c0-.168.017-.335.017-.5,0-6.919-4.01-12.524-8.963-12.524a7.555,7.555,0,0,0-5.648,2.805c-.826-8.685-5.386-15.339-10.911-15.339-2.789,0-5.336,1.712-7.28,4.511-2.023-4.252-5.166-7-8.708-7-5.191,0-9.534,5.882-10.724,13.8a15,15,0,0,0-10.5-4.408c-7.656,0-14.048,6.023-15.686,14.091-1.561-3.263-3.828-5.335-6.357-5.335-4.712,0-8.529,7.121-8.529,15.907,0,.388.017.773.032,1.16a6.791,6.791,0,0,0-3.685-1.16c-3.915,0-7.367,3.686-9.415,9.3Z" transform="translate(187.823 86.536)" fill="#fff"/>
    <path id="路径_1167" data-name="路径 1167" d="M817.25,214c-4.784-5-13.6-8.351-23.677-8.351a42.211,42.211,0,0,0-11.3,1.5,16.506,16.506,0,0,0-15.72-12.068,16.232,16.232,0,0,0-13.253,6.976,21.715,21.715,0,0,0-41.033,1.988,39.359,39.359,0,0,0-16.785-3.536c-13.247,0-24.3,5.788-26.908,13.492Z" transform="translate(-318.072 48.294)" fill="#fff"/>
  </g>
</svg>
