<svg xmlns="http://www.w3.org/2000/svg" xmlns:xlink="http://www.w3.org/1999/xlink" width="1920" height="179.094" viewBox="0 0 1920 179.094">
  <defs>
    <linearGradient id="linear-gradient" x1="0.5" y1="1" x2="0.5" gradientUnits="objectBoundingBox">
      <stop offset="0" stop-color="#403e40"/>
      <stop offset="0.127" stop-color="#4d4c4d"/>
      <stop offset="0.312" stop-color="#5a595a"/>
      <stop offset="0.548" stop-color="#616161"/>
      <stop offset="1" stop-color="#646464"/>
    </linearGradient>
    <linearGradient id="linear-gradient-4" x1="0.5" y1="1" x2="0.5" gradientUnits="objectBoundingBox">
      <stop offset="0.081" stop-color="#403e40"/>
      <stop offset="0.472" stop-color="#434243"/>
      <stop offset="0.877" stop-color="#4f4e4f"/>
      <stop offset="1" stop-color="#555455"/>
    </linearGradient>
    <linearGradient id="linear-gradient-5" x1="0.5" x2="0.5" y2="1" gradientUnits="objectBoundingBox">
      <stop offset="0" stop-color="#403e40"/>
      <stop offset="1" stop-color="#161f21"/>
    </linearGradient>
    <linearGradient id="linear-gradient-6" x1="0.5" y1="0" x2="0.5" y2="1" xlink:href="#linear-gradient-5"/>
  </defs>
  <g id="footer" transform="translate(283.214 -64.188)">
    <g id="组_2049" data-name="组 2049" transform="translate(-283.214 64.188)">
      <g id="组_1985" data-name="组 1985" transform="translate(619.216 150.319)">
        <g id="组_1735" data-name="组 1735">
          <g id="组_1733" data-name="组 1733">
            <g id="组_1730" data-name="组 1730">
              <rect id="矩形_10" data-name="矩形 10" width="144.26" height="27.776" fill="none" stroke="#fff1f1" stroke-width="1"/>
            </g>
          </g>
          <text id="隱私權保護政策" transform="translate(16.032 19.943)" fill="#fff" font-size="16" font-family="YuGothicUI-Regular, Yu Gothic UI"><tspan x="0" y="0">隱私權保護政策</tspan></text>
        </g>
        <g id="组_1732" data-name="组 1732" transform="translate(152.5 0.5)">
          <rect id="矩形_11" data-name="矩形 11" width="126.339" height="27.776" fill="none" stroke="#fff" stroke-width="1"/>
          <text id="網站資安政策" transform="translate(15.532 19.443)" fill="#fff" font-size="16" font-family="YuGothicUI-Regular, Yu Gothic UI"><tspan x="0" y="0">網站資安政策</tspan></text>
        </g>
        <g id="组_1736" data-name="组 1736" transform="translate(286.5 0.5)">
          <rect id="矩形_12" data-name="矩形 12" width="126.339" height="27.776" fill="none" stroke="#fff" stroke-width="1"/>
          <text id="資訊安全規範" transform="translate(15.533 19.443)" fill="#fff" font-size="16" font-family="YuGothicUI-Regular, Yu Gothic UI"><tspan x="0" y="0">資訊安全規範</tspan></text>
        </g>
        <g id="组_1728" data-name="组 1728" transform="translate(421.5 0.5)">
          <rect id="矩形_13" data-name="矩形 13" width="163.973" height="27.776" fill="none" stroke="#fff" stroke-width="1"/>
          <text id="網站資料開放宣告" transform="translate(18.533 19.443)" fill="#fff" font-size="16" font-family="YuGothicUI-Regular, Yu Gothic UI"><tspan x="0" y="0">網站資料開放宣告</tspan></text>
        </g>
      </g>
      <g id="组_2044" data-name="组 2044" transform="translate(0)">
        <g id="组_2044-2" data-name="组 2044" transform="translate(24.999)" opacity="0.3">
          <path id="路径_2984" data-name="路径 2984" d="M174.294,327.15h38.66V247.4h1.1v-2.279h-2.4v-2.918H192.633v-4.433h-7.267l-1.085-2.895h-1.8v-5.172h-.8v5.172h-3.331v7.328h-2.76v2.918h-2.4V247.4h1.1Z" transform="translate(-120.264 -185.423)" fill="url(#linear-gradient)"/>
          <path id="路径_2985" data-name="路径 2985" d="M188.357,228.009a.72.72,0,1,0-.719.719A.719.719,0,0,0,188.357,228.009Z" transform="translate(-125.817 -184.445)" fill="url(#linear-gradient)"/>
          <path id="路径_2986" data-name="路径 2986" d="M497.119,301.723V194.51l-47.6-9.88,5.215,117.093H315.064v-66.24h-2.571V195.844h-6.637V185.227h-2.371V169.654H290.422V158.209h-1.162v11.445H286.7V155.328h-1.162v14.327H277.28v26.19h-4.266v39.639h-3.657v66.24H232.214V213.547h.642v-1.019h-4.571V206.4h.591v-.981h-4.2V201.9h.376v-.753H223.25v-3.328h-1.993V185.938h-.664v11.878h-.806v-6.622h-.664v6.622H217.13v3.328h-2.085v.753h.655v3.522h-4.2v.981h.591v6.127h-4.571v1.019h.642v88.176H84.29v12.026H589.913V301.723Z" transform="translate(-84.29 -155.328)" fill="url(#linear-gradient)"/>
        </g>
        <path id="路径_2987" data-name="路径 2987" d="M568.492,331.464V320.639H553.275l-5.76-42.612h-.864v-5.119h-3.026v5.119h-.75v-1.914h-2.118v1.914h-4.387v-4.462h-1.21v-3.1h-8.623v3.1h-1.21v4.462h-1.21V303.62h-7.664V238.684h-2.521V224.442h-.807v14.241h-1.917V218.928H510.4v19.756h-1.664V227.99h-.807v10.694H493.055v46.092H476.516v29.86H461.07L448.8,292.029a31.825,31.825,0,0,0,5.8-4.283l2.515,2.685a2.566,2.566,0,1,0,.226-.177l-2.533-2.7q.322-.3.636-.619a31.719,31.719,0,0,0,6.325-9l2.8,1.293a2.577,2.577,0,1,0,.086-.275l-2.767-1.278a31.553,31.553,0,0,0,2.824-12l3.016.1a2.576,2.576,0,1,0,.008-.286l-3.015-.1c.008-.3.012-.591.012-.887a31.74,31.74,0,0,0-1.889-10.831l2.519-.928a2.535,2.535,0,1,0-.1-.268l-2.518.927a31.575,31.575,0,0,0-6.488-10.486l1.971-1.847a2.566,2.566,0,1,0-.2-.208l-1.971,1.847q-.3-.322-.619-.636A31.674,31.674,0,0,0,445.2,235.2l1.084-2.639a2.584,2.584,0,1,0-.267-.1l-1.081,2.634a31.617,31.617,0,0,0-10.751-2.287l.117-3.608.082,0a2.574,2.574,0,1,0-.367-.026l-.118,3.623c-.3-.008-.591-.013-.888-.013a31.769,31.769,0,0,0-10.415,1.741l-1.038-2.945a2.606,2.606,0,1,0-.27.093l1.038,2.946a31.539,31.539,0,0,0-10.9,6.64l-1.881-2.008a2.587,2.587,0,1,0-.205.2l1.878,2q-.322.3-.636.619a31.719,31.719,0,0,0-6.325,9l-2.391-1.1a2.571,2.571,0,1,0-.106.266l2.376,1.1a31.567,31.567,0,0,0-2.824,12l-3.069-.1a2.573,2.573,0,1,0-.008.286l3.068.1q-.013.443-.013.888a31.74,31.74,0,0,0,1.889,10.83l-2.519.928a2.546,2.546,0,1,0,.1.268l2.518-.927a31.568,31.568,0,0,0,6.488,10.485l-1.971,1.847a2.566,2.566,0,1,0,.2.208l1.971-1.847q.3.321.619.636a31.923,31.923,0,0,0,6.641,5.1l-12.265,22.607h-9.934V299.31h-4.049v-29.1h1.574v-.633h-34.8v.633h1.575v14.677H355.92l-3.255,16.727V246.752h-1.428V226.885h-7.189V219.32H340.2v-6.353h-1.349V202.075H338.5v10.892h-1.35v6.353h-3.847v7.564h-7.134v19.867h-1.483v36.07H313.629v31.814h-36.7V253.121h2.95v-.968h-2.95V250.42h-3.738v-2.846H242.618v2.846H238.88v1.733h-2.95v.968h2.95v38.294h-5v-7.186H203.027V293H196.3v16.338H185.409v-53.4h-3.631V252.31H178.9V242.7H178.3v9.606h-1.361V240.283h-.605V252.31h-1.673v3.631h-.9v53.4h-22.54V278.027h1.059v-2.118h-6.959v-5.748h-3.328v5.748h-3.026v-5.748h-3.025v5.748h-5.886v-5.748H112.04v5.748h-4.207v2.118h2.392v11.8h-6.656v26.625H94.432v-7.11H84.26v15.506h-12.3v6.616H53.82v18.962H584.7V331.464Zm-120.1-40.19-4.248-7.83a22.156,22.156,0,0,0,3.783-2.817l6.084,6.492A30.893,30.893,0,0,1,448.395,291.273Zm-15.9-25.122a1.754,1.754,0,0,0,.324.069l-.644,19.81a21.4,21.4,0,0,1-7.209-1.544ZM424.7,284.378a21.485,21.485,0,0,1-2.112-1.028l9.452-17.421a1.741,1.741,0,0,0,.191.113Zm8.4-18.148a1.717,1.717,0,0,0,.352-.054l6.589,18.7a21.465,21.465,0,0,1-7.028,1.178q-.28,0-.557-.007Zm.621-.149a1.784,1.784,0,0,0,.27-.151l9.451,17.421a21.533,21.533,0,0,1-3.132,1.425Zm1.591,1.082,12.322,13.151a21.656,21.656,0,0,1-3.695,2.752Zm-.539-.993-.356-.656a1.735,1.735,0,0,0,.1-.16l18,8.307a21.662,21.662,0,0,1-4.671,6.458Zm-.133-1.075a1.7,1.7,0,0,0,.092-.394l19.81.644a21.393,21.393,0,0,1-1.908,8.058Zm.1-.68a1.689,1.689,0,0,0-.061-.375l18.6-6.849a21.447,21.447,0,0,1,1.278,7.311q0,.279-.007.557Zm-.159-.644a1.78,1.78,0,0,0-.213-.345l14.456-13.546a21.591,21.591,0,0,1,4.358,7.042Zm-.408-.553a1.723,1.723,0,0,0-.373-.258l7.53-18.336a21.633,21.633,0,0,1,7.3,5.046Zm-.638-.367a1.756,1.756,0,0,0-.324-.069l.644-19.81a21.389,21.389,0,0,1,7.209,1.544Zm-.61-.079a1.713,1.713,0,0,0-.352.054l-6.589-18.7a21.464,21.464,0,0,1,7.028-1.178q.28,0,.557.007Zm-.621.149a1.742,1.742,0,0,0-.367.223l-13.546-14.456a21.573,21.573,0,0,1,7.324-4.462Zm-.576.419a1.7,1.7,0,0,0-.222.308l-18-8.307a21.663,21.663,0,0,1,4.671-6.458Zm-.343.567a1.705,1.705,0,0,0-.092.394l-19.81-.644a21.393,21.393,0,0,1,1.908-8.058Zm-.1.681a1.731,1.731,0,0,0,.06.374l-18.6,6.849a21.439,21.439,0,0,1-1.278-7.31c0-.186,0-.372.007-.557Zm.159.643a1.763,1.763,0,0,0,.166.282l-.118.217L417.2,279.122a21.58,21.58,0,0,1-4.358-7.042Zm-.385,1.3-8.972,16.538a21.681,21.681,0,0,1-4.691-3.735Zm-8.68,17.2a21.726,21.726,0,0,0,2.154,1.047l-3.382,8.236a30.574,30.574,0,0,1-3.019-1.456Zm2.419,1.156a21.843,21.843,0,0,0,7.359,1.576l-.289,8.883a30.758,30.758,0,0,1-10.452-2.224Zm7.645,1.587c.19,0,.38.008.571.008a21.882,21.882,0,0,0,7.17-1.2l2.959,8.4a30.9,30.9,0,0,1-10.129,1.693c-.287,0-.574,0-.86-.013Zm8.011-1.29a21.883,21.883,0,0,0,3.194-1.453l4.247,7.828a30.514,30.514,0,0,1-4.482,2.021Zm14.382,1.144q-.3.305-.616.6l-6.083-6.492a22.09,22.09,0,0,0,4.767-6.591l8.085,3.732A30.873,30.873,0,0,1,454.839,286.324Zm6.272-9.01-8.084-3.732a21.823,21.823,0,0,0,1.947-8.223l8.884.288A30.711,30.711,0,0,1,461.111,277.314Zm2.767-12.812q0,.43-.012.86l-8.881-.289q.007-.285.007-.571a21.882,21.882,0,0,0-1.3-7.459l8.353-3.075A30.886,30.886,0,0,1,463.878,264.5Zm-8.244-21a30.707,30.707,0,0,1,6.309,10.2l-8.355,3.076a22.011,22.011,0,0,0-4.447-7.187Zm-.8-.825q.3.3.6.617l-6.492,6.083a22.073,22.073,0,0,0-7.45-5.151l3.382-8.236A30.828,30.828,0,0,1,454.839,242.679Zm-20.677-9.019a30.773,30.773,0,0,1,10.452,2.224l-3.382,8.236a21.844,21.844,0,0,0-7.359-1.576Zm-1.145-.02q.43,0,.86.012l-.289,8.881c-.19-.005-.38-.007-.571-.007a21.881,21.881,0,0,0-7.17,1.2l-2.959-8.4A30.9,30.9,0,0,1,433.016,233.64Zm-10.4,1.787,2.959,8.4a22.015,22.015,0,0,0-7.474,4.553l-6.084-6.492A30.693,30.693,0,0,1,422.616,235.427Zm-11.423,7.252q.3-.3.616-.6l6.083,6.491a22.092,22.092,0,0,0-4.767,6.591l-8.085-3.732A30.882,30.882,0,0,1,411.193,242.679Zm-6.272,9.011L413,255.421a21.826,21.826,0,0,0-1.947,8.223l-8.883-.289A30.716,30.716,0,0,1,404.921,251.69ZM402.154,264.5q0-.431.012-.86l8.881.289q-.007.284-.007.571a21.882,21.882,0,0,0,1.3,7.459l-8.353,3.075A30.886,30.886,0,0,1,402.154,264.5Zm8.244,21a30.707,30.707,0,0,1-6.309-10.2l8.355-3.076a22.012,22.012,0,0,0,4.447,7.187Zm.8.825q-.3-.3-.6-.616l6.492-6.083a22.127,22.127,0,0,0,4.8,3.819l-4.248,7.83A30.993,30.993,0,0,1,411.193,286.324Zm6.532,5.986a31.327,31.327,0,0,0,3.1,1.495l-1.084,2.64a2.577,2.577,0,1,0,.267.1l1.081-2.633a31.617,31.617,0,0,0,10.751,2.287l-.088,2.7a2.571,2.571,0,1,0,.286.009l.087-2.7q.443.012.888.013a31.77,31.77,0,0,0,10.415-1.741l.925,2.624a2.595,2.595,0,1,0,.266-.107l-.921-2.612a31.364,31.364,0,0,0,4.606-2.076l12.113,22.326H405.613Z" transform="translate(-46.962 -174.243)" fill="url(#linear-gradient-4)"/>
        <g id="组_2045" data-name="组 2045" transform="translate(0 77.3)">
          <path id="路径_2988" data-name="路径 2988" d="M816.023,285.882a.613.613,0,1,0-.6.72A.669.669,0,0,0,816.023,285.882Z" transform="translate(-354.884 -285.163)" fill="url(#linear-gradient-5)"/>
          <path id="路径_2989" data-name="路径 2989" d="M569.265,374.3l-3.748-25.068h-7.665v-20.8h.948V326.55h-3.721v-8.1h-.454v8.1h-2.572v-6.638H551.6v6.638H536.1v1.882h1.059v42.206h-17.7V351.733h-10.08V305.276h.922V303h-2.013v-2.918h-2.317v-7.328h-2.8V287.58H502.5v5.172h-1.507l-.911,2.895h-6.1v4.433H478.017V303H476v2.279h.922V335.5H463.567v29.7l-14.823-6.568V329.808h2.392V327.69h-4.207v-5.748H428.912v5.748h-5.886v-5.748H420v5.748h-3.026v-5.748h-3.328v5.748h-6.959v2.118h1.059v39.956H400.99v-.419h-1.223V357.958h1.223v-.913h-1.223V345.658h1.223v-.913h-1.223V333.359h1.223v-.913h-1.223V321.06h1.223v-.913h-1.223V308.761h1.223v-.913h-1.223V296.064h2.1v-.916h1.066v-2.5h-19.9v-2.778h.647v-.8H372.841v.8h.647v2.778h-4.932v2.5h1.066v.916h2.1v11.783h-1.223v.913h1.223v11.386h-1.223v.913h1.223v11.386h-1.223v.913h1.223v11.386h-1.223v.913h1.223v11.386h-1.223v.913h1.223v11.386h-1.223v.913h1.223v9.3h-6.792V343.607H337.594v26.156h-4.437V288.284h-3.283v2.1l-6.058,1.482V290.5h-3.283v2.165l-6.058,1.482v-1.562h-3.283v2.365l-6.058,1.482v-1.289H301.85v2.092l-6.058,1.482v-1.11h-3.283v80.014H287.89V334.964H270.783V361.2H253.245V338.826h-2.16V331.48h1.282v-.738h-5.676v-2.31h-.605v2.31h-1.815V318.885h-.454v11.857h-2.364v.738h1.391v7.346H231.27V355.89H220l-5.885,21.731H202.308V306.669H186.674v-2.542h.888v-.892H175.721v.892h.931V359.35H169.28V340.99H171.9v-1.662H153.352V328.236h-3.539v-2.279h-7.9v2.279h-6.427v39.6H114.4V338.467H96.652v23.2H81.245v14.844H70.136V357.851H55.528v15.91H42.3v11.262h545V374.3Z" transform="translate(-42.301 -286.141)" fill="url(#linear-gradient-6)"/>
        </g>
      </g>
      <g id="组_2048" data-name="组 2048" transform="translate(918.493)">
        <g id="组_2044-3" data-name="组 2044" transform="translate(24.999)" opacity="0.3">
          <path id="路径_2984-2" data-name="路径 2984" d="M174.294,327.15h38.66V247.4h1.1v-2.279h-2.4v-2.918H192.633v-4.433h-7.267l-1.085-2.895h-1.8v-5.172h-.8v5.172h-3.331v7.328h-2.76v2.918h-2.4V247.4h1.1Z" transform="translate(-120.264 -185.423)" fill="url(#linear-gradient)"/>
          <path id="路径_2985-2" data-name="路径 2985" d="M188.357,228.009a.72.72,0,1,0-.719.719A.719.719,0,0,0,188.357,228.009Z" transform="translate(-125.817 -184.445)" fill="url(#linear-gradient)"/>
          <path id="路径_2986-2" data-name="路径 2986" d="M497.119,301.723V194.51l-47.6-9.88,5.215,117.093H315.064v-66.24h-2.571V195.844h-6.637V185.227h-2.371V169.654H290.422V158.209h-1.162v11.445H286.7V155.328h-1.162v14.327H277.28v26.19h-4.266v39.639h-3.657v66.24H232.214V213.547h.642v-1.019h-4.571V206.4h.591v-.981h-4.2V201.9h.376v-.753H223.25v-3.328h-1.993V185.938h-.664v11.878h-.806v-6.622h-.664v6.622H217.13v3.328h-2.085v.753h.655v3.522h-4.2v.981h.591v6.127h-4.571v1.019h.642v88.176H84.29v12.026H589.913V301.723Z" transform="translate(-84.29 -155.328)" fill="url(#linear-gradient)"/>
        </g>
        <path id="路径_2987-2" data-name="路径 2987" d="M568.492,331.464V320.639H553.275l-5.76-42.612h-.864v-5.119h-3.026v5.119h-.75v-1.914h-2.118v1.914h-4.387v-4.462h-1.21v-3.1h-8.623v3.1h-1.21v4.462h-1.21V303.62h-7.664V238.684h-2.521V224.442h-.807v14.241h-1.917V218.928H510.4v19.756h-1.664V227.99h-.807v10.694H493.055v46.092H476.516v29.86H461.07L448.8,292.029a31.825,31.825,0,0,0,5.8-4.283l2.515,2.685a2.566,2.566,0,1,0,.226-.177l-2.533-2.7q.322-.3.636-.619a31.719,31.719,0,0,0,6.325-9l2.8,1.293a2.577,2.577,0,1,0,.086-.275l-2.767-1.278a31.553,31.553,0,0,0,2.824-12l3.016.1a2.576,2.576,0,1,0,.008-.286l-3.015-.1c.008-.3.012-.591.012-.887a31.74,31.74,0,0,0-1.889-10.831l2.519-.928a2.535,2.535,0,1,0-.1-.268l-2.518.927a31.575,31.575,0,0,0-6.488-10.486l1.971-1.847a2.566,2.566,0,1,0-.2-.208l-1.971,1.847q-.3-.322-.619-.636A31.674,31.674,0,0,0,445.2,235.2l1.084-2.639a2.584,2.584,0,1,0-.267-.1l-1.081,2.634a31.617,31.617,0,0,0-10.751-2.287l.117-3.608.082,0a2.574,2.574,0,1,0-.367-.026l-.118,3.623c-.3-.008-.591-.013-.888-.013a31.769,31.769,0,0,0-10.415,1.741l-1.038-2.945a2.606,2.606,0,1,0-.27.093l1.038,2.946a31.539,31.539,0,0,0-10.9,6.64l-1.881-2.008a2.587,2.587,0,1,0-.205.2l1.878,2q-.322.3-.636.619a31.719,31.719,0,0,0-6.325,9l-2.391-1.1a2.571,2.571,0,1,0-.106.266l2.376,1.1a31.567,31.567,0,0,0-2.824,12l-3.069-.1a2.573,2.573,0,1,0-.008.286l3.068.1q-.013.443-.013.888a31.74,31.74,0,0,0,1.889,10.83l-2.519.928a2.546,2.546,0,1,0,.1.268l2.518-.927a31.568,31.568,0,0,0,6.488,10.485l-1.971,1.847a2.566,2.566,0,1,0,.2.208l1.971-1.847q.3.321.619.636a31.923,31.923,0,0,0,6.641,5.1l-12.265,22.607h-9.934V299.31h-4.049v-29.1h1.574v-.633h-34.8v.633h1.575v14.677H355.92l-3.255,16.727V246.752h-1.428V226.885h-7.189V219.32H340.2v-6.353h-1.349V202.075H338.5v10.892h-1.35v6.353h-3.847v7.564h-7.134v19.867h-1.483v36.07H313.629v31.814h-36.7V253.121h2.95v-.968h-2.95V250.42h-3.738v-2.846H242.618v2.846H238.88v1.733h-2.95v.968h2.95v38.294h-5v-7.186H203.027V293H196.3v16.338H185.409v-53.4h-3.631V252.31H178.9V242.7H178.3v9.606h-1.361V240.283h-.605V252.31h-1.673v3.631h-.9v53.4h-22.54V278.027h1.059v-2.118h-6.959v-5.748h-3.328v5.748h-3.026v-5.748h-3.025v5.748h-5.886v-5.748H112.04v5.748h-4.207v2.118h2.392v11.8h-6.656v26.625H94.432v-7.11H84.26v15.506h-12.3v6.616H53.82v18.962H584.7V331.464Zm-120.1-40.19-4.248-7.83a22.156,22.156,0,0,0,3.783-2.817l6.084,6.492A30.893,30.893,0,0,1,448.395,291.273Zm-15.9-25.122a1.754,1.754,0,0,0,.324.069l-.644,19.81a21.4,21.4,0,0,1-7.209-1.544ZM424.7,284.378a21.485,21.485,0,0,1-2.112-1.028l9.452-17.421a1.741,1.741,0,0,0,.191.113Zm8.4-18.148a1.717,1.717,0,0,0,.352-.054l6.589,18.7a21.465,21.465,0,0,1-7.028,1.178q-.28,0-.557-.007Zm.621-.149a1.784,1.784,0,0,0,.27-.151l9.451,17.421a21.533,21.533,0,0,1-3.132,1.425Zm1.591,1.082,12.322,13.151a21.656,21.656,0,0,1-3.695,2.752Zm-.539-.993-.356-.656a1.735,1.735,0,0,0,.1-.16l18,8.307a21.662,21.662,0,0,1-4.671,6.458Zm-.133-1.075a1.7,1.7,0,0,0,.092-.394l19.81.644a21.393,21.393,0,0,1-1.908,8.058Zm.1-.68a1.689,1.689,0,0,0-.061-.375l18.6-6.849a21.447,21.447,0,0,1,1.278,7.311q0,.279-.007.557Zm-.159-.644a1.78,1.78,0,0,0-.213-.345l14.456-13.546a21.591,21.591,0,0,1,4.358,7.042Zm-.408-.553a1.723,1.723,0,0,0-.373-.258l7.53-18.336a21.633,21.633,0,0,1,7.3,5.046Zm-.638-.367a1.756,1.756,0,0,0-.324-.069l.644-19.81a21.389,21.389,0,0,1,7.209,1.544Zm-.61-.079a1.713,1.713,0,0,0-.352.054l-6.589-18.7a21.464,21.464,0,0,1,7.028-1.178q.28,0,.557.007Zm-.621.149a1.742,1.742,0,0,0-.367.223l-13.546-14.456a21.573,21.573,0,0,1,7.324-4.462Zm-.576.419a1.7,1.7,0,0,0-.222.308l-18-8.307a21.663,21.663,0,0,1,4.671-6.458Zm-.343.567a1.705,1.705,0,0,0-.092.394l-19.81-.644a21.393,21.393,0,0,1,1.908-8.058Zm-.1.681a1.731,1.731,0,0,0,.06.374l-18.6,6.849a21.439,21.439,0,0,1-1.278-7.31c0-.186,0-.372.007-.557Zm.159.643a1.763,1.763,0,0,0,.166.282l-.118.217L417.2,279.122a21.58,21.58,0,0,1-4.358-7.042Zm-.385,1.3-8.972,16.538a21.681,21.681,0,0,1-4.691-3.735Zm-8.68,17.2a21.726,21.726,0,0,0,2.154,1.047l-3.382,8.236a30.574,30.574,0,0,1-3.019-1.456Zm2.419,1.156a21.843,21.843,0,0,0,7.359,1.576l-.289,8.883a30.758,30.758,0,0,1-10.452-2.224Zm7.645,1.587c.19,0,.38.008.571.008a21.882,21.882,0,0,0,7.17-1.2l2.959,8.4a30.9,30.9,0,0,1-10.129,1.693c-.287,0-.574,0-.86-.013Zm8.011-1.29a21.883,21.883,0,0,0,3.194-1.453l4.247,7.828a30.514,30.514,0,0,1-4.482,2.021Zm14.382,1.144q-.3.305-.616.6l-6.083-6.492a22.09,22.09,0,0,0,4.767-6.591l8.085,3.732A30.873,30.873,0,0,1,454.839,286.324Zm6.272-9.01-8.084-3.732a21.823,21.823,0,0,0,1.947-8.223l8.884.288A30.711,30.711,0,0,1,461.111,277.314Zm2.767-12.812q0,.43-.012.86l-8.881-.289q.007-.285.007-.571a21.882,21.882,0,0,0-1.3-7.459l8.353-3.075A30.886,30.886,0,0,1,463.878,264.5Zm-8.244-21a30.707,30.707,0,0,1,6.309,10.2l-8.355,3.076a22.011,22.011,0,0,0-4.447-7.187Zm-.8-.825q.3.3.6.617l-6.492,6.083a22.073,22.073,0,0,0-7.45-5.151l3.382-8.236A30.828,30.828,0,0,1,454.839,242.679Zm-20.677-9.019a30.773,30.773,0,0,1,10.452,2.224l-3.382,8.236a21.844,21.844,0,0,0-7.359-1.576Zm-1.145-.02q.43,0,.86.012l-.289,8.881c-.19-.005-.38-.007-.571-.007a21.881,21.881,0,0,0-7.17,1.2l-2.959-8.4A30.9,30.9,0,0,1,433.016,233.64Zm-10.4,1.787,2.959,8.4a22.015,22.015,0,0,0-7.474,4.553l-6.084-6.492A30.693,30.693,0,0,1,422.616,235.427Zm-11.423,7.252q.3-.3.616-.6l6.083,6.491a22.092,22.092,0,0,0-4.767,6.591l-8.085-3.732A30.882,30.882,0,0,1,411.193,242.679Zm-6.272,9.011L413,255.421a21.826,21.826,0,0,0-1.947,8.223l-8.883-.289A30.716,30.716,0,0,1,404.921,251.69ZM402.154,264.5q0-.431.012-.86l8.881.289q-.007.284-.007.571a21.882,21.882,0,0,0,1.3,7.459l-8.353,3.075A30.886,30.886,0,0,1,402.154,264.5Zm8.244,21a30.707,30.707,0,0,1-6.309-10.2l8.355-3.076a22.012,22.012,0,0,0,4.447,7.187Zm.8.825q-.3-.3-.6-.616l6.492-6.083a22.127,22.127,0,0,0,4.8,3.819l-4.248,7.83A30.993,30.993,0,0,1,411.193,286.324Zm6.532,5.986a31.327,31.327,0,0,0,3.1,1.495l-1.084,2.64a2.577,2.577,0,1,0,.267.1l1.081-2.633a31.617,31.617,0,0,0,10.751,2.287l-.088,2.7a2.571,2.571,0,1,0,.286.009l.087-2.7q.443.012.888.013a31.77,31.77,0,0,0,10.415-1.741l.925,2.624a2.595,2.595,0,1,0,.266-.107l-.921-2.612a31.364,31.364,0,0,0,4.606-2.076l12.113,22.326H405.613Z" transform="translate(-46.962 -174.243)" fill="url(#linear-gradient-4)"/>
        <g id="组_2045-2" data-name="组 2045" transform="translate(0 77.3)">
          <path id="路径_2988-2" data-name="路径 2988" d="M816.023,285.882a.613.613,0,1,0-.6.72A.669.669,0,0,0,816.023,285.882Z" transform="translate(-354.884 -285.163)" fill="url(#linear-gradient-5)"/>
          <path id="路径_2989-2" data-name="路径 2989" d="M569.265,374.3l-3.748-25.068h-7.665v-20.8h.948V326.55h-3.721v-8.1h-.454v8.1h-2.572v-6.638H551.6v6.638H536.1v1.882h1.059v42.206h-17.7V351.733h-10.08V305.276h.922V303h-2.013v-2.918h-2.317v-7.328h-2.8V287.58H502.5v5.172h-1.507l-.911,2.895h-6.1v4.433H478.017V303H476v2.279h.922V335.5H463.567v29.7l-14.823-6.568V329.808h2.392V327.69h-4.207v-5.748H428.912v5.748h-5.886v-5.748H420v5.748h-3.026v-5.748h-3.328v5.748h-6.959v2.118h1.059v39.956H400.99v-.419h-1.223V357.958h1.223v-.913h-1.223V345.658h1.223v-.913h-1.223V333.359h1.223v-.913h-1.223V321.06h1.223v-.913h-1.223V308.761h1.223v-.913h-1.223V296.064h2.1v-.916h1.066v-2.5h-19.9v-2.778h.647v-.8H372.841v.8h.647v2.778h-4.932v2.5h1.066v.916h2.1v11.783h-1.223v.913h1.223v11.386h-1.223v.913h1.223v11.386h-1.223v.913h1.223v11.386h-1.223v.913h1.223v11.386h-1.223v.913h1.223v11.386h-1.223v.913h1.223v9.3h-6.792V343.607H337.594v26.156h-4.437V288.284h-3.283v2.1l-6.058,1.482V290.5h-3.283v2.165l-6.058,1.482v-1.562h-3.283v2.365l-6.058,1.482v-1.289H301.85v2.092l-6.058,1.482v-1.11h-3.283v80.014H287.89V334.964H270.783V361.2H253.245V338.826h-2.16V331.48h1.282v-.738h-5.676v-2.31h-.605v2.31h-1.815V318.885h-.454v11.857h-2.364v.738h1.391v7.346H231.27V355.89H220l-5.885,21.731H202.308V306.669H186.674v-2.542h.888v-.892H175.721v.892h.931V359.35H169.28V340.99H171.9v-1.662H153.352V328.236h-3.539v-2.279h-7.9v2.279h-6.427v39.6H114.4V338.467H96.652v23.2H81.245v14.844H70.136V357.851H55.528v15.91H42.3v11.262h545V374.3Z" transform="translate(-42.301 -286.141)" fill="url(#linear-gradient-6)"/>
        </g>
      </g>
      <g id="组_2046" data-name="组 2046" transform="translate(456.507)">
        <g id="组_2044-4" data-name="组 2044" transform="translate(24.999)" opacity="0.3">
          <path id="路径_2984-3" data-name="路径 2984" d="M174.294,327.15h38.66V247.4h1.1v-2.279h-2.4v-2.918H192.633v-4.433h-7.267l-1.085-2.895h-1.8v-5.172h-.8v5.172h-3.331v7.328h-2.76v2.918h-2.4V247.4h1.1Z" transform="translate(-120.264 -185.423)" fill="url(#linear-gradient)"/>
          <path id="路径_2985-3" data-name="路径 2985" d="M188.357,228.009a.72.72,0,1,0-.719.719A.719.719,0,0,0,188.357,228.009Z" transform="translate(-125.817 -184.445)" fill="url(#linear-gradient)"/>
          <path id="路径_2986-3" data-name="路径 2986" d="M497.119,301.723V194.51l-47.6-9.88,5.215,117.093H315.064v-66.24h-2.571V195.844h-6.637V185.227h-2.371V169.654H290.422V158.209h-1.162v11.445H286.7V155.328h-1.162v14.327H277.28v26.19h-4.266v39.639h-3.657v66.24H232.214V213.547h.642v-1.019h-4.571V206.4h.591v-.981h-4.2V201.9h.376v-.753H223.25v-3.328h-1.993V185.938h-.664v11.878h-.806v-6.622h-.664v6.622H217.13v3.328h-2.085v.753h.655v3.522h-4.2v.981h.591v6.127h-4.571v1.019h.642v88.176H84.29v12.026H589.913V301.723Z" transform="translate(-84.29 -155.328)" fill="url(#linear-gradient)"/>
        </g>
        <path id="路径_2987-3" data-name="路径 2987" d="M568.492,331.464V320.639H553.275l-5.76-42.612h-.864v-5.119h-3.026v5.119h-.75v-1.914h-2.118v1.914h-4.387v-4.462h-1.21v-3.1h-8.623v3.1h-1.21v4.462h-1.21V303.62h-7.664V238.684h-2.521V224.442h-.807v14.241h-1.917V218.928H510.4v19.756h-1.664V227.99h-.807v10.694H493.055v46.092H476.516v29.86H461.07L448.8,292.029a31.825,31.825,0,0,0,5.8-4.283l2.515,2.685a2.566,2.566,0,1,0,.226-.177l-2.533-2.7q.322-.3.636-.619a31.719,31.719,0,0,0,6.325-9l2.8,1.293a2.577,2.577,0,1,0,.086-.275l-2.767-1.278a31.553,31.553,0,0,0,2.824-12l3.016.1a2.576,2.576,0,1,0,.008-.286l-3.015-.1c.008-.3.012-.591.012-.887a31.74,31.74,0,0,0-1.889-10.831l2.519-.928a2.535,2.535,0,1,0-.1-.268l-2.518.927a31.575,31.575,0,0,0-6.488-10.486l1.971-1.847a2.566,2.566,0,1,0-.2-.208l-1.971,1.847q-.3-.322-.619-.636A31.674,31.674,0,0,0,445.2,235.2l1.084-2.639a2.584,2.584,0,1,0-.267-.1l-1.081,2.634a31.617,31.617,0,0,0-10.751-2.287l.117-3.608.082,0a2.574,2.574,0,1,0-.367-.026l-.118,3.623c-.3-.008-.591-.013-.888-.013a31.769,31.769,0,0,0-10.415,1.741l-1.038-2.945a2.606,2.606,0,1,0-.27.093l1.038,2.946a31.539,31.539,0,0,0-10.9,6.64l-1.881-2.008a2.587,2.587,0,1,0-.205.2l1.878,2q-.322.3-.636.619a31.719,31.719,0,0,0-6.325,9l-2.391-1.1a2.571,2.571,0,1,0-.106.266l2.376,1.1a31.567,31.567,0,0,0-2.824,12l-3.069-.1a2.573,2.573,0,1,0-.008.286l3.068.1q-.013.443-.013.888a31.74,31.74,0,0,0,1.889,10.83l-2.519.928a2.546,2.546,0,1,0,.1.268l2.518-.927a31.568,31.568,0,0,0,6.488,10.485l-1.971,1.847a2.566,2.566,0,1,0,.2.208l1.971-1.847q.3.321.619.636a31.923,31.923,0,0,0,6.641,5.1l-12.265,22.607h-9.934V299.31h-4.049v-29.1h1.574v-.633h-34.8v.633h1.575v14.677H355.92l-3.255,16.727V246.752h-1.428V226.885h-7.189V219.32H340.2v-6.353h-1.349V202.075H338.5v10.892h-1.35v6.353h-3.847v7.564h-7.134v19.867h-1.483v36.07H313.629v31.814h-36.7V253.121h2.95v-.968h-2.95V250.42h-3.738v-2.846H242.618v2.846H238.88v1.733h-2.95v.968h2.95v38.294h-5v-7.186H203.027V293H196.3v16.338H185.409v-53.4h-3.631V252.31H178.9V242.7H178.3v9.606h-1.361V240.283h-.605V252.31h-1.673v3.631h-.9v53.4h-22.54V278.027h1.059v-2.118h-6.959v-5.748h-3.328v5.748h-3.026v-5.748h-3.025v5.748h-5.886v-5.748H112.04v5.748h-4.207v2.118h2.392v11.8h-6.656v26.625H94.432v-7.11H84.26v15.506h-12.3v6.616H53.82v18.962H584.7V331.464Zm-120.1-40.19-4.248-7.83a22.156,22.156,0,0,0,3.783-2.817l6.084,6.492A30.893,30.893,0,0,1,448.395,291.273Zm-15.9-25.122a1.754,1.754,0,0,0,.324.069l-.644,19.81a21.4,21.4,0,0,1-7.209-1.544ZM424.7,284.378a21.485,21.485,0,0,1-2.112-1.028l9.452-17.421a1.741,1.741,0,0,0,.191.113Zm8.4-18.148a1.717,1.717,0,0,0,.352-.054l6.589,18.7a21.465,21.465,0,0,1-7.028,1.178q-.28,0-.557-.007Zm.621-.149a1.784,1.784,0,0,0,.27-.151l9.451,17.421a21.533,21.533,0,0,1-3.132,1.425Zm1.591,1.082,12.322,13.151a21.656,21.656,0,0,1-3.695,2.752Zm-.539-.993-.356-.656a1.735,1.735,0,0,0,.1-.16l18,8.307a21.662,21.662,0,0,1-4.671,6.458Zm-.133-1.075a1.7,1.7,0,0,0,.092-.394l19.81.644a21.393,21.393,0,0,1-1.908,8.058Zm.1-.68a1.689,1.689,0,0,0-.061-.375l18.6-6.849a21.447,21.447,0,0,1,1.278,7.311q0,.279-.007.557Zm-.159-.644a1.78,1.78,0,0,0-.213-.345l14.456-13.546a21.591,21.591,0,0,1,4.358,7.042Zm-.408-.553a1.723,1.723,0,0,0-.373-.258l7.53-18.336a21.633,21.633,0,0,1,7.3,5.046Zm-.638-.367a1.756,1.756,0,0,0-.324-.069l.644-19.81a21.389,21.389,0,0,1,7.209,1.544Zm-.61-.079a1.713,1.713,0,0,0-.352.054l-6.589-18.7a21.464,21.464,0,0,1,7.028-1.178q.28,0,.557.007Zm-.621.149a1.742,1.742,0,0,0-.367.223l-13.546-14.456a21.573,21.573,0,0,1,7.324-4.462Zm-.576.419a1.7,1.7,0,0,0-.222.308l-18-8.307a21.663,21.663,0,0,1,4.671-6.458Zm-.343.567a1.705,1.705,0,0,0-.092.394l-19.81-.644a21.393,21.393,0,0,1,1.908-8.058Zm-.1.681a1.731,1.731,0,0,0,.06.374l-18.6,6.849a21.439,21.439,0,0,1-1.278-7.31c0-.186,0-.372.007-.557Zm.159.643a1.763,1.763,0,0,0,.166.282l-.118.217L417.2,279.122a21.58,21.58,0,0,1-4.358-7.042Zm-.385,1.3-8.972,16.538a21.681,21.681,0,0,1-4.691-3.735Zm-8.68,17.2a21.726,21.726,0,0,0,2.154,1.047l-3.382,8.236a30.574,30.574,0,0,1-3.019-1.456Zm2.419,1.156a21.843,21.843,0,0,0,7.359,1.576l-.289,8.883a30.758,30.758,0,0,1-10.452-2.224Zm7.645,1.587c.19,0,.38.008.571.008a21.882,21.882,0,0,0,7.17-1.2l2.959,8.4a30.9,30.9,0,0,1-10.129,1.693c-.287,0-.574,0-.86-.013Zm8.011-1.29a21.883,21.883,0,0,0,3.194-1.453l4.247,7.828a30.514,30.514,0,0,1-4.482,2.021Zm14.382,1.144q-.3.305-.616.6l-6.083-6.492a22.09,22.09,0,0,0,4.767-6.591l8.085,3.732A30.873,30.873,0,0,1,454.839,286.324Zm6.272-9.01-8.084-3.732a21.823,21.823,0,0,0,1.947-8.223l8.884.288A30.711,30.711,0,0,1,461.111,277.314Zm2.767-12.812q0,.43-.012.86l-8.881-.289q.007-.285.007-.571a21.882,21.882,0,0,0-1.3-7.459l8.353-3.075A30.886,30.886,0,0,1,463.878,264.5Zm-8.244-21a30.707,30.707,0,0,1,6.309,10.2l-8.355,3.076a22.011,22.011,0,0,0-4.447-7.187Zm-.8-.825q.3.3.6.617l-6.492,6.083a22.073,22.073,0,0,0-7.45-5.151l3.382-8.236A30.828,30.828,0,0,1,454.839,242.679Zm-20.677-9.019a30.773,30.773,0,0,1,10.452,2.224l-3.382,8.236a21.844,21.844,0,0,0-7.359-1.576Zm-1.145-.02q.43,0,.86.012l-.289,8.881c-.19-.005-.38-.007-.571-.007a21.881,21.881,0,0,0-7.17,1.2l-2.959-8.4A30.9,30.9,0,0,1,433.016,233.64Zm-10.4,1.787,2.959,8.4a22.015,22.015,0,0,0-7.474,4.553l-6.084-6.492A30.693,30.693,0,0,1,422.616,235.427Zm-11.423,7.252q.3-.3.616-.6l6.083,6.491a22.092,22.092,0,0,0-4.767,6.591l-8.085-3.732A30.882,30.882,0,0,1,411.193,242.679Zm-6.272,9.011L413,255.421a21.826,21.826,0,0,0-1.947,8.223l-8.883-.289A30.716,30.716,0,0,1,404.921,251.69ZM402.154,264.5q0-.431.012-.86l8.881.289q-.007.284-.007.571a21.882,21.882,0,0,0,1.3,7.459l-8.353,3.075A30.886,30.886,0,0,1,402.154,264.5Zm8.244,21a30.707,30.707,0,0,1-6.309-10.2l8.355-3.076a22.012,22.012,0,0,0,4.447,7.187Zm.8.825q-.3-.3-.6-.616l6.492-6.083a22.127,22.127,0,0,0,4.8,3.819l-4.248,7.83A30.993,30.993,0,0,1,411.193,286.324Zm6.532,5.986a31.327,31.327,0,0,0,3.1,1.495l-1.084,2.64a2.577,2.577,0,1,0,.267.1l1.081-2.633a31.617,31.617,0,0,0,10.751,2.287l-.088,2.7a2.571,2.571,0,1,0,.286.009l.087-2.7q.443.012.888.013a31.77,31.77,0,0,0,10.415-1.741l.925,2.624a2.595,2.595,0,1,0,.266-.107l-.921-2.612a31.364,31.364,0,0,0,4.606-2.076l12.113,22.326H405.613Z" transform="translate(-46.962 -174.243)" fill="url(#linear-gradient-4)"/>
        <g id="组_2045-3" data-name="组 2045" transform="translate(0 77.3)">
          <path id="路径_2988-3" data-name="路径 2988" d="M816.023,285.882a.613.613,0,1,0-.6.72A.669.669,0,0,0,816.023,285.882Z" transform="translate(-354.884 -285.163)" fill="url(#linear-gradient-5)"/>
          <path id="路径_2989-3" data-name="路径 2989" d="M569.265,374.3l-3.748-25.068h-7.665v-20.8h.948V326.55h-3.721v-8.1h-.454v8.1h-2.572v-6.638H551.6v6.638H536.1v1.882h1.059v42.206h-17.7V351.733h-10.08V305.276h.922V303h-2.013v-2.918h-2.317v-7.328h-2.8V287.58H502.5v5.172h-1.507l-.911,2.895h-6.1v4.433H478.017V303H476v2.279h.922V335.5H463.567v29.7l-14.823-6.568V329.808h2.392V327.69h-4.207v-5.748H428.912v5.748h-5.886v-5.748H420v5.748h-3.026v-5.748h-3.328v5.748h-6.959v2.118h1.059v39.956H400.99v-.419h-1.223V357.958h1.223v-.913h-1.223V345.658h1.223v-.913h-1.223V333.359h1.223v-.913h-1.223V321.06h1.223v-.913h-1.223V308.761h1.223v-.913h-1.223V296.064h2.1v-.916h1.066v-2.5h-19.9v-2.778h.647v-.8H372.841v.8h.647v2.778h-4.932v2.5h1.066v.916h2.1v11.783h-1.223v.913h1.223v11.386h-1.223v.913h1.223v11.386h-1.223v.913h1.223v11.386h-1.223v.913h1.223v11.386h-1.223v.913h1.223v11.386h-1.223v.913h1.223v9.3h-6.792V343.607H337.594v26.156h-4.437V288.284h-3.283v2.1l-6.058,1.482V290.5h-3.283v2.165l-6.058,1.482v-1.562h-3.283v2.365l-6.058,1.482v-1.289H301.85v2.092l-6.058,1.482v-1.11h-3.283v80.014H287.89V334.964H270.783V361.2H253.245V338.826h-2.16V331.48h1.282v-.738h-5.676v-2.31h-.605v2.31h-1.815V318.885h-.454v11.857h-2.364v.738h1.391v7.346H231.27V355.89H220l-5.885,21.731H202.308V306.669H186.674v-2.542h.888v-.892H175.721v.892h.931V359.35H169.28V340.99H171.9v-1.662H153.352V328.236h-3.539v-2.279h-7.9v2.279h-6.427v39.6H114.4V338.467H96.652v23.2H81.245v14.844H70.136V357.851H55.528v15.91H42.3v11.262h545V374.3Z" transform="translate(-42.301 -286.141)" fill="url(#linear-gradient-6)"/>
        </g>
      </g>
      <g id="组_2047" data-name="组 2047" transform="translate(1375)">
        <g id="组_2044-5" data-name="组 2044" transform="translate(24.999)" opacity="0.3">
          <path id="路径_2984-4" data-name="路径 2984" d="M174.294,327.15h38.66V247.4h1.1v-2.279h-2.4v-2.918H192.633v-4.433h-7.267l-1.085-2.895h-1.8v-5.172h-.8v5.172h-3.331v7.328h-2.76v2.918h-2.4V247.4h1.1Z" transform="translate(-120.264 -185.423)" fill="url(#linear-gradient)"/>
          <path id="路径_2985-4" data-name="路径 2985" d="M188.357,228.009a.72.72,0,1,0-.719.719A.719.719,0,0,0,188.357,228.009Z" transform="translate(-125.817 -184.445)" fill="url(#linear-gradient)"/>
          <path id="路径_2986-4" data-name="路径 2986" d="M497.119,301.723V194.51l-47.6-9.88,5.215,117.093H315.064v-66.24h-2.571V195.844h-6.637V185.227h-2.371V169.654H290.422V158.209h-1.162v11.445H286.7V155.328h-1.162v14.327H277.28v26.19h-4.266v39.639h-3.657v66.24H232.214V213.547h.642v-1.019h-4.571V206.4h.591v-.981h-4.2V201.9h.376v-.753H223.25v-3.328h-1.993V185.938h-.664v11.878h-.806v-6.622h-.664v6.622H217.13v3.328h-2.085v.753h.655v3.522h-4.2v.981h.591v6.127h-4.571v1.019h.642v88.176H84.29v12.026H589.913V301.723Z" transform="translate(-84.29 -155.328)" fill="url(#linear-gradient)"/>
        </g>
        <path id="路径_2987-4" data-name="路径 2987" d="M568.492,331.464V320.639H553.275l-5.76-42.612h-.864v-5.119h-3.026v5.119h-.75v-1.914h-2.118v1.914h-4.387v-4.462h-1.21v-3.1h-8.623v3.1h-1.21v4.462h-1.21V303.62h-7.664V238.684h-2.521V224.442h-.807v14.241h-1.917V218.928H510.4v19.756h-1.664V227.99h-.807v10.694H493.055v46.092H476.516v29.86H461.07L448.8,292.029a31.825,31.825,0,0,0,5.8-4.283l2.515,2.685a2.566,2.566,0,1,0,.226-.177l-2.533-2.7q.322-.3.636-.619a31.719,31.719,0,0,0,6.325-9l2.8,1.293a2.577,2.577,0,1,0,.086-.275l-2.767-1.278a31.553,31.553,0,0,0,2.824-12l3.016.1a2.576,2.576,0,1,0,.008-.286l-3.015-.1c.008-.3.012-.591.012-.887a31.74,31.74,0,0,0-1.889-10.831l2.519-.928a2.535,2.535,0,1,0-.1-.268l-2.518.927a31.575,31.575,0,0,0-6.488-10.486l1.971-1.847a2.566,2.566,0,1,0-.2-.208l-1.971,1.847q-.3-.322-.619-.636A31.674,31.674,0,0,0,445.2,235.2l1.084-2.639a2.584,2.584,0,1,0-.267-.1l-1.081,2.634a31.617,31.617,0,0,0-10.751-2.287l.117-3.608.082,0a2.574,2.574,0,1,0-.367-.026l-.118,3.623c-.3-.008-.591-.013-.888-.013a31.769,31.769,0,0,0-10.415,1.741l-1.038-2.945a2.606,2.606,0,1,0-.27.093l1.038,2.946a31.539,31.539,0,0,0-10.9,6.64l-1.881-2.008a2.587,2.587,0,1,0-.205.2l1.878,2q-.322.3-.636.619a31.719,31.719,0,0,0-6.325,9l-2.391-1.1a2.571,2.571,0,1,0-.106.266l2.376,1.1a31.567,31.567,0,0,0-2.824,12l-3.069-.1a2.573,2.573,0,1,0-.008.286l3.068.1q-.013.443-.013.888a31.74,31.74,0,0,0,1.889,10.83l-2.519.928a2.546,2.546,0,1,0,.1.268l2.518-.927a31.568,31.568,0,0,0,6.488,10.485l-1.971,1.847a2.566,2.566,0,1,0,.2.208l1.971-1.847q.3.321.619.636a31.923,31.923,0,0,0,6.641,5.1l-12.265,22.607h-9.934V299.31h-4.049v-29.1h1.574v-.633h-34.8v.633h1.575v14.677H355.92l-3.255,16.727V246.752h-1.428V226.885h-7.189V219.32H340.2v-6.353h-1.349V202.075H338.5v10.892h-1.35v6.353h-3.847v7.564h-7.134v19.867h-1.483v36.07H313.629v31.814h-36.7V253.121h2.95v-.968h-2.95V250.42h-3.738v-2.846H242.618v2.846H238.88v1.733h-2.95v.968h2.95v38.294h-5v-7.186H203.027V293H196.3v16.338H185.409v-53.4h-3.631V252.31H178.9V242.7H178.3v9.606h-1.361V240.283h-.605V252.31h-1.673v3.631h-.9v53.4h-22.54V278.027h1.059v-2.118h-6.959v-5.748h-3.328v5.748h-3.026v-5.748h-3.025v5.748h-5.886v-5.748H112.04v5.748h-4.207v2.118h2.392v11.8h-6.656v26.625H94.432v-7.11H84.26v15.506h-12.3v6.616H53.82v18.962H584.7V331.464Zm-120.1-40.19-4.248-7.83a22.156,22.156,0,0,0,3.783-2.817l6.084,6.492A30.893,30.893,0,0,1,448.395,291.273Zm-15.9-25.122a1.754,1.754,0,0,0,.324.069l-.644,19.81a21.4,21.4,0,0,1-7.209-1.544ZM424.7,284.378a21.485,21.485,0,0,1-2.112-1.028l9.452-17.421a1.741,1.741,0,0,0,.191.113Zm8.4-18.148a1.717,1.717,0,0,0,.352-.054l6.589,18.7a21.465,21.465,0,0,1-7.028,1.178q-.28,0-.557-.007Zm.621-.149a1.784,1.784,0,0,0,.27-.151l9.451,17.421a21.533,21.533,0,0,1-3.132,1.425Zm1.591,1.082,12.322,13.151a21.656,21.656,0,0,1-3.695,2.752Zm-.539-.993-.356-.656a1.735,1.735,0,0,0,.1-.16l18,8.307a21.662,21.662,0,0,1-4.671,6.458Zm-.133-1.075a1.7,1.7,0,0,0,.092-.394l19.81.644a21.393,21.393,0,0,1-1.908,8.058Zm.1-.68a1.689,1.689,0,0,0-.061-.375l18.6-6.849a21.447,21.447,0,0,1,1.278,7.311q0,.279-.007.557Zm-.159-.644a1.78,1.78,0,0,0-.213-.345l14.456-13.546a21.591,21.591,0,0,1,4.358,7.042Zm-.408-.553a1.723,1.723,0,0,0-.373-.258l7.53-18.336a21.633,21.633,0,0,1,7.3,5.046Zm-.638-.367a1.756,1.756,0,0,0-.324-.069l.644-19.81a21.389,21.389,0,0,1,7.209,1.544Zm-.61-.079a1.713,1.713,0,0,0-.352.054l-6.589-18.7a21.464,21.464,0,0,1,7.028-1.178q.28,0,.557.007Zm-.621.149a1.742,1.742,0,0,0-.367.223l-13.546-14.456a21.573,21.573,0,0,1,7.324-4.462Zm-.576.419a1.7,1.7,0,0,0-.222.308l-18-8.307a21.663,21.663,0,0,1,4.671-6.458Zm-.343.567a1.705,1.705,0,0,0-.092.394l-19.81-.644a21.393,21.393,0,0,1,1.908-8.058Zm-.1.681a1.731,1.731,0,0,0,.06.374l-18.6,6.849a21.439,21.439,0,0,1-1.278-7.31c0-.186,0-.372.007-.557Zm.159.643a1.763,1.763,0,0,0,.166.282l-.118.217L417.2,279.122a21.58,21.58,0,0,1-4.358-7.042Zm-.385,1.3-8.972,16.538a21.681,21.681,0,0,1-4.691-3.735Zm-8.68,17.2a21.726,21.726,0,0,0,2.154,1.047l-3.382,8.236a30.574,30.574,0,0,1-3.019-1.456Zm2.419,1.156a21.843,21.843,0,0,0,7.359,1.576l-.289,8.883a30.758,30.758,0,0,1-10.452-2.224Zm7.645,1.587c.19,0,.38.008.571.008a21.882,21.882,0,0,0,7.17-1.2l2.959,8.4a30.9,30.9,0,0,1-10.129,1.693c-.287,0-.574,0-.86-.013Zm8.011-1.29a21.883,21.883,0,0,0,3.194-1.453l4.247,7.828a30.514,30.514,0,0,1-4.482,2.021Zm14.382,1.144q-.3.305-.616.6l-6.083-6.492a22.09,22.09,0,0,0,4.767-6.591l8.085,3.732A30.873,30.873,0,0,1,454.839,286.324Zm6.272-9.01-8.084-3.732a21.823,21.823,0,0,0,1.947-8.223l8.884.288A30.711,30.711,0,0,1,461.111,277.314Zm2.767-12.812q0,.43-.012.86l-8.881-.289q.007-.285.007-.571a21.882,21.882,0,0,0-1.3-7.459l8.353-3.075A30.886,30.886,0,0,1,463.878,264.5Zm-8.244-21a30.707,30.707,0,0,1,6.309,10.2l-8.355,3.076a22.011,22.011,0,0,0-4.447-7.187Zm-.8-.825q.3.3.6.617l-6.492,6.083a22.073,22.073,0,0,0-7.45-5.151l3.382-8.236A30.828,30.828,0,0,1,454.839,242.679Zm-20.677-9.019a30.773,30.773,0,0,1,10.452,2.224l-3.382,8.236a21.844,21.844,0,0,0-7.359-1.576Zm-1.145-.02q.43,0,.86.012l-.289,8.881c-.19-.005-.38-.007-.571-.007a21.881,21.881,0,0,0-7.17,1.2l-2.959-8.4A30.9,30.9,0,0,1,433.016,233.64Zm-10.4,1.787,2.959,8.4a22.015,22.015,0,0,0-7.474,4.553l-6.084-6.492A30.693,30.693,0,0,1,422.616,235.427Zm-11.423,7.252q.3-.3.616-.6l6.083,6.491a22.092,22.092,0,0,0-4.767,6.591l-8.085-3.732A30.882,30.882,0,0,1,411.193,242.679Zm-6.272,9.011L413,255.421a21.826,21.826,0,0,0-1.947,8.223l-8.883-.289A30.716,30.716,0,0,1,404.921,251.69ZM402.154,264.5q0-.431.012-.86l8.881.289q-.007.284-.007.571a21.882,21.882,0,0,0,1.3,7.459l-8.353,3.075A30.886,30.886,0,0,1,402.154,264.5Zm8.244,21a30.707,30.707,0,0,1-6.309-10.2l8.355-3.076a22.012,22.012,0,0,0,4.447,7.187Zm.8.825q-.3-.3-.6-.616l6.492-6.083a22.127,22.127,0,0,0,4.8,3.819l-4.248,7.83A30.993,30.993,0,0,1,411.193,286.324Zm6.532,5.986a31.327,31.327,0,0,0,3.1,1.495l-1.084,2.64a2.577,2.577,0,1,0,.267.1l1.081-2.633a31.617,31.617,0,0,0,10.751,2.287l-.088,2.7a2.571,2.571,0,1,0,.286.009l.087-2.7q.443.012.888.013a31.77,31.77,0,0,0,10.415-1.741l.925,2.624a2.595,2.595,0,1,0,.266-.107l-.921-2.612a31.364,31.364,0,0,0,4.606-2.076l12.113,22.326H405.613Z" transform="translate(-46.962 -174.243)" fill="url(#linear-gradient-4)"/>
        <g id="组_2045-4" data-name="组 2045" transform="translate(0 77.3)">
          <path id="路径_2988-4" data-name="路径 2988" d="M816.023,285.882a.613.613,0,1,0-.6.72A.669.669,0,0,0,816.023,285.882Z" transform="translate(-354.884 -285.163)" fill="url(#linear-gradient-5)"/>
          <path id="路径_2989-4" data-name="路径 2989" d="M569.265,374.3l-3.748-25.068h-7.665v-20.8h.948V326.55h-3.721v-8.1h-.454v8.1h-2.572v-6.638H551.6v6.638H536.1v1.882h1.059v42.206h-17.7V351.733h-10.08V305.276h.922V303h-2.013v-2.918h-2.317v-7.328h-2.8V287.58H502.5v5.172h-1.507l-.911,2.895h-6.1v4.433H478.017V303H476v2.279h.922V335.5H463.567v29.7l-14.823-6.568V329.808h2.392V327.69h-4.207v-5.748H428.912v5.748h-5.886v-5.748H420v5.748h-3.026v-5.748h-3.328v5.748h-6.959v2.118h1.059v39.956H400.99v-.419h-1.223V357.958h1.223v-.913h-1.223V345.658h1.223v-.913h-1.223V333.359h1.223v-.913h-1.223V321.06h1.223v-.913h-1.223V308.761h1.223v-.913h-1.223V296.064h2.1v-.916h1.066v-2.5h-19.9v-2.778h.647v-.8H372.841v.8h.647v2.778h-4.932v2.5h1.066v.916h2.1v11.783h-1.223v.913h1.223v11.386h-1.223v.913h1.223v11.386h-1.223v.913h1.223v11.386h-1.223v.913h1.223v11.386h-1.223v.913h1.223v11.386h-1.223v.913h1.223v9.3h-6.792V343.607H337.594v26.156h-4.437V288.284h-3.283v2.1l-6.058,1.482V290.5h-3.283v2.165l-6.058,1.482v-1.562h-3.283v2.365l-6.058,1.482v-1.289H301.85v2.092l-6.058,1.482v-1.11h-3.283v80.014H287.89V334.964H270.783V361.2H253.245V338.826h-2.16V331.48h1.282v-.738h-5.676v-2.31h-.605v2.31h-1.815V318.885h-.454v11.857h-2.364v.738h1.391v7.346H231.27V355.89H220l-5.885,21.731H202.308V306.669H186.674v-2.542h.888v-.892H175.721v.892h.931V359.35H169.28V340.99H171.9v-1.662H153.352V328.236h-3.539v-2.279h-7.9v2.279h-6.427v39.6H114.4V338.467H96.652v23.2H81.245v14.844H70.136V357.851H55.528v15.91H42.3v11.262h545V374.3Z" transform="translate(-42.301 -286.141)" fill="url(#linear-gradient-6)"/>
        </g>
      </g>
    </g>
  </g>
</svg>
