<?xml version="1.0" encoding="utf-8"?>
<!-- Generator: Adobe Illustrator 25.3.1, SVG Export Plug-In . SVG Version: 6.00 Build 0)  -->
<svg version="1.1" id="圖層_1" xmlns="http://www.w3.org/2000/svg" xmlns:xlink="http://www.w3.org/1999/xlink" x="0px" y="0px"
	 viewBox="0 0 24.6 15.4" style="enable-background:new 0 0 24.6 15.4;" xml:space="preserve">
<style type="text/css">
	.st0{fill-rule:evenodd;clip-rule:evenodd;stroke:#000000;stroke-width:4;}
</style>
<path id="open" class="st0" d="M22.5,2.9L22.5,2.9l-10,9.8c-0.1,0.1-0.3,0.1-0.4,0c0,0,0,0,0,0L2.2,2.8L2.1,2.9C2,3,2,3.2,2.1,3.3
	c0,0,0,0,0,0l10,10c0.1,0.1,0.3,0.1,0.4,0c0,0,0,0,0,0l10-10C22.6,3.2,22.6,3,22.5,2.9C22.5,2.9,22.5,2.9,22.5,2.9L22.5,2.9z"/>
</svg>
