<svg xmlns="http://www.w3.org/2000/svg" width="168.462" height="468.106" viewBox="0 0 168.462 468.106">
  <g id="step4" transform="translate(-8554 -549)">
    <g id="组_2052" data-name="组 2052" transform="translate(8554 796.077)">
      <g id="组_1989" data-name="组 1989">
        <circle id="椭圆_48" data-name="椭圆 48" cx="84.231" cy="84.231" r="84.231" transform="translate(0 168.462) rotate(-90)" fill="#fff"/>
        <circle id="椭圆_49" data-name="椭圆 49" cx="72.527" cy="72.527" r="72.527" transform="translate(11.568 156.942) rotate(-90)" fill="#149956"/>
      </g>
      <line id="直线_41" data-name="直线 41" y2="44.743" transform="translate(83.649 167.973)" fill="none" stroke="#fff" stroke-miterlimit="10" stroke-width="2"/>
      <path id="路径_2958" data-name="路径 2958" d="M251.693,278.746a8.245,8.245,0,1,1-8.246-8.246,8.245,8.245,0,0,1,8.246,8.246Z" transform="translate(-159.797 -65.961)" fill="#fff"/>
    </g>
    <g id="step1_active" transform="translate(8554.332 572.71)">
      <g id="组_1989-2" data-name="组 1989" transform="translate(-0.332 6)">
        <path id="路径_2970" data-name="路径 2970" d="M84.231,0A84.231,84.231,0,1,1,0,84.231,84.231,84.231,0,0,1,84.231,0Z" transform="translate(0 168.462) rotate(-90)" fill="#149956"/>
      </g>
      <path id="路径_2980" data-name="路径 2980" d="M36.7,25.535,13.057.581a1.867,1.867,0,0,0-3.19,1.474v1.5A1.972,1.972,0,0,1,7.986,5.61h-46.1A1.973,1.973,0,0,0-40,7.662v39.63a1.972,1.972,0,0,0,1.882,2.051h46.1A1.972,1.972,0,0,1,9.863,51.4v1.393a1.866,1.866,0,0,0,3.211,1.45L36.72,28.459A2.184,2.184,0,0,0,36.7,25.535Z" transform="translate(111.509 186.095) rotate(90)" fill="#149956"/>
    </g>
    <rect id="矩形_1633" data-name="矩形 1633" width="138" height="30" transform="translate(8569 549)" fill="rgba(255,255,255,0)"/>
  </g>
</svg>
