<svg xmlns="http://www.w3.org/2000/svg" width="168.462" height="217.366" viewBox="0 0 168.462 217.366">
  <g id="step2_active" transform="translate(0.332 -6)">
    <g id="组_1989" data-name="组 1989" transform="translate(-0.332 6)">
      <path id="路径_2970" data-name="路径 2970" d="M84.231,0A84.231,84.231,0,1,1,0,84.231,84.231,84.231,0,0,1,84.231,0Z" transform="translate(0 168.462) rotate(-90)" fill="#f77703"/>
      <text id="稽查_作業" data-name="稽查
作業" transform="translate(36.611 59.734)" fill="#fff" font-size="22" font-family="MicrosoftJhengHeiBold, Microsoft JhengHei"><tspan x="-22" y="24">稽查</tspan><tspan x="-22" y="50.4">作業</tspan></text>
    </g>
    <path id="路径_2980" data-name="路径 2980" d="M36.7,25.535,13.057.581a1.867,1.867,0,0,0-3.19,1.474v1.5A1.972,1.972,0,0,1,7.986,5.61h-46.1A1.973,1.973,0,0,0-40,7.662v39.63a1.972,1.972,0,0,0,1.882,2.051h46.1a1.972,1.972,0,0,1,1.881,2.052v1.393a1.866,1.866,0,0,0,3.211,1.45L36.72,28.459A2.184,2.184,0,0,0,36.7,25.535Z" transform="translate(111.509 186.095) rotate(90)" fill="#f77703"/>
  </g>
</svg>
