<svg id="TestProject6" xmlns="http://www.w3.org/2000/svg" width="190" height="159" viewBox="0 0 190 159">
  <g id="路径_2706" data-name="路径 2706" transform="translate(-882.396 -503.069)" fill="none" stroke-dasharray="5">
    <path d="M1072.4,662.069h-190v-159h190Z" stroke="none"/>
    <path d="M 1072.39599609375 662.06884765625 L 1067.39599609375 662.06884765625 L 1067.39599609375 661.06884765625 L 1072.39599609375 661.06884765625 L 1072.39599609375 662.06884765625 Z M 1062.39599609375 662.06884765625 L 1057.39599609375 662.06884765625 L 1057.39599609375 661.06884765625 L 1062.39599609375 661.06884765625 L 1062.39599609375 662.06884765625 Z M 1052.39599609375 662.06884765625 L 1047.39599609375 662.06884765625 L 1047.39599609375 661.06884765625 L 1052.39599609375 661.06884765625 L 1052.39599609375 662.06884765625 Z M 1042.39599609375 662.06884765625 L 1037.39599609375 662.06884765625 L 1037.39599609375 661.06884765625 L 1042.39599609375 661.06884765625 L 1042.39599609375 662.06884765625 Z M 1032.39599609375 662.06884765625 L 1027.39599609375 662.06884765625 L 1027.39599609375 661.06884765625 L 1032.39599609375 661.06884765625 L 1032.39599609375 662.06884765625 Z M 1022.39599609375 662.06884765625 L 1017.39599609375 662.06884765625 L 1017.39599609375 661.06884765625 L 1022.39599609375 661.06884765625 L 1022.39599609375 662.06884765625 Z M 1012.39599609375 662.06884765625 L 1007.39599609375 662.06884765625 L 1007.39599609375 661.06884765625 L 1012.39599609375 661.06884765625 L 1012.39599609375 662.06884765625 Z M 1002.39599609375 662.06884765625 L 997.39599609375 662.06884765625 L 997.39599609375 661.06884765625 L 1002.39599609375 661.06884765625 L 1002.39599609375 662.06884765625 Z M 992.39599609375 662.06884765625 L 987.39599609375 662.06884765625 L 987.39599609375 661.06884765625 L 992.39599609375 661.06884765625 L 992.39599609375 662.06884765625 Z M 982.39599609375 662.06884765625 L 977.3960571289062 662.06884765625 L 977.3960571289062 661.06884765625 L 982.39599609375 661.06884765625 L 982.39599609375 662.06884765625 Z M 972.39599609375 662.06884765625 L 967.39599609375 662.06884765625 L 967.39599609375 661.06884765625 L 972.39599609375 661.06884765625 L 972.39599609375 662.06884765625 Z M 962.39599609375 662.06884765625 L 957.39599609375 662.06884765625 L 957.39599609375 661.06884765625 L 962.39599609375 661.06884765625 L 962.39599609375 662.06884765625 Z M 952.39599609375 662.06884765625 L 947.39599609375 662.06884765625 L 947.39599609375 661.06884765625 L 952.39599609375 661.06884765625 L 952.39599609375 662.06884765625 Z M 942.39599609375 662.06884765625 L 937.39599609375 662.06884765625 L 937.39599609375 661.06884765625 L 942.39599609375 661.06884765625 L 942.39599609375 662.06884765625 Z M 932.39599609375 662.06884765625 L 927.39599609375 662.06884765625 L 927.39599609375 661.06884765625 L 932.39599609375 661.06884765625 L 932.39599609375 662.06884765625 Z M 922.39599609375 662.06884765625 L 917.39599609375 662.06884765625 L 917.39599609375 661.06884765625 L 922.39599609375 661.06884765625 L 922.39599609375 662.06884765625 Z M 912.39599609375 662.06884765625 L 907.39599609375 662.06884765625 L 907.39599609375 661.06884765625 L 912.39599609375 661.06884765625 L 912.39599609375 662.06884765625 Z M 902.39599609375 662.06884765625 L 897.39599609375 662.06884765625 L 897.39599609375 661.06884765625 L 902.39599609375 661.06884765625 L 902.39599609375 662.06884765625 Z M 892.39599609375 662.06884765625 L 887.39599609375 662.06884765625 L 887.39599609375 661.06884765625 L 892.39599609375 661.06884765625 L 892.39599609375 662.06884765625 Z M 883.3961181640625 662.0687255859375 L 882.3961181640625 662.0687255859375 C 882.3961181640625 662.0687255859375 882.3961181640625 657.0687255859375 882.3961181640625 657.0687255859375 L 883.3961181640625 657.0687255859375 L 883.3961181640625 662.0687255859375 Z M 883.3961181640625 652.0687255859375 L 882.3961181640625 652.0687255859375 C 882.3961181640625 652.0687255859375 882.3961181640625 647.0687255859375 882.3961181640625 647.0687255859375 L 883.3961181640625 647.0687255859375 L 883.3961181640625 652.0687255859375 Z M 883.3961181640625 642.0687255859375 L 882.3961181640625 642.0687255859375 C 882.3961181640625 642.0687255859375 882.3961181640625 637.0687255859375 882.3961181640625 637.0687255859375 L 883.3961181640625 637.0687255859375 L 883.3961181640625 642.0687255859375 Z M 883.3961181640625 632.0687255859375 L 882.3961181640625 632.0687255859375 C 882.3961181640625 632.0687255859375 882.3961181640625 627.0687255859375 882.3961181640625 627.0687255859375 L 883.3961181640625 627.0687255859375 L 883.3961181640625 632.0687255859375 Z M 883.3961181640625 622.0687255859375 L 882.3961181640625 622.0687255859375 C 882.3961181640625 622.0687255859375 882.3961181640625 617.0687255859375 882.3961181640625 617.0687255859375 L 883.3961181640625 617.0687255859375 L 883.3961181640625 622.0687255859375 Z M 883.3961181640625 612.0687255859375 L 882.3961181640625 612.0687255859375 C 882.3961181640625 612.0687255859375 882.3961181640625 607.0687255859375 882.3961181640625 607.0687255859375 L 883.3961181640625 607.0687255859375 L 883.3961181640625 612.0687255859375 Z M 883.3961181640625 602.0687255859375 L 882.3961181640625 602.0687255859375 C 882.3961181640625 602.0687255859375 882.3961181640625 597.0687255859375 882.3961181640625 597.0687255859375 L 883.3961181640625 597.0687255859375 L 883.3961181640625 602.0687255859375 Z M 883.3961181640625 592.0687255859375 L 882.3961181640625 592.0687255859375 C 882.3961181640625 592.0687255859375 882.3961181640625 587.0687255859375 882.3961181640625 587.0687255859375 L 883.3961181640625 587.0687255859375 L 883.3961181640625 592.0687255859375 Z M 883.3961181640625 582.0687255859375 L 882.3961181640625 582.0687255859375 C 882.3961181640625 582.0687255859375 882.3961181640625 577.0687255859375 882.3961181640625 577.0687255859375 L 883.3961181640625 577.0687255859375 L 883.3961181640625 582.0687255859375 Z M 883.3961181640625 572.0687255859375 L 882.3961181640625 572.0687255859375 C 882.3961181640625 572.0687255859375 882.3961181640625 567.0687255859375 882.3961181640625 567.0687255859375 L 883.3961181640625 567.0687255859375 L 883.3961181640625 572.0687255859375 Z M 883.3961181640625 562.0687255859375 L 882.3961181640625 562.0687255859375 C 882.3961181640625 562.0687255859375 882.3961181640625 557.0687255859375 882.3961181640625 557.0687255859375 L 883.3961181640625 557.0687255859375 L 883.3961181640625 562.0687255859375 Z M 883.3961181640625 552.0687255859375 L 882.3961181640625 552.0687255859375 C 882.3961181640625 552.0687255859375 882.3961181640625 547.0687255859375 882.3961181640625 547.0687255859375 L 883.3961181640625 547.0687255859375 L 883.3961181640625 552.0687255859375 Z M 883.3961181640625 542.0687255859375 L 882.3961181640625 542.0687255859375 C 882.3961181640625 542.0687255859375 882.3961181640625 537.0687255859375 882.3961181640625 537.0687255859375 L 883.3961181640625 537.0687255859375 L 883.3961181640625 542.0687255859375 Z M 883.3961181640625 532.0687255859375 L 882.3961181640625 532.0687255859375 C 882.3961181640625 532.0687255859375 882.3961181640625 527.0687255859375 882.3961181640625 527.0687255859375 L 883.3961181640625 527.0687255859375 L 883.3961181640625 532.0687255859375 Z M 883.3961181640625 522.0687255859375 L 882.3961181640625 522.0687255859375 C 882.3961181640625 522.0687255859375 882.3961181640625 517.0687255859375 882.3961181640625 517.0687255859375 L 883.3961181640625 517.0687255859375 L 883.3961181640625 522.0687255859375 Z M 883.3961181640625 512.0687255859375 L 882.3961181640625 512.0687255859375 C 882.3961181640625 512.0687255859375 882.3961181640625 507.0687255859375 882.3961181640625 507.0687255859375 L 883.3961181640625 507.0687255859375 L 883.3961181640625 512.0687255859375 Z M 888.3963012695312 504.0688781738281 L 883.3963012695312 504.0688781738281 L 883.3963012695312 503.0688781738281 C 883.3963012695312 503.0688781738281 888.3963012695312 503.0688781738281 888.3963012695312 503.0688781738281 L 888.3963012695312 504.0688781738281 Z M 898.3963012695312 504.0688781738281 L 893.3963012695312 504.0688781738281 L 893.3963012695312 503.0688781738281 C 893.3963012695312 503.0688781738281 898.3963012695312 503.0688781738281 898.3963012695312 503.0688781738281 L 898.3963012695312 504.0688781738281 Z M 908.3963012695312 504.0688781738281 L 903.3963012695312 504.0688781738281 L 903.3963012695312 503.0688781738281 C 903.3963012695312 503.0688781738281 908.3963012695312 503.0688781738281 908.3963012695312 503.0688781738281 L 908.3963012695312 504.0688781738281 Z M 918.3963012695312 504.0688781738281 L 913.3963012695312 504.0688781738281 L 913.3963012695312 503.0688781738281 C 913.3963012695312 503.0688781738281 918.3963012695312 503.0688781738281 918.3963012695312 503.0688781738281 L 918.3963012695312 504.0688781738281 Z M 928.3963012695312 504.0688781738281 L 923.3963012695312 504.0688781738281 L 923.3963012695312 503.0688781738281 C 923.3963012695312 503.0688781738281 928.3963012695312 503.0688781738281 928.3963012695312 503.0688781738281 L 928.3963012695312 504.0688781738281 Z M 938.3963012695312 504.0688781738281 L 933.3963012695312 504.0688781738281 L 933.3963012695312 503.0688781738281 C 933.3963012695312 503.0688781738281 938.3963012695312 503.0688781738281 938.3963012695312 503.0688781738281 L 938.3963012695312 504.0688781738281 Z M 948.3963012695312 504.0688781738281 L 943.3963012695312 504.0688781738281 L 943.3963012695312 503.0688781738281 C 943.3963012695312 503.0688781738281 948.3963012695312 503.0688781738281 948.3963012695312 503.0688781738281 L 948.3963012695312 504.0688781738281 Z M 958.3963012695312 504.0688781738281 L 953.3963012695312 504.0688781738281 L 953.3963012695312 503.0688781738281 C 953.3963012695312 503.0688781738281 958.3963012695312 503.0688781738281 958.3963012695312 503.0688781738281 L 958.3963012695312 504.0688781738281 Z M 968.3963012695312 504.0688781738281 L 963.3963012695312 504.0688781738281 L 963.3963012695312 503.0688781738281 C 963.3963012695312 503.0688781738281 968.3963012695312 503.0688781738281 968.3963012695312 503.0688781738281 L 968.3963012695312 504.0688781738281 Z M 978.3963012695312 504.0688781738281 L 973.3963012695312 504.0688781738281 L 973.3963012695312 503.0688781738281 C 973.3963012695312 503.0688781738281 978.3963012695312 503.0688781738281 978.3963012695312 503.0688781738281 L 978.3963012695312 504.0688781738281 Z M 988.3963012695312 504.0688781738281 L 983.3963012695312 504.0688781738281 L 983.3963012695312 503.0688781738281 C 983.3963012695312 503.0688781738281 988.3963012695312 503.0688781738281 988.3963012695312 503.0688781738281 L 988.3963012695312 504.0688781738281 Z M 998.3963012695312 504.0688781738281 L 993.3963012695312 504.0688781738281 L 993.3963012695312 503.0688781738281 C 993.3963012695312 503.0688781738281 998.3963012695312 503.0688781738281 998.3963012695312 503.0688781738281 L 998.3963012695312 504.0688781738281 Z M 1008.396301269531 504.0688781738281 L 1003.396301269531 504.0688781738281 L 1003.396301269531 503.0688781738281 C 1003.396301269531 503.0688781738281 1008.396301269531 503.0688781738281 1008.396301269531 503.0688781738281 L 1008.396301269531 504.0688781738281 Z M 1018.396301269531 504.0688781738281 L 1013.396301269531 504.0688781738281 L 1013.396301269531 503.0688781738281 C 1013.396301269531 503.0688781738281 1018.396301269531 503.0688781738281 1018.396301269531 503.0688781738281 L 1018.396301269531 504.0688781738281 Z M 1028.396240234375 504.0688781738281 L 1023.396301269531 504.0688781738281 L 1023.396301269531 503.0688781738281 C 1023.396301269531 503.0688781738281 1028.396240234375 503.0688781738281 1028.396240234375 503.0688781738281 L 1028.396240234375 504.0688781738281 Z M 1038.396240234375 504.0688781738281 L 1033.396240234375 504.0688781738281 L 1033.396240234375 503.0688781738281 C 1033.396240234375 503.0688781738281 1038.396240234375 503.0688781738281 1038.396240234375 503.0688781738281 L 1038.396240234375 504.0688781738281 Z M 1048.396240234375 504.0688781738281 L 1043.396240234375 504.0688781738281 L 1043.396240234375 503.0688781738281 C 1043.396240234375 503.0688781738281 1048.396240234375 503.0688781738281 1048.396240234375 503.0688781738281 L 1048.396240234375 504.0688781738281 Z M 1058.396240234375 504.0688781738281 L 1053.396240234375 504.0688781738281 L 1053.396240234375 503.0688781738281 C 1053.396240234375 503.0688781738281 1058.396240234375 503.0688781738281 1058.396240234375 503.0688781738281 L 1058.396240234375 504.0688781738281 Z M 1068.396240234375 504.0688781738281 L 1063.396240234375 504.0688781738281 L 1063.396240234375 503.0688781738281 C 1063.396240234375 503.0688781738281 1068.396240234375 503.0688781738281 1068.396240234375 503.0688781738281 L 1068.396240234375 504.0688781738281 Z M 1072.39599609375 509.0691528320312 L 1071.39599609375 509.0691528320312 L 1071.39599609375 504.0691528320312 L 1072.39599609375 504.0691528320312 L 1072.39599609375 509.0691528320312 Z M 1072.39599609375 519.0691528320312 L 1071.39599609375 519.0691528320312 L 1071.39599609375 514.0691528320312 L 1072.39599609375 514.0691528320312 L 1072.39599609375 519.0691528320312 Z M 1072.39599609375 529.0691528320312 L 1071.39599609375 529.0691528320312 L 1071.39599609375 524.0691528320312 L 1072.39599609375 524.0691528320312 L 1072.39599609375 529.0691528320312 Z M 1072.39599609375 539.0691528320312 L 1071.39599609375 539.0691528320312 L 1071.39599609375 534.0691528320312 L 1072.39599609375 534.0691528320312 L 1072.39599609375 539.0691528320312 Z M 1072.39599609375 549.0691528320312 L 1071.39599609375 549.0691528320312 L 1071.39599609375 544.0691528320312 L 1072.39599609375 544.0691528320312 L 1072.39599609375 549.0691528320312 Z M 1072.39599609375 559.0691528320312 L 1071.39599609375 559.0691528320312 L 1071.39599609375 554.0691528320312 L 1072.39599609375 554.0691528320312 L 1072.39599609375 559.0691528320312 Z M 1072.39599609375 569.0691528320312 L 1071.39599609375 569.0691528320312 L 1071.39599609375 564.0691528320312 L 1072.39599609375 564.0691528320312 L 1072.39599609375 569.0691528320312 Z M 1072.39599609375 579.0691528320312 L 1071.39599609375 579.0691528320312 L 1071.39599609375 574.0691528320312 L 1072.39599609375 574.0691528320312 L 1072.39599609375 579.0691528320312 Z M 1072.39599609375 589.0691528320312 L 1071.39599609375 589.0691528320312 L 1071.39599609375 584.0691528320312 L 1072.39599609375 584.0691528320312 L 1072.39599609375 589.0691528320312 Z M 1072.39599609375 599.0691528320312 L 1071.39599609375 599.0691528320312 L 1071.39599609375 594.0691528320312 L 1072.39599609375 594.0691528320312 L 1072.39599609375 599.0691528320312 Z M 1072.39599609375 609.0691528320312 L 1071.39599609375 609.0691528320312 L 1071.39599609375 604.0691528320312 L 1072.39599609375 604.0691528320312 L 1072.39599609375 609.0691528320312 Z M 1072.39599609375 619.0691528320312 L 1071.39599609375 619.0691528320312 L 1071.39599609375 614.0691528320312 L 1072.39599609375 614.0691528320312 L 1072.39599609375 619.0691528320312 Z M 1072.39599609375 629.0691528320312 L 1071.39599609375 629.0691528320312 L 1071.39599609375 624.0691528320312 L 1072.39599609375 624.0691528320312 L 1072.39599609375 629.0691528320312 Z M 1072.39599609375 639.0691528320312 L 1071.39599609375 639.0691528320312 L 1071.39599609375 634.0691528320312 L 1072.39599609375 634.0691528320312 L 1072.39599609375 639.0691528320312 Z M 1072.39599609375 649.0691528320312 L 1071.39599609375 649.0691528320312 L 1071.39599609375 644.0691528320312 L 1072.39599609375 644.0691528320312 L 1072.39599609375 649.0691528320312 Z M 1072.39599609375 659.0691528320312 L 1071.39599609375 659.0691528320312 L 1071.39599609375 654.0691528320312 L 1072.39599609375 654.0691528320312 L 1072.39599609375 659.0691528320312 Z" stroke="none" fill="#76d0fe"/>
  </g>
  <path id="路径_2981" data-name="路径 2981" d="M1072.4,571.069h-190v-68h190Z" transform="translate(-882.396 -503.069)" fill="#006fff"/>
  <text id="尚缺檢驗資料_件_" data-name="尚缺檢驗資料(件)" transform="translate(95 41.362)" fill="#fff" font-size="15" font-family="MicrosoftJhengHeiBold, Microsoft JhengHei"><tspan x="-57.766" y="0">尚缺檢驗資料(件)</tspan></text>
  <text id="_100" data-name="100" transform="translate(48 134.349)" fill="#006fff" font-size="53" font-family="MicrosoftJhengHeiBold, Microsoft JhengHei"><tspan x="0" y="0">100</tspan></text>
</svg>
