<svg id="Cloud_background" xmlns="http://www.w3.org/2000/svg" width="1920" height="447.219" viewBox="0 0 1920 447.219">
  <g id="组_572" data-name="组 572">
    <path id="路径_1157" data-name="路径 1157" d="M791.284,180.087c.035-.779.095-1.549.095-2.343,0-23.364-16.361-42.306-36.55-42.306a32.927,32.927,0,0,0-20.159,7.028c-8.5-15.552-23.473-25.887-40.551-25.887-19.41,0-36.125,13.369-43.655,32.577a34.872,34.872,0,0,0-24-9.717,34.162,34.162,0,0,0-11.3,1.94c-4.484-7.437-11.919-12.305-20.351-12.305-7.987,0-15.073,4.387-19.617,11.179a55.1,55.1,0,0,0-9.468-.814c-18.327,0-34.115,8.9-41.557,21.759a23.188,23.188,0,0,0-12.041-3.395c-12.236,0-22.39,9.632-24.428,22.284Z" transform="translate(-487.699 63.455)" fill="#fff"/>
    <path id="路径_1158" data-name="路径 1158" d="M790.933,204.6c-.032-.661-.085-1.316-.085-1.986,0-19.749,13.824-35.757,30.894-35.757a27.877,27.877,0,0,1,17.042,5.939c7.183-13.147,19.842-21.882,34.268-21.882,16.415,0,30.535,11.3,36.911,27.54a29.464,29.464,0,0,1,20.291-8.219,28.922,28.922,0,0,1,9.553,1.637c3.792-6.281,10.071-10.4,17.2-10.4,6.762,0,12.742,3.712,16.59,9.449a46.817,46.817,0,0,1,8-.687c15.487,0,28.836,7.525,35.135,18.392a19.579,19.579,0,0,1,10.182-2.865c10.347,0,18.919,8.14,20.644,18.838Z" transform="translate(-89.794 108.522)" fill="#fff"/>
    <path id="路径_1159" data-name="路径 1159" d="M678.038,150.941a28.079,28.079,0,0,0-51.767,0Z" transform="translate(-305.813 85.989)" fill="#fff"/>
    <path id="路径_1160" data-name="路径 1160" d="M1280.63,257.87a26.2,26.2,0,0,0-16.031-10.2,26.2,26.2,0,1,0-43.049-29.173,39.576,39.576,0,0,0-48.876,13.367,28.22,28.22,0,0,0-24.634,3.282,27.805,27.805,0,0,0-20.411-4.315c0-.143.019-.284.019-.43a28.343,28.343,0,0,0-56.686,0c0,.12.014.238.018.361a27.8,27.8,0,0,0-4.264-.361,28.313,28.313,0,0,0-28.287,27.471Z" transform="translate(235.176 175.671)" fill="#fff"/>
    <path id="路径_1161" data-name="路径 1161" d="M1215.215,114.54a10.323,10.323,0,0,0,.8-3.911c0-12.946-25.387-23.445-56.7-23.445-1.022,0-2.037.014-3.05.035a33.989,33.989,0,0,0,3.05-14.1,34.4,34.4,0,0,0-68.8,0c0,.368.044.728.058,1.094a23.47,23.47,0,0,0-30.552,22.349c0,.044.009.088.009.13-1.938-.083-3.89-.13-5.872-.13-26.743,0-49.161,7.668-55.118,17.98Z" transform="translate(183.478 -38.729)" fill="#fff"/>
    <path id="路径_1162" data-name="路径 1162" d="M1465.035,217.313c-8.337-8.709-23.7-14.555-41.268-14.555a73.684,73.684,0,0,0-19.7,2.616c-3.559-12.171-14.477-21.033-27.4-21.033a28.246,28.246,0,0,0-23.093,12.157,37.852,37.852,0,0,0-71.526,3.467,68.632,68.632,0,0,0-29.256-6.163c-23.089,0-42.366,10.08-46.91,23.512Z" transform="translate(454.965 137.043)" fill="#fff"/>
    <path id="路径_1163" data-name="路径 1163" d="M1197.98,98.857a34.407,34.407,0,0,0-67.349,0Z" transform="translate(356.196 4.3)" fill="#fff"/>
    <path id="路径_1164" data-name="路径 1164" d="M1045.172,227.545a19.542,19.542,0,0,0-6.288,1.045,24.06,24.06,0,0,0-37.917,14.4h63.217A19.428,19.428,0,0,0,1045.172,227.545Z" transform="translate(186.003 204.234)" fill="#fff"/>
    <path id="路径_1165" data-name="路径 1165" d="M770.246,167.462a25.816,25.816,0,0,1,8.383,1.406,32.089,32.089,0,0,1,50.576,19.2H744.891A25.9,25.9,0,0,1,770.246,167.462Z" transform="translate(-150.116 123.756)" fill="#fff"/>
    <path id="路径_1166" data-name="路径 1166" d="M1218.5,179.82c-1.494-14.611-17-26.107-35.954-26.107a45.467,45.467,0,0,0-8.531.833c.014-.278.053-.553.053-.833,0-11.424-12.356-20.679-27.614-20.679a33.58,33.58,0,0,0-17.4,4.632c-2.544-14.34-16.595-25.327-33.615-25.327a36.694,36.694,0,0,0-22.43,7.449,35.779,35.779,0,0,0-26.828-11.554c-15.994,0-29.372,9.713-33.04,22.788-8.686-4.528-19.969-7.278-32.337-7.278-23.586,0-43.279,9.944-48.328,23.267a26.247,26.247,0,0,0-45.863,17.455c0,.641.053,1.277.1,1.915A34.968,34.968,0,0,0,846.35,179.82Z" transform="translate(-16.943 52.501)" fill="#fff"/>
    <path id="路径_1167" data-name="路径 1167" d="M840,217.92c-5.516-5.765-15.682-9.63-27.3-9.63a48.671,48.671,0,0,0-13.033,1.73,19.031,19.031,0,0,0-18.126-13.915,18.716,18.716,0,0,0-15.282,8.043,25.039,25.039,0,0,0-47.313,2.292,45.383,45.383,0,0,0-19.354-4.077c-15.275,0-28.017,6.674-31.026,15.557Z" transform="translate(-250.292 157.686)" fill="#fff"/>
  </g>
</svg>
