<svg xmlns="http://www.w3.org/2000/svg" width="60.784" height="130.609" viewBox="0 0 60.784 130.609">
  <g id="logo_login" transform="translate(0.003)">
    <path id="路径_34" data-name="路径 34" d="M113.2,755.027a30.392,30.392,0,1,1-30.392-30.392A30.392,30.392,0,0,1,113.2,755.027Z" transform="translate(-52.419 -724.635)" fill="#fff"/>
    <g id="组_23" data-name="组 23" transform="translate(2.784 29.681)">
      <path id="路径_35" data-name="路径 35" d="M111.421,777.971a29.964,29.964,0,0,1-55.157.355H80.13L88.5,766s.443-.771.993-.111S99.535,778.12,99.535,778.12l11.885-.148" transform="translate(-56.264 -765.625)" fill="#7db33d"/>
      <path id="路径_36" data-name="路径 36" d="M111.421,777.971a29.964,29.964,0,0,1-55.157.355H80.13L88.5,766s.443-.771.993-.111S99.535,778.12,99.535,778.12l11.885-.148" transform="translate(-56.264 -765.625)" fill="#7db33d" stroke="#85c538" stroke-width="0.311"/>
    </g>
    <path id="路径_37" data-name="路径 37" d="M112.34,760.522a29.954,29.954,0,1,0-59.458-5.174q0,.551.019,1.1H63.344L75.237,738.39s.441-1.323,1.763-.222a25.131,25.131,0,0,1,2.753,2.864L67.31,759.308H52.884l.329,1.983H68.3L86.91,733.54a1.111,1.111,0,0,1,1.982-.22c1.212,1.322,20.482,27.31,20.482,27.31Z" transform="translate(-52.547 -724.846)" fill="#007dc6"/>
    <path id="路径_38" data-name="路径 38" d="M112.34,760.522a29.954,29.954,0,1,0-59.458-5.174q0,.551.019,1.1H63.344L75.237,738.39s.441-1.323,1.763-.222a25.131,25.131,0,0,1,2.753,2.864L67.31,759.308H52.884l.329,1.983H68.3L86.91,733.54a1.111,1.111,0,0,1,1.982-.22c1.212,1.322,20.482,27.31,20.482,27.31Z" transform="translate(-52.547 -724.846)" fill="none" stroke="#338bbc" stroke-width="0.311"/>
    <g id="组_24" data-name="组 24" transform="translate(1.327 17.698)">
      <path id="路径_39" data-name="路径 39" d="M54.251,769.7H73.963l13.429-20.262s.661-.882,1.541.11,15.967,19.71,15.967,19.71l.5.5h6.873l-.441,1.259h-7.151L88.607,751.749s-.44-.882-1.1.221S75.2,771.023,75.2,771.023H54.713Z" transform="translate(-54.251 -749.075)" fill="#7db33d"/>
      <path id="路径_40" data-name="路径 40" d="M54.251,769.7H73.963l13.429-20.262s.661-.882,1.541.11,15.967,19.71,15.967,19.71l.5.5h6.873l-.441,1.259h-7.151L88.607,751.749s-.44-.882-1.1.221S75.2,771.023,75.2,771.023H54.713Z" transform="translate(-54.251 -749.075)" fill="#7db33d" stroke="#85c538" stroke-width="0.311"/>
    </g>
    <g id="logo_login-2" data-name="logo_login" transform="translate(0 70)">
      <g id="组_23-2" data-name="组 23" transform="translate(2.784 29.681)">
        <path id="路径_35-2" data-name="路径 35" d="M111.421,777.971a29.964,29.964,0,0,1-55.157.355H80.13L88.5,766s.443-.771.993-.111S99.535,778.12,99.535,778.12l11.885-.148" transform="translate(-56.264 -765.625)" fill="#fff"/>
        <path id="路径_36-2" data-name="路径 36" d="M111.421,777.971a29.964,29.964,0,0,1-55.157.355H80.13L88.5,766s.443-.771.993-.111S99.535,778.12,99.535,778.12l11.885-.148" transform="translate(-56.264 -765.625)" fill="#fff" stroke="#fff" stroke-width="0.311"/>
      </g>
      <path id="路径_37-2" data-name="路径 37" d="M112.34,760.522a29.954,29.954,0,1,0-59.458-5.174q0,.551.019,1.1H63.344L75.237,738.39s.441-1.323,1.763-.222a25.131,25.131,0,0,1,2.753,2.864L67.31,759.308H52.884l.329,1.983H68.3L86.91,733.54a1.111,1.111,0,0,1,1.982-.22c1.212,1.322,20.482,27.31,20.482,27.31Z" transform="translate(-52.547 -724.846)" fill="#fff"/>
      <path id="路径_38-2" data-name="路径 38" d="M112.34,760.522a29.954,29.954,0,1,0-59.458-5.174q0,.551.019,1.1H63.344L75.237,738.39s.441-1.323,1.763-.222a25.131,25.131,0,0,1,2.753,2.864L67.31,759.308H52.884l.329,1.983H68.3L86.91,733.54a1.111,1.111,0,0,1,1.982-.22c1.212,1.322,20.482,27.31,20.482,27.31Z" transform="translate(-52.547 -724.846)" fill="#fff" stroke="#fff" stroke-width="0.311"/>
      <g id="组_24-2" data-name="组 24" transform="translate(1.327 17.698)">
        <path id="路径_39-2" data-name="路径 39" d="M54.251,769.7H73.963l13.429-20.262s.661-.882,1.541.11,15.967,19.71,15.967,19.71l.5.5h6.873l-.441,1.259h-7.151L88.607,751.749s-.44-.882-1.1.221S75.2,771.023,75.2,771.023H54.713Z" transform="translate(-54.251 -749.075)" fill="#fff"/>
        <path id="路径_40-2" data-name="路径 40" d="M54.251,769.7H73.963l13.429-20.262s.661-.882,1.541.11,15.967,19.71,15.967,19.71l.5.5h6.873l-.441,1.259h-7.151L88.607,751.749s-.44-.882-1.1.221S75.2,771.023,75.2,771.023H54.713Z" transform="translate(-54.251 -749.075)" fill="#fff" stroke="#fff" stroke-width="0.311"/>
      </g>
    </g>
  </g>
</svg>
