<svg xmlns="http://www.w3.org/2000/svg" width="245.499" height="83" viewBox="0 0 245.499 83">
  <g id="next" transform="translate(-1128.501 -888)">
    <g id="组件_4_9" data-name="组件 4 – 9" transform="translate(1128.501 888)">
      <rect id="矩形_1609" data-name="矩形 1609" width="83" height="83" rx="41.5" transform="translate(114.233)" fill="#6c81de"/>
      <g id="路径_2796" data-name="路径 2796" transform="translate(45.79 -480.883)" fill="#fff" stroke-dasharray="5">
        <path d="M-45.79,563.883v-83H150.543v83Z" stroke="none"/>
        <path d="M 150.54345703125 563.8826293945312 L 145.54345703125 563.8826293945312 L 145.54345703125 562.8826293945312 L 150.54345703125 562.8826293945312 L 150.54345703125 563.8826293945312 Z M 140.54345703125 563.8826293945312 L 135.54345703125 563.8826293945312 L 135.54345703125 562.8826293945312 L 140.54345703125 562.8826293945312 L 140.54345703125 563.8826293945312 Z M 130.54345703125 563.8826293945312 L 125.54345703125 563.8826293945312 L 125.54345703125 562.8826293945312 L 130.54345703125 562.8826293945312 L 130.54345703125 563.8826293945312 Z M 120.54345703125 563.8826293945312 L 115.54345703125 563.8826293945312 L 115.54345703125 562.8826293945312 L 120.54345703125 562.8826293945312 L 120.54345703125 563.8826293945312 Z M 110.54345703125 563.8826293945312 L 105.54345703125 563.8826293945312 L 105.54345703125 562.8826293945312 L 110.54345703125 562.8826293945312 L 110.54345703125 563.8826293945312 Z M 100.54345703125 563.8826293945312 L 95.54345703125 563.8826293945312 L 95.54345703125 562.8826293945312 L 100.54345703125 562.8826293945312 L 100.54345703125 563.8826293945312 Z M 90.54345703125 563.8826293945312 L 85.54345703125 563.8826293945312 L 85.54345703125 562.8826293945312 L 90.54345703125 562.8826293945312 L 90.54345703125 563.8826293945312 Z M 80.54345703125 563.8826293945312 L 75.54345703125 563.8826293945312 L 75.54345703125 562.8826293945312 L 80.54345703125 562.8826293945312 L 80.54345703125 563.8826293945312 Z M 70.54345703125 563.8826293945312 L 65.54345703125 563.8826293945312 L 65.54345703125 562.8826293945312 L 70.54345703125 562.8826293945312 L 70.54345703125 563.8826293945312 Z M 60.54345703125 563.8826293945312 L 55.54345703125 563.8826293945312 L 55.54345703125 562.8826293945312 L 60.54345703125 562.8826293945312 L 60.54345703125 563.8826293945312 Z M 50.54345703125 563.8826293945312 L 45.54345703125 563.8826293945312 L 45.54345703125 562.8826293945312 L 50.54345703125 562.8826293945312 L 50.54345703125 563.8826293945312 Z M 40.54345703125 563.8826293945312 L 35.54345703125 563.8826293945312 L 35.54345703125 562.8826293945312 L 40.54345703125 562.8826293945312 L 40.54345703125 563.8826293945312 Z M 30.54345512390137 563.8826293945312 L 25.54345512390137 563.8826293945312 L 25.54345512390137 562.8826293945312 L 30.54345512390137 562.8826293945312 L 30.54345512390137 563.8826293945312 Z M 20.54345512390137 563.8826293945312 L 15.54345512390137 563.8826293945312 L 15.54345512390137 562.8826293945312 L 20.54345512390137 562.8826293945312 L 20.54345512390137 563.8826293945312 Z M 10.54345512390137 563.8826293945312 L 5.543455123901367 563.8826293945312 L 5.543455123901367 562.8826293945312 L 10.54345512390137 562.8826293945312 L 10.54345512390137 563.8826293945312 Z M 0.5434552431106567 563.8826293945312 L -4.456544876098633 563.8826293945312 L -4.456544876098633 562.8826293945312 L 0.5434552431106567 562.8826293945312 L 0.5434552431106567 563.8826293945312 Z M -9.456544876098633 563.8826293945312 L -14.45654487609863 563.8826293945312 L -14.45654487609863 562.8826293945312 L -9.456544876098633 562.8826293945312 L -9.456544876098633 563.8826293945312 Z M -19.45654487609863 563.8826293945312 L -24.45654487609863 563.8826293945312 L -24.45654487609863 562.8826293945312 L -19.45654487609863 562.8826293945312 L -19.45654487609863 563.8826293945312 Z M -29.45654487609863 563.8826293945312 L -34.45654296875 563.8826293945312 L -34.45654296875 562.8826293945312 L -29.45654487609863 562.8826293945312 L -29.45654487609863 563.8826293945312 Z M -39.45654296875 563.8826293945312 L -44.45654296875 563.8826293945312 L -44.45654296875 562.8826293945312 L -39.45654296875 562.8826293945312 L -39.45654296875 563.8826293945312 Z M -44.78959655761719 560.2156982421875 L -45.78959655761719 560.2156982421875 C -45.78959655761719 560.2156982421875 -45.78959655761719 555.2156982421875 -45.78959655761719 555.2156982421875 L -44.78959655761719 555.2156982421875 L -44.78959655761719 560.2156982421875 Z M -44.78959655761719 550.2156982421875 L -45.78959655761719 550.2156982421875 C -45.78959655761719 550.2156982421875 -45.78959655761719 545.2156982421875 -45.78959655761719 545.2156982421875 L -44.78959655761719 545.2156982421875 L -44.78959655761719 550.2156982421875 Z M -44.78959655761719 540.2156982421875 L -45.78959655761719 540.2156982421875 C -45.78959655761719 540.2156982421875 -45.78959655761719 535.2156982421875 -45.78959655761719 535.2156982421875 L -44.78959655761719 535.2156982421875 L -44.78959655761719 540.2156982421875 Z M -44.78959655761719 530.2156982421875 L -45.78959655761719 530.2156982421875 C -45.78959655761719 530.2156982421875 -45.78959655761719 525.2156982421875 -45.78959655761719 525.2156982421875 L -44.78959655761719 525.2156982421875 L -44.78959655761719 530.2156982421875 Z M -44.78959655761719 520.2156982421875 L -45.78959655761719 520.2156982421875 C -45.78959655761719 520.2156982421875 -45.78959655761719 515.2156982421875 -45.78959655761719 515.2156982421875 L -44.78959655761719 515.2156982421875 L -44.78959655761719 520.2156982421875 Z M -44.78959655761719 510.2156677246094 L -45.78959655761719 510.2156677246094 C -45.78959655761719 510.2156677246094 -45.78959655761719 505.2156677246094 -45.78959655761719 505.2156677246094 L -44.78959655761719 505.2156677246094 L -44.78959655761719 510.2156677246094 Z M -44.78959655761719 500.2156677246094 L -45.78959655761719 500.2156677246094 C -45.78959655761719 500.2156677246094 -45.78959655761719 495.2156677246094 -45.78959655761719 495.2156677246094 L -44.78959655761719 495.2156677246094 L -44.78959655761719 500.2156677246094 Z M -44.78959655761719 490.2156677246094 L -45.78959655761719 490.2156677246094 C -45.78959655761719 490.2156677246094 -45.78959655761719 485.2156677246094 -45.78959655761719 485.2156677246094 L -44.78959655761719 485.2156677246094 L -44.78959655761719 490.2156677246094 Z M -40.12264633178711 481.8826293945312 L -45.12264633178711 481.8826293945312 L -45.12264633178711 480.8826293945312 C -45.12264633178711 480.8826293945312 -40.12264633178711 480.8826293945312 -40.12264633178711 480.8826293945312 L -40.12264633178711 481.8826293945312 Z M -30.12264442443848 481.8826293945312 L -35.12264633178711 481.8826293945312 L -35.12264633178711 480.8826293945312 C -35.12264633178711 480.8826293945312 -30.12264442443848 480.8826293945312 -30.12264442443848 480.8826293945312 L -30.12264442443848 481.8826293945312 Z M -20.12264442443848 481.8826293945312 L -25.12264442443848 481.8826293945312 L -25.12264442443848 480.8826293945312 C -25.12264442443848 480.8826293945312 -20.12264442443848 480.8826293945312 -20.12264442443848 480.8826293945312 L -20.12264442443848 481.8826293945312 Z M -10.12264442443848 481.8826293945312 L -15.12264442443848 481.8826293945312 L -15.12264442443848 480.8826293945312 C -15.12264442443848 480.8826293945312 -10.12264442443848 480.8826293945312 -10.12264442443848 480.8826293945312 L -10.12264442443848 481.8826293945312 Z M -0.1226447597146034 481.8826293945312 L -5.122644901275635 481.8826293945312 L -5.122644901275635 480.8826293945312 C -5.122644901275635 480.8826293945312 -0.1226447597146034 480.8826293945312 -0.1226447597146034 480.8826293945312 L -0.1226447597146034 481.8826293945312 Z M 9.877355575561523 481.8826293945312 L 4.877355098724365 481.8826293945312 L 4.877355098724365 480.8826293945312 C 4.877355098724365 480.8826293945312 9.877355575561523 480.8826293945312 9.877355575561523 480.8826293945312 L 9.877355575561523 481.8826293945312 Z M 19.87735557556152 481.8826293945312 L 14.87735557556152 481.8826293945312 L 14.87735557556152 480.8826293945312 C 14.87735557556152 480.8826293945312 19.87735557556152 480.8826293945312 19.87735557556152 480.8826293945312 L 19.87735557556152 481.8826293945312 Z M 29.87735557556152 481.8826293945312 L 24.87735557556152 481.8826293945312 L 24.87735557556152 480.8826293945312 C 24.87735557556152 480.8826293945312 29.87735557556152 480.8826293945312 29.87735557556152 480.8826293945312 L 29.87735557556152 481.8826293945312 Z M 39.87735366821289 481.8826293945312 L 34.87735366821289 481.8826293945312 L 34.87735366821289 480.8826293945312 C 34.87735366821289 480.8826293945312 39.87735366821289 480.8826293945312 39.87735366821289 480.8826293945312 L 39.87735366821289 481.8826293945312 Z M 49.87735366821289 481.8826293945312 L 44.87735366821289 481.8826293945312 L 44.87735366821289 480.8826293945312 C 44.87735366821289 480.8826293945312 49.87735366821289 480.8826293945312 49.87735366821289 480.8826293945312 L 49.87735366821289 481.8826293945312 Z M 59.87735366821289 481.8826293945312 L 54.87735366821289 481.8826293945312 L 54.87735366821289 480.8826293945312 C 54.87735366821289 480.8826293945312 59.87735366821289 480.8826293945312 59.87735366821289 480.8826293945312 L 59.87735366821289 481.8826293945312 Z M 69.87735748291016 481.8826293945312 L 64.87735748291016 481.8826293945312 L 64.87735748291016 480.8826293945312 C 64.87735748291016 480.8826293945312 69.87735748291016 480.8826293945312 69.87735748291016 480.8826293945312 L 69.87735748291016 481.8826293945312 Z M 79.87735748291016 481.8826293945312 L 74.87735748291016 481.8826293945312 L 74.87735748291016 480.8826293945312 C 74.87735748291016 480.8826293945312 79.87735748291016 480.8826293945312 79.87735748291016 480.8826293945312 L 79.87735748291016 481.8826293945312 Z M 89.87735748291016 481.8826293945312 L 84.87735748291016 481.8826293945312 L 84.87735748291016 480.8826293945312 C 84.87735748291016 480.8826293945312 89.87735748291016 480.8826293945312 89.87735748291016 480.8826293945312 L 89.87735748291016 481.8826293945312 Z M 99.87735748291016 481.8826293945312 L 94.87735748291016 481.8826293945312 L 94.87735748291016 480.8826293945312 C 94.87735748291016 480.8826293945312 99.87735748291016 480.8826293945312 99.87735748291016 480.8826293945312 L 99.87735748291016 481.8826293945312 Z M 109.8773574829102 481.8826293945312 L 104.8773574829102 481.8826293945312 L 104.8773574829102 480.8826293945312 C 104.8773574829102 480.8826293945312 109.8773574829102 480.8826293945312 109.8773574829102 480.8826293945312 L 109.8773574829102 481.8826293945312 Z M 119.8773574829102 481.8826293945312 L 114.8773574829102 481.8826293945312 L 114.8773574829102 480.8826293945312 C 114.8773574829102 480.8826293945312 119.8773574829102 480.8826293945312 119.8773574829102 480.8826293945312 L 119.8773574829102 481.8826293945312 Z M 129.8773498535156 481.8826293945312 L 124.8773574829102 481.8826293945312 L 124.8773574829102 480.8826293945312 C 124.8773574829102 480.8826293945312 129.8773498535156 480.8826293945312 129.8773498535156 480.8826293945312 L 129.8773498535156 481.8826293945312 Z M 139.8773498535156 481.8826293945312 L 134.8773498535156 481.8826293945312 L 134.8773498535156 480.8826293945312 C 134.8773498535156 480.8826293945312 139.8773498535156 480.8826293945312 139.8773498535156 480.8826293945312 L 139.8773498535156 481.8826293945312 Z M 149.8773498535156 481.8826293945312 L 144.8773498535156 481.8826293945312 L 144.8773498535156 480.8826293945312 C 144.8773498535156 480.8826293945312 149.8773498535156 480.8826293945312 149.8773498535156 480.8826293945312 L 149.8773498535156 481.8826293945312 Z M 150.54345703125 490.2165222167969 L 149.54345703125 490.2165222167969 L 149.54345703125 485.2165222167969 L 150.54345703125 485.2165222167969 L 150.54345703125 490.2165222167969 Z M 150.54345703125 500.2165222167969 L 149.54345703125 500.2165222167969 L 149.54345703125 495.2165222167969 L 150.54345703125 495.2165222167969 L 150.54345703125 500.2165222167969 Z M 150.54345703125 510.2165222167969 L 149.54345703125 510.2165222167969 L 149.54345703125 505.2165222167969 L 150.54345703125 505.2165222167969 L 150.54345703125 510.2165222167969 Z M 150.54345703125 520.216552734375 L 149.54345703125 520.216552734375 L 149.54345703125 515.216552734375 L 150.54345703125 515.216552734375 L 150.54345703125 520.216552734375 Z M 150.54345703125 530.216552734375 L 149.54345703125 530.216552734375 L 149.54345703125 525.216552734375 L 150.54345703125 525.216552734375 L 150.54345703125 530.216552734375 Z M 150.54345703125 540.216552734375 L 149.54345703125 540.216552734375 L 149.54345703125 535.216552734375 L 150.54345703125 535.216552734375 L 150.54345703125 540.216552734375 Z M 150.54345703125 550.216552734375 L 149.54345703125 550.216552734375 L 149.54345703125 545.216552734375 L 150.54345703125 545.216552734375 L 150.54345703125 550.216552734375 Z M 150.54345703125 560.216552734375 L 149.54345703125 560.216552734375 L 149.54345703125 555.216552734375 L 150.54345703125 555.216552734375 L 150.54345703125 560.216552734375 Z" stroke="none" fill="#6c81de"/>
      </g>
    </g>
    <path id="路径_2948" data-name="路径 2948" d="M41.5,0A41.5,41.5,0,1,0,83,41.5,41.5,41.5,0,0,0,41.5,0Z" transform="translate(1291 888)" fill="#7db33d"/>
    <g id="组_1981" data-name="组 1981" transform="translate(1319 906)">
      <g id="组_1964" data-name="组 1964" transform="translate(0 27.925)">
        <path id="路径_2932" data-name="路径 2932" d="M590.1,584.588a2.856,2.856,0,1,1-2.856-2.856A2.856,2.856,0,0,1,590.1,584.588Z" transform="translate(-584.388 -581.732)" fill="#fff"/>
      </g>
      <g id="组_1965" data-name="组 1965" transform="translate(0 34.906)">
        <path id="路径_2933" data-name="路径 2933" d="M590.1,610.365a2.856,2.856,0,1,1-2.856-2.856A2.856,2.856,0,0,1,590.1,610.365Z" transform="translate(-584.388 -607.509)" fill="#fff"/>
      </g>
      <g id="组_1966" data-name="组 1966" transform="translate(6.981 35.541)">
        <path id="路径_2934" data-name="路径 2934" d="M615.878,612.709a2.856,2.856,0,1,1-2.856-2.856A2.856,2.856,0,0,1,615.878,612.709Z" transform="translate(-610.166 -609.853)" fill="#fff"/>
      </g>
      <g id="组_1967" data-name="组 1967" transform="translate(0 41.888)">
        <path id="路径_2935" data-name="路径 2935" d="M590.1,636.143a2.856,2.856,0,1,1-2.856-2.856A2.856,2.856,0,0,1,590.1,636.143Z" transform="translate(-584.388 -633.287)" fill="#fff"/>
      </g>
      <g id="组_1968" data-name="组 1968" transform="translate(0)">
        <path id="路径_2936" data-name="路径 2936" d="M590.1,481.479a2.856,2.856,0,1,1-2.856-2.856A2.856,2.856,0,0,1,590.1,481.479Z" transform="translate(-584.388 -478.623)" fill="#fff"/>
      </g>
      <g id="组_1969" data-name="组 1969" transform="translate(0 20.944)">
        <path id="路径_2937" data-name="路径 2937" d="M590.1,558.811a2.856,2.856,0,1,1-2.856-2.856A2.856,2.856,0,0,1,590.1,558.811Z" transform="translate(-584.388 -555.955)" fill="#fff"/>
      </g>
      <g id="组_1970" data-name="组 1970" transform="translate(6.981 21.261)">
        <path id="路径_2938" data-name="路径 2938" d="M615.878,559.983a2.856,2.856,0,1,1-2.856-2.856A2.856,2.856,0,0,1,615.878,559.983Z" transform="translate(-610.166 -557.127)" fill="#fff"/>
      </g>
      <g id="组_1971" data-name="组 1971" transform="translate(6.981 28.401)">
        <path id="路径_2939" data-name="路径 2939" d="M615.878,586.346a2.856,2.856,0,1,1-2.856-2.856A2.856,2.856,0,0,1,615.878,586.346Z" transform="translate(-610.166 -583.49)" fill="#fff"/>
      </g>
      <g id="组_1972" data-name="组 1972" transform="translate(0 13.962)">
        <path id="路径_2940" data-name="路径 2940" d="M590.1,533.033a2.856,2.856,0,1,1-2.856-2.856A2.856,2.856,0,0,1,590.1,533.033Z" transform="translate(-584.388 -530.177)" fill="#fff"/>
      </g>
      <g id="组_1973" data-name="组 1973" transform="translate(6.981 14.121)">
        <path id="路径_2941" data-name="路径 2941" d="M615.878,533.62a2.856,2.856,0,1,1-2.856-2.856A2.856,2.856,0,0,1,615.878,533.62Z" transform="translate(-610.166 -530.764)" fill="#fff"/>
      </g>
      <g id="组_1974" data-name="组 1974" transform="translate(0 6.981)">
        <path id="路径_2942" data-name="路径 2942" d="M590.1,507.256a2.856,2.856,0,1,1-2.856-2.856A2.856,2.856,0,0,1,590.1,507.256Z" transform="translate(-584.388 -504.4)" fill="#fff"/>
      </g>
      <g id="组_1975" data-name="组 1975" transform="translate(6.981 6.981)">
        <path id="路径_2943" data-name="路径 2943" d="M615.878,507.256a2.856,2.856,0,1,1-2.856-2.856A2.856,2.856,0,0,1,615.878,507.256Z" transform="translate(-610.166 -504.4)" fill="#fff"/>
      </g>
      <g id="组_1976" data-name="组 1976" transform="translate(13.963 20.944)">
        <path id="路径_2944" data-name="路径 2944" d="M641.655,558.811a2.856,2.856,0,1,1-2.856-2.856A2.856,2.856,0,0,1,641.655,558.811Z" transform="translate(-635.943 -555.955)" fill="#fff"/>
      </g>
      <g id="组_1977" data-name="组 1977" transform="translate(13.963 27.925)">
        <path id="路径_2945" data-name="路径 2945" d="M641.655,584.588a2.856,2.856,0,1,1-2.856-2.856A2.856,2.856,0,0,1,641.655,584.588Z" transform="translate(-635.943 -581.732)" fill="#fff"/>
      </g>
      <g id="组_1978" data-name="组 1978" transform="translate(20.944 20.944)">
        <path id="路径_2946" data-name="路径 2946" d="M667.432,558.811a2.856,2.856,0,1,1-2.856-2.856A2.856,2.856,0,0,1,667.432,558.811Z" transform="translate(-661.72 -555.955)" fill="#fff"/>
      </g>
      <g id="组_1979" data-name="组 1979" transform="translate(13.963 13.962)">
        <path id="路径_2947" data-name="路径 2947" d="M641.655,533.033a2.856,2.856,0,1,1-2.856-2.856A2.856,2.856,0,0,1,641.655,533.033Z" transform="translate(-635.943 -530.177)" fill="#fff"/>
      </g>
    </g>
  </g>
</svg>
