<svg xmlns="http://www.w3.org/2000/svg" width="40.493" height="227.317" viewBox="0 0 40.493 227.317">
  <g id="Performance" transform="translate(245.044 -678.5) rotate(90)">
    <path id="矩形_1602" data-name="矩形 1602" d="M19,0H193.737a19,19,0,0,1,19,19V39.833a0,0,0,0,1,0,0H0a0,0,0,0,1,0,0V19A19,19,0,0,1,19,0Z" transform="translate(897.896 245.044) rotate(180)" fill="#00afcf"/>
    <g id="组_1954" data-name="组 1954" transform="translate(678.5 206.62)">
      <path id="路径_2792" data-name="路径 2792" d="M-164.418,108.12l-6.643,10.192h6.643Z" transform="translate(171.062 -108.12)" fill="#00829a"/>
      <path id="路径_2793" data-name="路径 2793" d="M-124.134,108.12l7.992,12.261h-7.992Z" transform="translate(343.459 -110.189)" fill="#00829a"/>
    </g>
    <text id="績_效_管_考_項_目" data-name="績效管考項目" transform="translate(745.158 234.11) rotate(-90)" fill="#fff" font-size="20" font-family="MicrosoftJhengHeiBold, Microsoft JhengHei"><tspan x="0" y="0">績</tspan><tspan x="0" y="22">效</tspan><tspan x="0" y="44">管</tspan><tspan x="0" y="66">考</tspan><tspan x="0" y="88">項</tspan><tspan x="0" y="110">目</tspan></text>
  </g>
</svg>
