<svg xmlns="http://www.w3.org/2000/svg" width="218" height="676.333" viewBox="0 0 218 676.333">
  <g id="Performance_content" transform="translate(22 -211.667)">
    <g id="Performance_content-2" data-name="Performance_content" transform="translate(-22 211.667)" fill="#fff">
      <path d="M 198 674.8333129882812 L 1.5 674.8333129882812 L 1.5 1.499989867210388 L 198 1.499989867210388 C 202.9284973144531 1.499989867210388 207.565673828125 3.513239860534668 211.0574188232422 7.168989658355713 C 212.7624969482422 8.954156875610352 214.1015777587891 11.03390693664551 215.0375061035156 13.35057353973389 C 216.0079193115234 15.75265693664551 216.5 18.30582237243652 216.5 20.93915557861328 L 216.5 655.3941650390625 C 216.5 658.0274658203125 216.0079193115234 660.5806274414062 215.0375061035156 662.9827270507812 C 214.1015777587891 665.2993774414062 212.7624969482422 667.379150390625 211.0574188232422 669.164306640625 C 207.565673828125 672.820068359375 202.9284973144531 674.8333129882812 198 674.8333129882812 Z" stroke="none"/>
      <path d="M 3 3 L 3 673.3333129882812 L 198 673.3333129882812 C 202.5147247314453 673.3333129882812 206.7667236328125 671.4847412109375 209.9727325439453 668.1282958984375 C 213.2146301269531 664.734130859375 215 660.2117309570312 215 655.3941040039062 L 215 20.9390869140625 C 215 16.12158203125 213.2146301269531 11.59912109375 209.9727325439453 8.20501708984375 C 206.7667236328125 4.84857177734375 202.5147247314453 3 198 3 L 3 3 M 0 0 L 198 0 C 209.0457305908203 0 218 9.374755859375 218 20.9390869140625 L 218 655.3941040039062 C 218 666.9585571289062 209.0457305908203 676.3333129882812 198 676.3333129882812 L 0 676.3333129882812 L 0 0 Z" stroke="none" fill="#5ebecf"/>
    </g>
    <g id="组件_7_1" data-name="组件 7 – 1" transform="translate(-0.5 243)">
      <g id="组_1946" data-name="组 1946" transform="translate(14.5 -31)">
        <text id="尚缺檢驗資料" transform="translate(-1 47)" fill="#333" font-size="15" font-family="MicrosoftJhengHeiBold, Microsoft JhengHei"><tspan x="0" y="0">尚缺檢驗資料</tspan></text>
        <g id="组_1947" data-name="组 1947" transform="translate(0 45.624)">
          <text id="_100" data-name="100" transform="translate(0 46.376)" fill="#49d4ed" font-size="43" font-family="MicrosoftJhengHeiBold, Microsoft JhengHei"><tspan x="0" y="0">100</tspan></text>
          <text id="件" transform="translate(80 47.376)" font-size="20" font-family="YuGothicUI-Regular, Yu Gothic UI"><tspan x="0" y="0">件</tspan></text>
        </g>
      </g>
      <line id="直线_39" data-name="直线 39" x2="157" transform="translate(0 77.5)" fill="none" stroke="#8ddef4" stroke-width="1"/>
    </g>
    <g id="组件_7_2" data-name="组件 7 – 2" transform="translate(-0.5 331.029)">
      <g id="组_1946-2" data-name="组 1946" transform="translate(14.5 -31)">
        <text id="待告發稽查" transform="translate(-1 47)" fill="#333" font-size="15" font-family="MicrosoftJhengHeiBold, Microsoft JhengHei"><tspan x="0" y="0">待告發稽查</tspan></text>
        <g id="组_1947-2" data-name="组 1947" transform="translate(0 45.624)">
          <text id="_678" data-name="678" transform="translate(0 46.376)" fill="#7db33d" font-size="43" font-family="MicrosoftJhengHeiBold, Microsoft JhengHei"><tspan x="0" y="0">678</tspan></text>
          <text id="件-2" data-name="件" transform="translate(80 47.376)" font-size="20" font-family="YuGothicUI-Regular, Yu Gothic UI"><tspan x="0" y="0">件</tspan></text>
        </g>
      </g>
      <line id="直线_39-2" data-name="直线 39" x2="157" transform="translate(0 77.5)" fill="none" stroke="#8ddef4" stroke-width="1"/>
    </g>
    <g id="组件_7_3" data-name="组件 7 – 3" transform="translate(-0.5 419.059)">
      <g id="组_1946-3" data-name="组 1946" transform="translate(14.5 -31)">
        <text id="大隊交辦待告發" transform="translate(-1 47)" fill="#333" font-size="15" font-family="MicrosoftJhengHeiBold, Microsoft JhengHei"><tspan x="0" y="0">大隊交辦待告發</tspan></text>
        <g id="组_1947-3" data-name="组 1947" transform="translate(0 45.624)">
          <text id="_796" data-name="796" transform="translate(0 46.376)" fill="#6c81de" font-size="43" font-family="MicrosoftJhengHeiBold, Microsoft JhengHei"><tspan x="0" y="0">796</tspan></text>
          <text id="件-3" data-name="件" transform="translate(80 47.376)" font-size="20" font-family="YuGothicUI-Regular, Yu Gothic UI"><tspan x="0" y="0">件</tspan></text>
        </g>
      </g>
      <line id="直线_39-3" data-name="直线 39" x2="157" transform="translate(0 77.5)" fill="none" stroke="#8ddef4" stroke-width="1"/>
    </g>
    <g id="组件_7_4" data-name="组件 7 – 4" transform="translate(-0.5 507.088)">
      <g id="组_1946-4" data-name="组 1946" transform="translate(14.5 -31)">
        <text id="已告發未裁處" transform="translate(-1 47)" fill="#333" font-size="15" font-family="MicrosoftJhengHeiBold, Microsoft JhengHei"><tspan x="0" y="0">已告發未裁處</tspan></text>
        <g id="组_1947-4" data-name="组 1947" transform="translate(0 45.624)">
          <text id="_666" data-name="666" transform="translate(0 46.376)" fill="#e74a31" font-size="43" font-family="MicrosoftJhengHeiBold, Microsoft JhengHei"><tspan x="0" y="0">666</tspan></text>
          <text id="件-4" data-name="件" transform="translate(80 47.376)" font-size="20" font-family="YuGothicUI-Regular, Yu Gothic UI"><tspan x="0" y="0">件</tspan></text>
        </g>
      </g>
      <line id="直线_39-4" data-name="直线 39" x2="157" transform="translate(0 77.5)" fill="none" stroke="#8ddef4" stroke-width="1"/>
    </g>
    <g id="组件_7_5" data-name="组件 7 – 5" transform="translate(-0.5 708.147)">
      <g id="组_1946-5" data-name="组 1946" transform="translate(14.5 -31)">
        <text id="未輸入改善完妥日期" transform="translate(-1 47)" fill="#333" font-size="15" font-family="MicrosoftJhengHeiBold, Microsoft JhengHei"><tspan x="0" y="0">未輸入改善完妥日期</tspan></text>
        <g id="组_1947-5" data-name="组 1947" transform="translate(0 45.624)">
          <text id="_888" data-name="888" transform="translate(0 46.376)" fill="#fea932" font-size="43" font-family="MicrosoftJhengHeiBold, Microsoft JhengHei"><tspan x="0" y="0">888</tspan></text>
          <text id="件-5" data-name="件" transform="translate(80 47.376)" font-size="20" font-family="YuGothicUI-Regular, Yu Gothic UI"><tspan x="0" y="0">件</tspan></text>
        </g>
      </g>
      <line id="直线_39-5" data-name="直线 39" x2="157" transform="translate(0 77.5)" fill="none" stroke="#8ddef4" stroke-width="1"/>
    </g>
    <g id="组件_7_6" data-name="组件 7 – 6" transform="translate(-0.5 797.177)">
      <g id="组_1946-6" data-name="组 1946" transform="translate(14.5 -31)">
        <text id="尚缺訴願結果裁處" transform="translate(-1 47)" fill="#333" font-size="15" font-family="MicrosoftJhengHeiBold, Microsoft JhengHei"><tspan x="0" y="0">尚缺訴願結果裁處</tspan></text>
        <g id="组_1947-6" data-name="组 1947" transform="translate(0 45.624)">
          <text id="_486" data-name="486" transform="translate(0 46.376)" fill="#49d4ed" font-size="43" font-family="MicrosoftJhengHeiBold, Microsoft JhengHei"><tspan x="0" y="0">486</tspan></text>
          <text id="件-6" data-name="件" transform="translate(80 47.376)" font-size="20" font-family="YuGothicUI-Regular, Yu Gothic UI"><tspan x="0" y="0">件</tspan></text>
        </g>
      </g>
      <line id="直线_39-6" data-name="直线 39" x2="157" transform="translate(0 77.5)" fill="none" stroke="#8ddef4" stroke-width="1"/>
    </g>
    <g id="组件_7_7" data-name="组件 7 – 7" transform="translate(-0.5 596.118)">
      <g id="组_1946-7" data-name="组 1946" transform="translate(14.5 -31)">
        <text id="逾期未繳且未催繳_及未強制執行" data-name="逾期未繳且未催繳
及未強制執行" transform="translate(-1 47)" fill="#333" font-size="15" font-family="MicrosoftJhengHeiBold, Microsoft JhengHei"><tspan x="0" y="0">逾期未繳且未催繳</tspan><tspan x="0" y="18">及未強制執行</tspan></text>
        <g id="组_1947-7" data-name="组 1947" transform="translate(0 69.624)">
          <text id="_123" data-name="123" transform="translate(0 49.376)" fill="#ea7f84" font-size="43" font-family="MicrosoftJhengHeiBold, Microsoft JhengHei"><tspan x="0" y="0">123</tspan></text>
          <text id="件-7" data-name="件" transform="translate(80 47.376)" font-size="20" font-family="YuGothicUI-Regular, Yu Gothic UI"><tspan x="0" y="0">件</tspan></text>
        </g>
      </g>
      <line id="直线_39-7" data-name="直线 39" x2="157" transform="translate(0 103.5)" fill="none" stroke="#8ddef4" stroke-width="1"/>
    </g>
  </g>
</svg>
