<svg xmlns="http://www.w3.org/2000/svg" width="249.335" height="83" viewBox="0 0 249.335 83">
  <g id="prev" transform="translate(-742 -888)">
    <g id="路径_2796" data-name="路径 2796" transform="translate(840.458 407.117)" fill="#fff" stroke-dasharray="5">
      <path d="M-45.79,563.883v-83H150.877v83Z" stroke="none"/>
      <path d="M 150.876953125 563.8826293945312 L 145.876953125 563.8826293945312 L 145.876953125 562.8826293945312 L 150.876953125 562.8826293945312 L 150.876953125 563.8826293945312 Z M 140.876953125 563.8826293945312 L 135.876953125 563.8826293945312 L 135.876953125 562.8826293945312 L 140.876953125 562.8826293945312 L 140.876953125 563.8826293945312 Z M 130.876953125 563.8826293945312 L 125.876953125 563.8826293945312 L 125.876953125 562.8826293945312 L 130.876953125 562.8826293945312 L 130.876953125 563.8826293945312 Z M 120.876953125 563.8826293945312 L 115.876953125 563.8826293945312 L 115.876953125 562.8826293945312 L 120.876953125 562.8826293945312 L 120.876953125 563.8826293945312 Z M 110.876953125 563.8826293945312 L 105.876953125 563.8826293945312 L 105.876953125 562.8826293945312 L 110.876953125 562.8826293945312 L 110.876953125 563.8826293945312 Z M 100.876953125 563.8826293945312 L 95.876953125 563.8826293945312 L 95.876953125 562.8826293945312 L 100.876953125 562.8826293945312 L 100.876953125 563.8826293945312 Z M 90.876953125 563.8826293945312 L 85.876953125 563.8826293945312 L 85.876953125 562.8826293945312 L 90.876953125 562.8826293945312 L 90.876953125 563.8826293945312 Z M 80.876953125 563.8826293945312 L 75.876953125 563.8826293945312 L 75.876953125 562.8826293945312 L 80.876953125 562.8826293945312 L 80.876953125 563.8826293945312 Z M 70.876953125 563.8826293945312 L 65.876953125 563.8826293945312 L 65.876953125 562.8826293945312 L 70.876953125 562.8826293945312 L 70.876953125 563.8826293945312 Z M 60.876953125 563.8826293945312 L 55.876953125 563.8826293945312 L 55.876953125 562.8826293945312 L 60.876953125 562.8826293945312 L 60.876953125 563.8826293945312 Z M 50.876953125 563.8826293945312 L 45.876953125 563.8826293945312 L 45.876953125 562.8826293945312 L 50.876953125 562.8826293945312 L 50.876953125 563.8826293945312 Z M 40.876953125 563.8826293945312 L 35.876953125 563.8826293945312 L 35.876953125 562.8826293945312 L 40.876953125 562.8826293945312 L 40.876953125 563.8826293945312 Z M 30.876953125 563.8826293945312 L 25.876953125 563.8826293945312 L 25.876953125 562.8826293945312 L 30.876953125 562.8826293945312 L 30.876953125 563.8826293945312 Z M 20.876953125 563.8826293945312 L 15.876953125 563.8826293945312 L 15.876953125 562.8826293945312 L 20.876953125 562.8826293945312 L 20.876953125 563.8826293945312 Z M 10.876953125 563.8826293945312 L 5.876953125 563.8826293945312 L 5.876953125 562.8826293945312 L 10.876953125 562.8826293945312 L 10.876953125 563.8826293945312 Z M 0.8769533038139343 563.8826293945312 L -4.123046875 563.8826293945312 L -4.123046875 562.8826293945312 L 0.8769533038139343 562.8826293945312 L 0.8769533038139343 563.8826293945312 Z M -9.123046875 563.8826293945312 L -14.123046875 563.8826293945312 L -14.123046875 562.8826293945312 L -9.123046875 562.8826293945312 L -9.123046875 563.8826293945312 Z M -19.123046875 563.8826293945312 L -24.123046875 563.8826293945312 L -24.123046875 562.8826293945312 L -19.123046875 562.8826293945312 L -19.123046875 563.8826293945312 Z M -29.123046875 563.8826293945312 L -34.123046875 563.8826293945312 L -34.123046875 562.8826293945312 L -29.123046875 562.8826293945312 L -29.123046875 563.8826293945312 Z M -39.123046875 563.8826293945312 L -44.123046875 563.8826293945312 L -44.123046875 562.8826293945312 L -39.123046875 562.8826293945312 L -39.123046875 563.8826293945312 Z M -44.78959655761719 560.5491943359375 L -45.78959655761719 560.5491943359375 C -45.78959655761719 560.5491943359375 -45.78959655761719 555.5491943359375 -45.78959655761719 555.5491943359375 L -44.78959655761719 555.5491943359375 L -44.78959655761719 560.5491943359375 Z M -44.78959655761719 550.5491943359375 L -45.78959655761719 550.5491943359375 C -45.78959655761719 550.5491943359375 -45.78959655761719 545.5491943359375 -45.78959655761719 545.5491943359375 L -44.78959655761719 545.5491943359375 L -44.78959655761719 550.5491943359375 Z M -44.78959655761719 540.5491943359375 L -45.78959655761719 540.5491943359375 C -45.78959655761719 540.5491943359375 -45.78959655761719 535.5491943359375 -45.78959655761719 535.5491943359375 L -44.78959655761719 535.5491943359375 L -44.78959655761719 540.5491943359375 Z M -44.78959655761719 530.5491943359375 L -45.78959655761719 530.5491943359375 C -45.78959655761719 530.5491943359375 -45.78959655761719 525.5491943359375 -45.78959655761719 525.5491943359375 L -44.78959655761719 525.5491943359375 L -44.78959655761719 530.5491943359375 Z M -44.78959655761719 520.5491943359375 L -45.78959655761719 520.5491943359375 C -45.78959655761719 520.5491943359375 -45.78959655761719 515.5491943359375 -45.78959655761719 515.5491943359375 L -44.78959655761719 515.5491943359375 L -44.78959655761719 520.5491943359375 Z M -44.78959655761719 510.5491943359375 L -45.78959655761719 510.5491943359375 C -45.78959655761719 510.5491943359375 -45.78959655761719 505.5491943359375 -45.78959655761719 505.5491943359375 L -44.78959655761719 505.5491943359375 L -44.78959655761719 510.5491943359375 Z M -44.78959655761719 500.5491943359375 L -45.78959655761719 500.5491943359375 C -45.78959655761719 500.5491943359375 -45.78959655761719 495.5491943359375 -45.78959655761719 495.5491943359375 L -44.78959655761719 495.5491943359375 L -44.78959655761719 500.5491943359375 Z M -44.78959655761719 490.5491943359375 L -45.78959655761719 490.5491943359375 C -45.78959655761719 490.5491943359375 -45.78959655761719 485.5491943359375 -45.78959655761719 485.5491943359375 L -44.78959655761719 485.5491943359375 L -44.78959655761719 490.5491943359375 Z M -40.45614624023438 481.8826293945312 L -45.45614624023438 481.8826293945312 L -45.45614624023438 480.8826293945312 C -45.45614624023438 480.8826293945312 -40.45614624023438 480.8826293945312 -40.45614624023438 480.8826293945312 L -40.45614624023438 481.8826293945312 Z M -30.45614624023438 481.8826293945312 L -35.45614624023438 481.8826293945312 L -35.45614624023438 480.8826293945312 C -35.45614624023438 480.8826293945312 -30.45614624023438 480.8826293945312 -30.45614624023438 480.8826293945312 L -30.45614624023438 481.8826293945312 Z M -20.45614624023438 481.8826293945312 L -25.45614624023438 481.8826293945312 L -25.45614624023438 480.8826293945312 C -25.45614624023438 480.8826293945312 -20.45614624023438 480.8826293945312 -20.45614624023438 480.8826293945312 L -20.45614624023438 481.8826293945312 Z M -10.45614624023438 481.8826293945312 L -15.45614624023438 481.8826293945312 L -15.45614624023438 480.8826293945312 C -15.45614624023438 480.8826293945312 -10.45614624023438 480.8826293945312 -10.45614624023438 480.8826293945312 L -10.45614624023438 481.8826293945312 Z M -0.4561467170715332 481.8826293945312 L -5.456146717071533 481.8826293945312 L -5.456146717071533 480.8826293945312 C -5.456146717071533 480.8826293945312 -0.4561467170715332 480.8826293945312 -0.4561467170715332 480.8826293945312 L -0.4561467170715332 481.8826293945312 Z M 9.543853759765625 481.8826293945312 L 4.543853282928467 481.8826293945312 L 4.543853282928467 480.8826293945312 C 4.543853282928467 480.8826293945312 9.543853759765625 480.8826293945312 9.543853759765625 480.8826293945312 L 9.543853759765625 481.8826293945312 Z M 19.54385375976562 481.8826293945312 L 14.54385375976562 481.8826293945312 L 14.54385375976562 480.8826293945312 C 14.54385375976562 480.8826293945312 19.54385375976562 480.8826293945312 19.54385375976562 480.8826293945312 L 19.54385375976562 481.8826293945312 Z M 29.54385375976562 481.8826293945312 L 24.54385375976562 481.8826293945312 L 24.54385375976562 480.8826293945312 C 24.54385375976562 480.8826293945312 29.54385375976562 480.8826293945312 29.54385375976562 480.8826293945312 L 29.54385375976562 481.8826293945312 Z M 39.54385375976562 481.8826293945312 L 34.54385375976562 481.8826293945312 L 34.54385375976562 480.8826293945312 C 34.54385375976562 480.8826293945312 39.54385375976562 480.8826293945312 39.54385375976562 480.8826293945312 L 39.54385375976562 481.8826293945312 Z M 49.54385375976562 481.8826293945312 L 44.54385375976562 481.8826293945312 L 44.54385375976562 480.8826293945312 C 44.54385375976562 480.8826293945312 49.54385375976562 480.8826293945312 49.54385375976562 480.8826293945312 L 49.54385375976562 481.8826293945312 Z M 59.54385375976562 481.8826293945312 L 54.54385375976562 481.8826293945312 L 54.54385375976562 480.8826293945312 C 54.54385375976562 480.8826293945312 59.54385375976562 480.8826293945312 59.54385375976562 480.8826293945312 L 59.54385375976562 481.8826293945312 Z M 69.54385375976562 481.8826293945312 L 64.54385375976562 481.8826293945312 L 64.54385375976562 480.8826293945312 C 64.54385375976562 480.8826293945312 69.54385375976562 480.8826293945312 69.54385375976562 480.8826293945312 L 69.54385375976562 481.8826293945312 Z M 79.54385375976562 481.8826293945312 L 74.54385375976562 481.8826293945312 L 74.54385375976562 480.8826293945312 C 74.54385375976562 480.8826293945312 79.54385375976562 480.8826293945312 79.54385375976562 480.8826293945312 L 79.54385375976562 481.8826293945312 Z M 89.54385375976562 481.8826293945312 L 84.54385375976562 481.8826293945312 L 84.54385375976562 480.8826293945312 C 84.54385375976562 480.8826293945312 89.54385375976562 480.8826293945312 89.54385375976562 480.8826293945312 L 89.54385375976562 481.8826293945312 Z M 99.54385375976562 481.8826293945312 L 94.54385375976562 481.8826293945312 L 94.54385375976562 480.8826293945312 C 94.54385375976562 480.8826293945312 99.54385375976562 480.8826293945312 99.54385375976562 480.8826293945312 L 99.54385375976562 481.8826293945312 Z M 109.5438537597656 481.8826293945312 L 104.5438537597656 481.8826293945312 L 104.5438537597656 480.8826293945312 C 104.5438537597656 480.8826293945312 109.5438537597656 480.8826293945312 109.5438537597656 480.8826293945312 L 109.5438537597656 481.8826293945312 Z M 119.5438537597656 481.8826293945312 L 114.5438537597656 481.8826293945312 L 114.5438537597656 480.8826293945312 C 114.5438537597656 480.8826293945312 119.5438537597656 480.8826293945312 119.5438537597656 480.8826293945312 L 119.5438537597656 481.8826293945312 Z M 129.5438537597656 481.8826293945312 L 124.5438537597656 481.8826293945312 L 124.5438537597656 480.8826293945312 C 124.5438537597656 480.8826293945312 129.5438537597656 480.8826293945312 129.5438537597656 480.8826293945312 L 129.5438537597656 481.8826293945312 Z M 139.5438537597656 481.8826293945312 L 134.5438537597656 481.8826293945312 L 134.5438537597656 480.8826293945312 C 134.5438537597656 480.8826293945312 139.5438537597656 480.8826293945312 139.5438537597656 480.8826293945312 L 139.5438537597656 481.8826293945312 Z M 149.5438537597656 481.8826293945312 L 144.5438537597656 481.8826293945312 L 144.5438537597656 480.8826293945312 C 144.5438537597656 480.8826293945312 149.5438537597656 480.8826293945312 149.5438537597656 480.8826293945312 L 149.5438537597656 481.8826293945312 Z M 150.876953125 489.5495300292969 L 149.876953125 489.5495300292969 L 149.876953125 484.5495300292969 L 150.876953125 484.5495300292969 L 150.876953125 489.5495300292969 Z M 150.876953125 499.5495300292969 L 149.876953125 499.5495300292969 L 149.876953125 494.5495300292969 L 150.876953125 494.5495300292969 L 150.876953125 499.5495300292969 Z M 150.876953125 509.5495300292969 L 149.876953125 509.5495300292969 L 149.876953125 504.5495300292969 L 150.876953125 504.5495300292969 L 150.876953125 509.5495300292969 Z M 150.876953125 519.5494995117188 L 149.876953125 519.5494995117188 L 149.876953125 514.5494995117188 L 150.876953125 514.5494995117188 L 150.876953125 519.5494995117188 Z M 150.876953125 529.5494995117188 L 149.876953125 529.5494995117188 L 149.876953125 524.5494995117188 L 150.876953125 524.5494995117188 L 150.876953125 529.5494995117188 Z M 150.876953125 539.5494995117188 L 149.876953125 539.5494995117188 L 149.876953125 534.5494995117188 L 150.876953125 534.5494995117188 L 150.876953125 539.5494995117188 Z M 150.876953125 549.5494995117188 L 149.876953125 549.5494995117188 L 149.876953125 544.5494995117188 L 150.876953125 544.5494995117188 L 150.876953125 549.5494995117188 Z M 150.876953125 559.5494995117188 L 149.876953125 559.5494995117188 L 149.876953125 554.5494995117188 L 150.876953125 554.5494995117188 L 150.876953125 559.5494995117188 Z" stroke="none" fill="#36c8e3"/>
    </g>
    <path id="路径_2931" data-name="路径 2931" d="M41.5,0A41.5,41.5,0,1,1,0,41.5,41.5,41.5,0,0,1,41.5,0Z" transform="translate(742 888)" fill="#007dc6"/>
    <g id="组_1980" data-name="组 1980" transform="translate(770 906)">
      <g id="组_1964" data-name="组 1964" transform="translate(20.944 27.925)">
        <path id="路径_2932" data-name="路径 2932" d="M584.388,584.588a2.856,2.856,0,1,0,2.856-2.856A2.856,2.856,0,0,0,584.388,584.588Z" transform="translate(-584.388 -581.732)" fill="#fff"/>
      </g>
      <g id="组_1965" data-name="组 1965" transform="translate(20.944 34.906)">
        <path id="路径_2933" data-name="路径 2933" d="M584.388,610.365a2.856,2.856,0,1,0,2.856-2.856A2.856,2.856,0,0,0,584.388,610.365Z" transform="translate(-584.388 -607.509)" fill="#fff"/>
      </g>
      <g id="组_1966" data-name="组 1966" transform="translate(13.963 35.541)">
        <path id="路径_2934" data-name="路径 2934" d="M610.166,612.709a2.856,2.856,0,1,0,2.856-2.856A2.856,2.856,0,0,0,610.166,612.709Z" transform="translate(-610.166 -609.853)" fill="#fff"/>
      </g>
      <g id="组_1967" data-name="组 1967" transform="translate(20.944 41.888)">
        <path id="路径_2935" data-name="路径 2935" d="M584.388,636.143a2.856,2.856,0,1,0,2.856-2.856A2.856,2.856,0,0,0,584.388,636.143Z" transform="translate(-584.388 -633.287)" fill="#fff"/>
      </g>
      <g id="组_1968" data-name="组 1968" transform="translate(20.944)">
        <path id="路径_2936" data-name="路径 2936" d="M584.388,481.479a2.856,2.856,0,1,0,2.856-2.856A2.856,2.856,0,0,0,584.388,481.479Z" transform="translate(-584.388 -478.623)" fill="#fff"/>
      </g>
      <g id="组_1969" data-name="组 1969" transform="translate(20.944 20.944)">
        <path id="路径_2937" data-name="路径 2937" d="M584.388,558.811a2.856,2.856,0,1,0,2.856-2.856A2.856,2.856,0,0,0,584.388,558.811Z" transform="translate(-584.388 -555.955)" fill="#fff"/>
      </g>
      <g id="组_1970" data-name="组 1970" transform="translate(13.963 21.261)">
        <path id="路径_2938" data-name="路径 2938" d="M610.166,559.983a2.856,2.856,0,1,0,2.856-2.856A2.856,2.856,0,0,0,610.166,559.983Z" transform="translate(-610.166 -557.127)" fill="#fff"/>
      </g>
      <g id="组_1971" data-name="组 1971" transform="translate(13.963 28.401)">
        <path id="路径_2939" data-name="路径 2939" d="M610.166,586.346a2.856,2.856,0,1,0,2.856-2.856A2.856,2.856,0,0,0,610.166,586.346Z" transform="translate(-610.166 -583.49)" fill="#fff"/>
      </g>
      <g id="组_1972" data-name="组 1972" transform="translate(20.944 13.962)">
        <path id="路径_2940" data-name="路径 2940" d="M584.388,533.033a2.856,2.856,0,1,0,2.856-2.856A2.856,2.856,0,0,0,584.388,533.033Z" transform="translate(-584.388 -530.177)" fill="#fff"/>
      </g>
      <g id="组_1973" data-name="组 1973" transform="translate(13.963 14.121)">
        <path id="路径_2941" data-name="路径 2941" d="M610.166,533.62a2.856,2.856,0,1,0,2.856-2.856A2.856,2.856,0,0,0,610.166,533.62Z" transform="translate(-610.166 -530.764)" fill="#fff"/>
      </g>
      <g id="组_1974" data-name="组 1974" transform="translate(20.944 6.981)">
        <path id="路径_2942" data-name="路径 2942" d="M584.388,507.256a2.856,2.856,0,1,0,2.856-2.856A2.856,2.856,0,0,0,584.388,507.256Z" transform="translate(-584.388 -504.4)" fill="#fff"/>
      </g>
      <g id="组_1975" data-name="组 1975" transform="translate(13.963 6.981)">
        <path id="路径_2943" data-name="路径 2943" d="M610.166,507.256a2.856,2.856,0,1,0,2.856-2.856A2.856,2.856,0,0,0,610.166,507.256Z" transform="translate(-610.166 -504.4)" fill="#fff"/>
      </g>
      <g id="组_1976" data-name="组 1976" transform="translate(6.981 20.944)">
        <path id="路径_2944" data-name="路径 2944" d="M635.943,558.811a2.856,2.856,0,1,0,2.856-2.856A2.856,2.856,0,0,0,635.943,558.811Z" transform="translate(-635.943 -555.955)" fill="#fff"/>
      </g>
      <g id="组_1977" data-name="组 1977" transform="translate(6.981 27.925)">
        <path id="路径_2945" data-name="路径 2945" d="M635.943,584.588a2.856,2.856,0,1,0,2.856-2.856A2.856,2.856,0,0,0,635.943,584.588Z" transform="translate(-635.943 -581.732)" fill="#fff"/>
      </g>
      <g id="组_1978" data-name="组 1978" transform="translate(0 20.944)">
        <path id="路径_2946" data-name="路径 2946" d="M661.72,558.811a2.856,2.856,0,1,0,2.856-2.856A2.856,2.856,0,0,0,661.72,558.811Z" transform="translate(-661.72 -555.955)" fill="#fff"/>
      </g>
      <g id="组_1979" data-name="组 1979" transform="translate(6.981 13.962)">
        <path id="路径_2947" data-name="路径 2947" d="M635.943,533.033a2.856,2.856,0,1,0,2.856-2.856A2.856,2.856,0,0,0,635.943,533.033Z" transform="translate(-635.943 -530.177)" fill="#fff"/>
      </g>
    </g>
  </g>
</svg>
