<svg xmlns="http://www.w3.org/2000/svg" width="563" height="115.253" viewBox="0 0 563 115.253">
  <g id="step3" transform="translate(-4407.44 -1599.5)">
    <g id="组件_4_17" data-name="组件 4 – 17" transform="translate(4407.44 1600)">
      <path id="路径_2926" data-name="路径 2926" d="M471.955,466.228H369.01V441.594H471.955l11.134,12.317Z" transform="translate(475.86 -369.01) rotate(90)" fill="#6c81de" stroke="#6c81de" stroke-width="1" stroke-dasharray="3"/>
      <rect id="矩形_1609" data-name="矩形 1609" width="83" height="83" rx="41.5" transform="translate(148.5 15.54)" fill="#6c81de"/>
      <g id="路径_2796" data-name="路径 2796" transform="translate(80.056 -465.343)" fill="#fff" stroke-dasharray="5">
        <path d="M-45.79,563.883v-83H114.943v83Z" stroke="none"/>
        <path d="M 114.943359375 563.8826293945312 L 109.943359375 563.8826293945312 L 109.943359375 562.8826293945312 L 114.943359375 562.8826293945312 L 114.943359375 563.8826293945312 Z M 104.943359375 563.8826293945312 L 99.943359375 563.8826293945312 L 99.943359375 562.8826293945312 L 104.943359375 562.8826293945312 L 104.943359375 563.8826293945312 Z M 94.943359375 563.8826293945312 L 89.943359375 563.8826293945312 L 89.943359375 562.8826293945312 L 94.943359375 562.8826293945312 L 94.943359375 563.8826293945312 Z M 84.943359375 563.8826293945312 L 79.943359375 563.8826293945312 L 79.943359375 562.8826293945312 L 84.943359375 562.8826293945312 L 84.943359375 563.8826293945312 Z M 74.943359375 563.8826293945312 L 69.943359375 563.8826293945312 L 69.943359375 562.8826293945312 L 74.943359375 562.8826293945312 L 74.943359375 563.8826293945312 Z M 64.943359375 563.8826293945312 L 59.943359375 563.8826293945312 L 59.943359375 562.8826293945312 L 64.943359375 562.8826293945312 L 64.943359375 563.8826293945312 Z M 54.943359375 563.8826293945312 L 49.943359375 563.8826293945312 L 49.943359375 562.8826293945312 L 54.943359375 562.8826293945312 L 54.943359375 563.8826293945312 Z M 44.943359375 563.8826293945312 L 39.943359375 563.8826293945312 L 39.943359375 562.8826293945312 L 44.943359375 562.8826293945312 L 44.943359375 563.8826293945312 Z M 34.943359375 563.8826293945312 L 29.94336128234863 563.8826293945312 L 29.94336128234863 562.8826293945312 L 34.943359375 562.8826293945312 L 34.943359375 563.8826293945312 Z M 24.94336128234863 563.8826293945312 L 19.94336128234863 563.8826293945312 L 19.94336128234863 562.8826293945312 L 24.94336128234863 562.8826293945312 L 24.94336128234863 563.8826293945312 Z M 14.94336032867432 563.8826293945312 L 9.943360328674316 563.8826293945312 L 9.943360328674316 562.8826293945312 L 14.94336032867432 562.8826293945312 L 14.94336032867432 563.8826293945312 Z M 4.943360805511475 563.8826293945312 L -0.0566394254565239 563.8826293945312 L -0.0566394254565239 562.8826293945312 L 4.943360805511475 562.8826293945312 L 4.943360805511475 563.8826293945312 Z M -5.056639194488525 563.8826293945312 L -10.05663967132568 563.8826293945312 L -10.05663967132568 562.8826293945312 L -5.056639194488525 562.8826293945312 L -5.056639194488525 563.8826293945312 Z M -15.05663967132568 563.8826293945312 L -20.05663871765137 563.8826293945312 L -20.05663871765137 562.8826293945312 L -15.05663967132568 562.8826293945312 L -15.05663967132568 563.8826293945312 Z M -25.05663871765137 563.8826293945312 L -30.05663871765137 563.8826293945312 L -30.05663871765137 562.8826293945312 L -25.05663871765137 562.8826293945312 L -25.05663871765137 563.8826293945312 Z M -35.056640625 563.8826293945312 L -40.056640625 563.8826293945312 L -40.056640625 562.8826293945312 L -35.056640625 562.8826293945312 L -35.056640625 563.8826293945312 Z M -44.78959655761719 563.8826293945312 L -45.78959655761719 563.8826293945312 L -45.78959655761719 562.8826293945312 C -45.78959655761719 561.6214599609375 -45.78959655761719 559.6156005859375 -45.78959655761719 559.6156005859375 L -44.78959655761719 559.6156005859375 L -44.78959655761719 563.8826293945312 Z M -44.78959655761719 554.6156005859375 L -45.78959655761719 554.6156005859375 C -45.78959655761719 554.6156005859375 -45.78959655761719 549.6156005859375 -45.78959655761719 549.6156005859375 L -44.78959655761719 549.6156005859375 L -44.78959655761719 554.6156005859375 Z M -44.78959655761719 544.6156005859375 L -45.78959655761719 544.6156005859375 C -45.78959655761719 544.6156005859375 -45.78959655761719 539.6156005859375 -45.78959655761719 539.6156005859375 L -44.78959655761719 539.6156005859375 L -44.78959655761719 544.6156005859375 Z M -44.78959655761719 534.6156005859375 L -45.78959655761719 534.6156005859375 C -45.78959655761719 534.6156005859375 -45.78959655761719 529.6156005859375 -45.78959655761719 529.6156005859375 L -44.78959655761719 529.6156005859375 L -44.78959655761719 534.6156005859375 Z M -44.78959655761719 524.6156005859375 L -45.78959655761719 524.6156005859375 C -45.78959655761719 524.6156005859375 -45.78959655761719 522.3826904296875 -45.78959655761719 522.3826904296875 C -45.78959655761719 522.3826904296875 -45.78959655761719 519.6156005859375 -45.78959655761719 519.6156005859375 L -44.78959655761719 519.6156005859375 L -44.78959655761719 524.6156005859375 Z M -44.78959655761719 514.6156005859375 L -45.78959655761719 514.6156005859375 C -45.78959655761719 514.6156005859375 -45.78959655761719 509.6156005859375 -45.78959655761719 509.6156005859375 L -44.78959655761719 509.6156005859375 L -44.78959655761719 514.6156005859375 Z M -44.78959655761719 504.6156005859375 L -45.78959655761719 504.6156005859375 C -45.78959655761719 504.6156005859375 -45.78959655761719 499.6156005859375 -45.78959655761719 499.6156005859375 L -44.78959655761719 499.6156005859375 L -44.78959655761719 504.6156005859375 Z M -44.78959655761719 494.6156005859375 L -45.78959655761719 494.6156005859375 C -45.78959655761719 494.6156005859375 -45.78959655761719 489.6156005859375 -45.78959655761719 489.6156005859375 L -44.78959655761719 489.6156005859375 L -44.78959655761719 494.6156005859375 Z M -44.78959655761719 484.6156005859375 L -45.78959655761719 484.6156005859375 C -45.78959655761719 484.6156005859375 -45.78959655761719 480.8826293945312 -45.78959655761719 480.8826293945312 L -44.78959655761719 480.8826293945312 C -44.63342666625977 480.8826293945312 -44.52255630493164 480.8826293945312 -44.52255630493164 480.8826293945312 L -44.52255630493164 481.8826293945312 L -44.78959655761719 481.8826293945312 L -44.78959655761719 484.6156005859375 Z M -34.52255630493164 481.8826293945312 L -39.52255630493164 481.8826293945312 L -39.52255630493164 480.8826293945312 C -39.52255630493164 480.8826293945312 -34.52255630493164 480.8826293945312 -34.52255630493164 480.8826293945312 L -34.52255630493164 481.8826293945312 Z M -24.52255630493164 481.8826293945312 L -29.52255630493164 481.8826293945312 L -29.52255630493164 480.8826293945312 C -29.52255630493164 480.8826293945312 -24.52255630493164 480.8826293945312 -24.52255630493164 480.8826293945312 L -24.52255630493164 481.8826293945312 Z M -14.52255630493164 481.8826293945312 L -19.52255630493164 481.8826293945312 L -19.52255630493164 480.8826293945312 C -19.52255630493164 480.8826293945312 -14.52255630493164 480.8826293945312 -14.52255630493164 480.8826293945312 L -14.52255630493164 481.8826293945312 Z M -4.522556304931641 481.8826293945312 L -9.522556304931641 481.8826293945312 L -9.522556304931641 480.8826293945312 C -9.522556304931641 480.8826293945312 -4.522556304931641 480.8826293945312 -4.522556304931641 480.8826293945312 L -4.522556304931641 481.8826293945312 Z M 5.477443695068359 481.8826293945312 L 0.4774439036846161 481.8826293945312 L 0.4774439036846161 480.8826293945312 C 0.4774439036846161 480.8826293945312 5.477443695068359 480.8826293945312 5.477443695068359 480.8826293945312 L 5.477443695068359 481.8826293945312 Z M 15.47744369506836 481.8826293945312 L 10.47744369506836 481.8826293945312 L 10.47744369506836 480.8826293945312 C 10.47744369506836 480.8826293945312 15.47744369506836 480.8826293945312 15.47744369506836 480.8826293945312 L 15.47744369506836 481.8826293945312 Z M 25.47744369506836 481.8826293945312 L 20.47744369506836 481.8826293945312 L 20.47744369506836 480.8826293945312 C 20.47744369506836 480.8826293945312 25.47744369506836 480.8826293945312 25.47744369506836 480.8826293945312 L 25.47744369506836 481.8826293945312 Z M 35.47744369506836 481.8826293945312 L 30.47744369506836 481.8826293945312 L 30.47744369506836 480.8826293945312 C 30.47744369506836 480.8826293945312 35.47744369506836 480.8826293945312 35.47744369506836 480.8826293945312 L 35.47744369506836 481.8826293945312 Z M 45.47744369506836 481.8826293945312 L 40.47744369506836 481.8826293945312 L 40.47744369506836 480.8826293945312 C 40.47744369506836 480.8826293945312 45.47744369506836 480.8826293945312 45.47744369506836 480.8826293945312 L 45.47744369506836 481.8826293945312 Z M 55.47744369506836 481.8826293945312 L 50.47744369506836 481.8826293945312 L 50.47744369506836 480.8826293945312 C 50.47744369506836 480.8826293945312 55.47744369506836 480.8826293945312 55.47744369506836 480.8826293945312 L 55.47744369506836 481.8826293945312 Z M 65.47744750976562 481.8826293945312 L 60.47744369506836 481.8826293945312 L 60.47744369506836 480.8826293945312 C 60.47744369506836 480.8826293945312 65.47744750976562 480.8826293945312 65.47744750976562 480.8826293945312 L 65.47744750976562 481.8826293945312 Z M 75.47744750976562 481.8826293945312 L 70.47744750976562 481.8826293945312 L 70.47744750976562 480.8826293945312 C 70.47744750976562 480.8826293945312 75.47744750976562 480.8826293945312 75.47744750976562 480.8826293945312 L 75.47744750976562 481.8826293945312 Z M 85.47744750976562 481.8826293945312 L 80.47744750976562 481.8826293945312 L 80.47744750976562 480.8826293945312 C 80.47744750976562 480.8826293945312 85.47744750976562 480.8826293945312 85.47744750976562 480.8826293945312 L 85.47744750976562 481.8826293945312 Z M 95.47744750976562 481.8826293945312 L 90.47744750976562 481.8826293945312 L 90.47744750976562 480.8826293945312 C 90.47744750976562 480.8826293945312 95.47744750976562 480.8826293945312 95.47744750976562 480.8826293945312 L 95.47744750976562 481.8826293945312 Z M 105.4774475097656 481.8826293945312 L 100.4774475097656 481.8826293945312 L 100.4774475097656 480.8826293945312 C 100.4774475097656 480.8826293945312 105.4774475097656 480.8826293945312 105.4774475097656 480.8826293945312 L 105.4774475097656 481.8826293945312 Z M 114.943359375 481.8826293945312 L 110.4774475097656 481.8826293945312 L 110.4774475097656 480.8826293945312 C 110.4774475097656 480.8826293945312 114.943359375 480.8826293945312 114.943359375 480.8826293945312 L 114.943359375 481.8826293945312 Z M 114.943359375 491.4167175292969 L 113.943359375 491.4167175292969 L 113.943359375 486.4167175292969 L 114.943359375 486.4167175292969 L 114.943359375 491.4167175292969 Z M 114.943359375 501.4167175292969 L 113.943359375 501.4167175292969 L 113.943359375 496.4167175292969 L 114.943359375 496.4167175292969 L 114.943359375 501.4167175292969 Z M 114.943359375 511.4167175292969 L 113.943359375 511.4167175292969 L 113.943359375 506.4167175292969 L 114.943359375 506.4167175292969 L 114.943359375 511.4167175292969 Z M 114.943359375 521.4166870117188 L 113.943359375 521.4166870117188 L 113.943359375 516.4166870117188 L 114.943359375 516.4166870117188 L 114.943359375 521.4166870117188 Z M 114.943359375 531.4166870117188 L 113.943359375 531.4166870117188 L 113.943359375 526.4166870117188 L 114.943359375 526.4166870117188 L 114.943359375 531.4166870117188 Z M 114.943359375 541.4166870117188 L 113.943359375 541.4166870117188 L 113.943359375 536.4166870117188 L 114.943359375 536.4166870117188 L 114.943359375 541.4166870117188 Z M 114.943359375 551.4166870117188 L 113.943359375 551.4166870117188 L 113.943359375 546.4166870117188 L 114.943359375 546.4166870117188 L 114.943359375 551.4166870117188 Z M 114.943359375 561.4166870117188 L 113.943359375 561.4166870117188 L 113.943359375 556.4166870117188 L 114.943359375 556.4166870117188 L 114.943359375 561.4166870117188 Z" stroke="none" fill="#6c81de"/>
      </g>
      <g id="椭圆_44" data-name="椭圆 44" transform="translate(0 70.807) rotate(-76.717)" fill="#fff" stroke="#6c81de" stroke-width="3">
        <ellipse cx="19.214" cy="19.214" rx="19.214" ry="19.214" stroke="none"/>
        <ellipse cx="19.214" cy="19.214" rx="17.714" ry="17.714" fill="none"/>
      </g>
      <text id="_3" data-name="3" transform="translate(17 63.127)" fill="#6c81de" font-size="20" font-family="Arial-BoldMT, Arial" font-weight="700"><tspan x="0" y="0">3</tspan></text>
    </g>
    <g id="组_2051" data-name="组 2051" transform="translate(-220 -14.873)">
      <g id="组件_4_18" data-name="组件 4 – 18" transform="translate(4913.44 1614.873)">
        <path id="路径_2926-2" data-name="路径 2926" d="M102.945,24.635H0V0H102.945l11.134,12.317Z" transform="translate(34.451) rotate(90)" fill="#6c81de" stroke="#6c81de" stroke-width="1" stroke-dasharray="3"/>
        <path id="路径_2796-2" data-name="路径 2796" d="M-45.79,563.883v-83H152.5v83Z" transform="translate(80.241 -465.343)" fill="#6c81de"/>
        <g id="椭圆_44-2" data-name="椭圆 44" transform="translate(0 70.807) rotate(-76.717)" fill="#fff" stroke="#6c81de" stroke-width="3">
          <ellipse cx="19.214" cy="19.214" rx="19.214" ry="19.214" stroke="none"/>
          <ellipse cx="19.214" cy="19.214" rx="17.714" ry="17.714" fill="none"/>
        </g>
        <text id="_3-2" data-name="3" transform="translate(17.014 63.127)" fill="#6c81de" font-size="20" font-family="Arial-BoldMT, Arial" font-weight="700"><tspan x="0" y="0">3</tspan></text>
      </g>
      <path id="路径_3002" data-name="路径 3002" d="M0,83V0L77.668,83Z" transform="translate(5134.903 1728.524) rotate(-138)" fill="#6c81de"/>
    </g>
  </g>
</svg>
