<svg xmlns="http://www.w3.org/2000/svg" width="640.299" height="20.515" viewBox="0 0 640.299 20.515">
  <path id="wave" d="M-1584.578,2847.274v-20.515h640.3v20.515c-7.31,0-11.075-3.445-14.388-6.492-3.232-2.946-6.259-5.738-12.288-5.738s-9.054,2.792-12.273,5.738c-3.327,3.047-7.078,6.492-14.4,6.492s-11.073-3.445-14.388-6.492c-3.231-2.946-6.259-5.738-12.287-5.738s-9.069,2.792-12.288,5.738c-3.314,3.047-7.078,6.492-14.388,6.492s-11.073-3.445-14.4-6.492c-3.219-2.946-6.261-5.738-12.275-5.738s-9.069,2.792-12.288,5.738c-3.314,3.047-7.078,6.492-14.387,6.492-7.324,0-11.075-3.445-14.4-6.492-3.219-2.946-6.259-5.738-12.275-5.738s-9.069,2.792-12.287,5.738c-3.315,3.047-7.078,6.492-14.388,6.492s-11.088-3.445-14.4-6.492c-3.219-2.946-6.259-5.738-12.288-5.738s-9.054,2.792-12.273,5.738c-3.327,3.047-7.078,6.492-14.4,6.492s-11.073-3.445-14.4-6.492c-3.218-2.946-6.246-5.738-12.273-5.738s-9.069,2.792-12.289,5.738c-3.313,3.047-7.078,6.492-14.388,6.492s-11.073-3.445-14.4-6.492c-3.218-2.946-6.259-5.738-12.273-5.738s-9.069,2.792-12.288,5.738c-3.314,3.047-7.078,6.492-14.387,6.492s-11.075-3.445-14.4-6.492c-3.219-2.946-6.261-5.738-12.288-5.738s-9.056,2.792-12.273,5.738c-3.315,3.047-7.078,6.492-14.4,6.492s-11.075-3.445-14.388-6.492c-3.219-2.946-6.259-5.738-12.288-5.738-6.014,0-9.054,2.792-12.273,5.738-3.327,3.047-7.092,6.492-14.4,6.492s-11.073-3.445-14.4-6.492c-3.218-2.946-6.259-5.738-12.288-5.738s-9.055,2.792-12.274,5.738c-3.327,3.047-7.091,6.492-14.4,6.492s-11.088-3.445-14.4-6.492c-3.218-2.946-6.26-5.738-12.288-5.738s-9.054,2.792-12.273,5.738c-3.327,3.047-7.092,6.492-14.4,6.492s-11.088-3.445-14.4-6.492c-3.218-2.946-6.259-5.738-12.287-5.738s-9.07,2.792-12.288,5.738C-1573.49,2843.829-1577.255,2847.274-1584.578,2847.274Z" transform="translate(1584.578 -2826.759)" fill="#00afcf"/>
</svg>
